<svg width="24" height="24" fill="none" xmlns="http://www.w3.org/2000/svg"><path d="M19.1974 16.7217C19.0436 16.3372 18.6074 16.15 18.2228 16.3037C17.8384 16.4575 17.6513 16.8938 17.8049 17.2783L19.256 20.9072C19.3217 21.0714 19.2005 21.25 19.0236 21.25H5.03923C4.85842 21.2499 4.73726 21.0637 4.81072 20.8984L6.18572 17.8047C6.35395 17.4262 6.18337 16.9827 5.80486 16.8145C5.42657 16.6466 4.98388 16.8172 4.8156 17.1953L3.4406 20.2891C2.92629 21.4463 3.77293 22.7499 5.03923 22.75H19.0236C20.2616 22.75 21.1082 21.5001 20.6486 20.3506L19.1974 16.7217ZM12.0002 1.25C7.70019 1.25 4.25017 4.82959 4.25017 9.2002C4.25024 11.8716 5.67613 14.0052 7.20916 15.5293C8.74601 17.0572 10.4675 18.052 11.2453 18.4609C11.7207 18.7109 12.2796 18.7109 12.7551 18.4609C13.5329 18.052 15.2543 17.0572 16.7912 15.5293C18.3242 14.0052 19.7501 11.8716 19.7502 9.2002C19.7502 4.82959 16.3002 1.25 12.0002 1.25ZM12.0002 2.75C15.4322 2.75 18.2502 5.6179 18.2502 9.2002C18.2501 11.3095 17.1246 13.0828 15.7336 14.4658C14.3469 15.8444 12.7717 16.757 12.0568 17.1328C12.0183 17.153 11.982 17.153 11.9435 17.1328C11.2286 16.757 9.65347 15.8444 8.26677 14.4658C6.87572 13.0828 5.75024 11.3095 5.75017 9.2002C5.75017 5.6179 8.56817 2.75 12.0002 2.75ZM12.0002 5.75C10.2052 5.75 8.75017 7.20507 8.75017 9C8.75017 10.7949 10.2052 12.25 12.0002 12.25C13.7951 12.25 15.2502 10.7949 15.2502 9C15.2502 7.20507 13.7951 5.75 12.0002 5.75ZM12.0002 7.25C12.9667 7.25 13.7502 8.0335 13.7502 9C13.7502 9.9665 12.9667 10.75 12.0002 10.75C11.0337 10.75 10.2502 9.9665 10.2502 9C10.2502 8.0335 11.0337 7.25 12.0002 7.25Z" fill="#25935F"/></svg>