<svg width="19" height="12" fill="none" xmlns="http://www.w3.org/2000/svg"><path d="M0.75 6.00048C0.750003 6.37404 0.915654 6.72061 1.07252 6.98083C1.2418 7.26165 1.46944 7.55158 1.71918 7.83426C2.22018 8.40133 2.87387 9.01031 3.50824 9.56118C4.14633 10.1153 4.78222 10.6255 5.25725 10.9963C5.49516 11.182 5.69364 11.3334 5.83304 11.4387C5.90276 11.4914 5.95776 11.5326 5.99558 11.5607L6.03915 11.5931L6.05071 11.6017L6.05472 11.6046C6.38822 11.8503 6.85816 11.7794 7.10382 11.4459C7.34947 11.1124 7.27828 10.6429 6.94482 10.3973L6.93209 10.3879L6.89204 10.3581C6.85662 10.3317 6.8042 10.2925 6.7372 10.2418C6.60317 10.1406 6.41103 9.99399 6.18019 9.81382C5.71772 9.45285 5.10363 8.95995 4.49173 8.4286C3.87611 7.89401 3.27981 7.33518 2.84331 6.84111C2.8157 6.80986 2.78899 6.77915 2.76316 6.749L17.5 6.74899C17.9142 6.74899 18.25 6.41321 18.25 5.99899C18.25 5.58478 17.9142 5.24899 17.5 5.24899L2.7657 5.249C2.79073 5.21979 2.81661 5.19006 2.84331 5.15984C3.27981 4.66577 3.87611 4.10694 4.49173 3.57235C5.10363 3.04099 5.71772 2.5481 6.18019 2.18713C6.41102 2.00695 6.60317 1.86036 6.7372 1.75911C6.80419 1.7085 6.85662 1.66925 6.89203 1.64285L6.93208 1.61308L6.94481 1.60367C7.27828 1.358 7.34947 0.888521 7.10382 0.555035C6.85815 0.221533 6.38822 0.150642 6.05472 0.396304L6.05071 0.399264L6.03915 0.407818L5.99558 0.440203C5.95776 0.468397 5.90276 0.509569 5.83304 0.562239C5.69363 0.66755 5.49516 0.818986 5.25725 1.00468C4.78222 1.37546 4.14633 1.88567 3.50823 2.43977C2.87387 2.99064 2.22018 3.59962 1.71918 4.16669C1.46944 4.44937 1.2418 4.7393 1.07252 5.02012C0.916597 5.27878 0.751992 5.62276 0.750017 5.99375" fill="white"/></svg>