<svg width="29" height="28" fill="none" xmlns="http://www.w3.org/2000/svg"><path d="M26.168 26.5421C26.8122 26.542 27.334 26.0194 27.334 25.3751C27.334 24.7309 26.8122 24.2083 26.168 24.2081H25.876L25.876 16.8273C25.876 16.0446 25.8761 15.3596 25.8105 14.796C25.7397 14.1871 25.5822 13.599 25.1846 13.0646C24.7869 12.5301 24.269 12.2098 23.7061 11.9669C23.1851 11.7422 22.5289 11.5453 21.7793 11.3204C21.7594 11.3145 21.7388 11.3089 21.7188 11.3029L20.043 10.7999V9.48059C20.043 8.63888 20.0424 7.93393 19.9775 7.36145C19.909 6.75699 19.7601 6.20632 19.3994 5.71301C19.0366 5.21688 18.5586 4.9145 18.0059 4.67883C17.4875 4.45782 16.8297 4.26594 16.0518 4.04016L10.0996 2.31262C8.79943 1.93518 7.72759 1.6241 6.86719 1.50891C5.96629 1.38832 5.11178 1.4547 4.38281 2.02844C3.66164 2.5962 3.37831 3.41394 3.25 4.32922C3.1261 5.21317 3.12595 6.36209 3.12598 7.76868L3.12598 24.2081H2.83398C2.18982 24.2083 1.66798 24.7309 1.66797 25.3751C1.66797 26.0193 2.18982 26.5419 2.83398 26.5421L26.168 26.5421ZM9.83398 10.2081C9.3509 10.2079 8.95898 9.81626 8.95898 9.33313C8.95916 8.85015 9.35101 8.45833 9.83398 8.45813H13.334C13.8171 8.45813 14.2088 8.85003 14.209 9.33313C14.209 9.81638 13.8172 10.2081 13.334 10.2081H9.83398ZM9.83398 14.8751C9.35092 14.8749 8.95902 14.4832 8.95898 14.0001C8.95902 13.517 9.35092 13.1253 9.83398 13.1251H13.334C13.8172 13.1251 14.209 13.5169 14.209 14.0001C14.209 14.4833 13.8172 14.8751 13.334 14.8751H9.83398ZM20.043 13.2365L21.0488 13.5372C21.8761 13.7854 22.4007 13.9449 22.7822 14.1095C23.1353 14.2618 23.2489 14.3717 23.3125 14.4572C23.3761 14.5427 23.4487 14.6832 23.4932 15.0656C23.5412 15.4782 23.543 16.0261 23.543 16.8898L23.543 24.2081H20.043L20.043 13.2365ZM7.79297 20.9474C7.79291 20.4428 7.79221 19.9801 7.84277 19.6036C7.89853 19.1889 8.03015 18.7503 8.39063 18.3898C8.75115 18.0293 9.18978 17.8977 9.60449 17.8419C9.98106 17.7913 10.4444 17.7921 10.9492 17.7921H12.2197C12.7247 17.7921 13.1878 17.7913 13.5645 17.8419C13.9792 17.8977 14.4178 18.0293 14.7783 18.3898C15.1387 18.7502 15.2694 19.189 15.3252 19.6036C15.3758 19.9801 15.376 20.4428 15.376 20.9474L15.376 24.2081H13.626L13.626 21.0001C13.626 20.4255 13.6239 20.0819 13.5908 19.8361C13.5757 19.7238 13.5583 19.6671 13.5479 19.6417C13.5224 19.6313 13.4437 19.5914 13.3311 19.5763C13.0853 19.5433 12.7423 19.5421 12.168 19.5421H11.001C10.4267 19.5421 10.0837 19.5433 9.83789 19.5763C9.72527 19.5914 9.668 19.6098 9.64258 19.6202C9.63197 19.6459 9.59229 19.724 9.57715 19.8361C9.5441 20.0819 9.54297 20.4255 9.54297 21.0001L9.54297 24.2081H7.79297L7.79297 20.9474Z" fill="#54C08A"/></svg>