<svg width="24" height="24" fill="none" xmlns="http://www.w3.org/2000/svg"><path d="M19.0153 1.75406C19.6242 1.76662 20.0985 2.03064 20.4245 2.31266C20.7432 2.58843 20.9523 2.90719 21.0583 3.12418C21.0652 3.13819 21.0719 3.15274 21.0778 3.16715C21.6646 4.58835 22.0778 5.71972 22.3454 6.59098C22.6062 7.43985 22.7497 8.10739 22.7497 8.57144C22.7497 8.62231 22.7444 8.673 22.7341 8.72281C22.6262 9.24392 22.3422 9.9511 21.7165 10.6037V15.5568C21.7165 16.9247 21.7168 18.0275 21.6003 18.8947C21.4793 19.795 21.2198 20.5533 20.6179 21.1554C20.016 21.7574 19.2582 22.0168 18.3581 22.1378C17.4912 22.2544 16.3886 22.2541 15.0212 22.2541H8.91183C7.5443 22.2541 6.44189 22.2544 5.57491 22.1378C4.67481 22.0168 3.91703 21.7575 3.31515 21.1554C2.71328 20.5533 2.45373 19.795 2.33273 18.8947C2.21621 18.0275 2.21649 16.9247 2.21651 15.5568V10.5002C2.21652 10.49 2.21709 10.4799 2.21749 10.4699C2.20397 10.4557 2.18985 10.4421 2.17648 10.4279C1.89098 10.1239 1.54282 9.70504 1.38351 9.30973C1.28381 9.06222 1.25529 8.79426 1.25069 8.57047C1.24593 8.33708 1.26611 8.09535 1.29757 7.87125C1.35885 7.43494 1.47188 6.99723 1.57882 6.71207L2.25753 4.74723C2.26002 4.73981 2.26274 4.73155 2.26534 4.72379C2.34912 4.47407 2.49195 4.04743 2.66573 3.62906C2.7559 3.41201 2.85914 3.18479 2.97237 2.97867C3.08051 2.78187 3.22088 2.56102 3.3962 2.38687C3.75831 2.02728 4.2435 1.88734 4.58663 1.82437C4.95049 1.75761 5.29255 1.75406 5.46944 1.75406H12.4851C13.3785 1.76668 14.8082 1.76317 16.1189 1.75797C16.2924 1.75728 16.4643 1.75574 16.6325 1.75504C17.7231 1.75051 18.667 1.74689 19.0153 1.75406ZM14.8825 11.1828C14.7144 11.3045 14.5307 11.4248 14.3337 11.5373C13.6993 11.8995 12.878 12.211 11.9646 12.1984C10.725 12.1812 9.75044 11.6993 9.13448 11.2287C8.56142 11.7055 7.83755 12.0749 6.94503 12.1916C5.9527 12.3212 5.07946 12.1694 4.40597 11.9396C4.15228 11.8531 3.92088 11.752 3.71651 11.6476V15.5021C3.71651 16.938 3.71847 17.9398 3.82003 18.6955C3.91869 19.4293 4.09897 19.818 4.37569 20.0949C4.65247 20.3718 5.04139 20.5528 5.77511 20.6515C6.53037 20.7531 7.53139 20.7541 8.96651 20.7541H14.9665C16.4019 20.7541 17.4036 20.7531 18.1589 20.6515C18.8923 20.5528 19.2806 20.3717 19.5573 20.0949C19.8341 19.818 20.0143 19.4293 20.113 18.6955C20.2146 17.9398 20.2165 16.938 20.2165 15.5021V11.6476C19.9123 11.7874 19.5749 11.9154 19.198 12.0187C17.076 12.6 15.6436 11.8237 14.8825 11.1828ZM10.9665 17.2423C11.3807 17.2423 11.7164 17.5782 11.7165 17.9923C11.7165 18.4066 11.3807 18.7423 10.9665 18.7423H6.96651C6.55235 18.7423 6.21651 18.4065 6.21651 17.9923C6.21659 17.5782 6.5524 17.2424 6.96651 17.2423H10.9665ZM16.6355 3.25601C16.4688 3.2567 16.2981 3.25728 16.1247 3.25797C14.8209 3.26314 13.3796 3.26682 12.4694 3.25406H5.46944C5.31274 3.25406 5.08199 3.2587 4.85714 3.29996C4.61171 3.34503 4.49104 3.4134 4.45284 3.45133C4.42794 3.47621 4.36927 3.55125 4.28683 3.70133C4.20909 3.84285 4.12977 4.0158 4.05148 4.20426C3.89811 4.57343 3.7689 4.958 3.68429 5.21012L3.67648 5.23355L2.99288 7.21207C2.9904 7.21925 2.98777 7.22645 2.98507 7.23355C2.9224 7.39849 2.83191 7.73127 2.78292 8.08023C2.75886 8.25165 2.74704 8.40962 2.74972 8.54019C2.75104 8.60471 2.75625 8.65593 2.76241 8.69449C2.76825 8.73099 2.77359 8.74765 2.77413 8.74918C2.81997 8.86298 2.99387 9.10629 3.27023 9.40055C3.53139 9.6786 3.79147 9.90522 3.91573 9.99137C3.94651 10.0127 3.97637 10.036 4.00362 10.0617C4.07361 10.1276 4.38128 10.346 4.89034 10.5197C5.38272 10.6877 6.02257 10.7994 6.75069 10.7043C8.26523 10.5062 9.13503 9.10463 9.38058 8.21793C9.49113 7.81892 9.90439 7.58518 10.3034 7.69547C10.7025 7.80599 10.9373 8.2192 10.8269 8.61832C10.7125 9.03147 10.4862 9.56934 10.1335 10.1027C10.5286 10.3808 11.1682 10.6871 11.986 10.6984C12.5492 10.7061 13.1041 10.5117 13.5896 10.2345C14.0698 9.96033 14.4341 9.63152 14.6091 9.43375C14.6584 9.37139 14.8926 9.0176 15.1579 8.18961C15.2843 7.79515 15.7068 7.57787 16.1013 7.70426C16.4955 7.83067 16.7127 8.25238 16.5866 8.64664C16.3677 9.32985 16.1417 9.81064 15.9519 10.1212C16.4729 10.5232 17.4016 10.9549 18.8015 10.5714C20.6201 10.0732 21.1154 9.02351 21.2478 8.49723C21.2323 8.24901 21.1425 7.7825 20.9118 7.03141C20.6642 6.22525 20.273 5.14932 19.7028 3.76676C19.6657 3.6972 19.5759 3.56246 19.4431 3.44742C19.306 3.32882 19.1555 3.25768 18.9851 3.25406C18.6573 3.2473 17.7352 3.25147 16.6355 3.25601Z" fill="#161616"/></svg>