<svg width="28" height="28" fill="none" xmlns="http://www.w3.org/2000/svg"><path d="M21 1.45703C22.7719 1.45704 24.208 2.89411 24.208 4.66602V7.58203C24.208 8.06528 23.8163 8.45703 23.333 8.45703C22.8499 8.45687 22.458 8.06518 22.458 7.58203V4.66602C22.458 3.86061 21.8054 3.20704 21 3.20703H4.66699C3.86158 3.20703 3.20899 3.86061 3.20898 4.66602L3.20801 23.332C3.208 24.1375 3.86157 24.791 4.66699 24.791H12.833C13.3163 24.791 13.708 25.1828 13.708 25.666C13.7078 26.1491 13.3161 26.541 12.833 26.541H4.66699C2.89507 26.541 1.45799 25.104 1.45801 23.332L1.45898 4.66602C1.459 2.89411 2.89509 1.45703 4.66699 1.45703H21ZM21.583 10.791C24.3214 10.791 26.542 13.0106 26.542 15.749C26.542 17.2077 25.9118 18.5195 24.9092 19.4268L26.5117 25.4404C26.6026 25.7815 26.4799 26.144 26.2002 26.3594C25.9205 26.5745 25.5388 26.6008 25.2324 26.4258L21.583 24.3398L17.9346 26.4258C17.6281 26.6009 17.2455 26.5747 16.9658 26.3594C16.6862 26.1441 16.5635 25.7814 16.6543 25.4404L18.2578 19.4268C17.2552 18.5195 16.625 17.2077 16.625 15.749C16.625 13.0107 18.8448 10.7912 21.583 10.791ZM23.3525 20.3818C22.803 20.5918 22.2064 20.707 21.583 20.707C20.9598 20.707 20.3629 20.5918 19.8135 20.3818L18.8848 23.8662L21.1494 22.5723C21.4183 22.4187 21.7487 22.4187 22.0176 22.5723L24.2812 23.8662L23.3525 20.3818ZM21.583 12.541C19.8113 12.5412 18.375 13.9772 18.375 15.749C18.375 17.5208 19.8113 18.9568 21.583 18.957C23.3549 18.957 24.792 17.5209 24.792 15.749C24.792 13.9771 23.3549 12.541 21.583 12.541ZM12.833 14.291C13.3163 14.291 13.708 14.6828 13.708 15.166C13.7078 15.6491 13.3161 16.041 12.833 16.041H9.33301C8.85002 16.0408 8.45818 15.649 8.45801 15.166C8.45801 14.6829 8.84991 14.2912 9.33301 14.291H12.833ZM17.5 8.45703C17.9831 8.45703 18.3748 8.84893 18.375 9.33203C18.375 9.81528 17.9832 10.207 17.5 10.207H9.33301C8.84991 10.2069 8.45801 9.81517 8.45801 9.33203C8.45818 8.84904 8.85002 8.45721 9.33301 8.45703H17.5Z" fill="#1F2A37"/></svg>