<svg width="24" height="24" fill="none" xmlns="http://www.w3.org/2000/svg"><path d="M12.0576 1.75C14.2479 1.74999 15.9683 1.75012 17.3115 1.93066C18.6882 2.11575 19.7804 2.50315 20.6387 3.36133C21.4969 4.21953 21.8843 5.31182 22.0693 6.68848C22.2499 8.03165 22.25 9.75233 22.25 11.9424V12.0576C22.25 14.2479 22.2499 15.9683 22.0693 17.3115C21.8843 18.6882 21.4968 19.7804 20.6387 20.6387C19.7805 21.4969 18.6882 21.8843 17.3115 22.0693C15.9683 22.2498 14.2476 22.25 12.0576 22.25H11.9424C9.75233 22.25 8.03165 22.2499 6.68848 22.0693C5.31182 21.8843 4.21953 21.4969 3.36133 20.6387C2.50315 19.7804 2.11575 18.6882 1.93066 17.3115C1.75012 15.9683 1.74999 14.2479 1.75 12.0576V11.9424C1.74999 9.75213 1.75012 8.03174 1.93066 6.68848C2.11575 5.31182 2.50313 4.21953 3.36133 3.36133C4.21953 2.50313 5.31182 2.11575 6.68848 1.93066C8.03174 1.75012 9.75213 1.74999 11.9424 1.75H12.0576ZM12 3.25C9.73963 3.25 8.1196 3.25137 6.8877 3.41699C5.67747 3.57972 4.95489 3.88885 4.42188 4.42188C3.88886 4.9549 3.57972 5.67747 3.41699 6.8877C3.25137 8.1196 3.25 9.73963 3.25 12C3.25 14.2604 3.25137 15.8804 3.41699 17.1123C3.57972 18.3225 3.88887 19.0451 4.42188 19.5781C4.95489 20.1112 5.67747 20.4203 6.8877 20.583C8.1196 20.7486 9.73962 20.75 12 20.75C14.2604 20.75 15.8804 20.7486 17.1123 20.583C18.3226 20.4203 19.0451 20.1112 19.5781 19.5781C20.1111 19.0451 20.4203 18.3225 20.583 17.1123C20.7486 15.8804 20.75 14.2604 20.75 12C20.75 9.73962 20.7486 8.1196 20.583 6.8877C20.4203 5.67747 20.1112 4.95489 19.5781 4.42188C19.0451 3.88887 18.3225 3.57972 17.1123 3.41699C15.8804 3.25137 14.2604 3.25 12 3.25ZM7 15.25C7.41421 15.25 7.75 15.5858 7.75 16V18C7.75 18.4142 7.41421 18.75 7 18.75C6.58579 18.75 6.25 18.4142 6.25 18V16C6.25 15.5858 6.58579 15.25 7 15.25ZM12 14.25C12.4142 14.25 12.75 14.5858 12.75 15V18C12.75 18.4142 12.4142 18.75 12 18.75C11.5858 18.75 11.25 18.4142 11.25 18V15C11.25 14.5858 11.5858 14.25 12 14.25ZM17 12.25C17.4142 12.25 17.75 12.5858 17.75 13V18C17.75 18.4142 17.4142 18.75 17 18.75C16.5858 18.75 16.25 18.4142 16.25 18V13C16.25 12.5858 16.5858 12.25 17 12.25ZM15.7734 5.24316C16.0976 5.20201 16.4013 5.30749 16.6104 5.42383C16.6323 5.43605 16.6555 5.44936 16.6787 5.46387C16.6863 5.46852 16.6938 5.47364 16.7012 5.47852C16.8896 5.6009 17.1047 5.79865 17.2148 6.08594C17.2212 6.10267 17.2272 6.11957 17.2324 6.13672L17.7285 7.77539C17.8483 8.17177 17.6239 8.58999 17.2275 8.70996C16.8312 8.8299 16.4131 8.6062 16.293 8.20996L16.1318 7.67871C12.7069 12.2492 8.02817 12.306 5.9668 12.2373C5.55301 12.2233 5.2284 11.8758 5.24219 11.4619C5.25621 11.0481 5.60374 10.7235 6.01758 10.7373C7.92045 10.8007 11.8605 10.7469 14.8271 6.91504L14.1113 7.03027C13.7025 7.09596 13.3178 6.81708 13.252 6.4082C13.1863 5.9994 13.4642 5.61466 13.873 5.54883L15.749 5.24707C15.757 5.24579 15.7654 5.24419 15.7734 5.24316Z" fill="#161616"/></svg>