<svg width="20" height="20" fill="none" xmlns="http://www.w3.org/2000/svg"><path d="M10 1.04297C14.9206 1.04297 18.9579 4.86616 18.958 9.63965C18.958 14.4132 14.9207 18.2373 10 18.2373C9.42008 18.2381 8.84194 18.1841 8.27246 18.0771C8.07483 18.04 7.9489 18.0167 7.85547 18.0039C7.8152 17.9984 7.79002 17.9959 7.77637 17.9951C7.76221 18.0005 7.73456 18.0117 7.68945 18.0332C7.59403 18.0785 7.46698 18.1465 7.27246 18.25C6.07941 18.8844 4.68722 19.1091 3.34473 18.8594C3.12817 18.819 2.94914 18.6676 2.87305 18.4609C2.79699 18.2539 2.8355 18.0217 2.97461 17.8506C3.3643 17.3712 3.63246 16.7935 3.75098 16.1719C3.78298 16.0009 3.71035 15.7685 3.4873 15.542C1.97498 14.0062 1.04199 11.9294 1.04199 9.63965C1.04213 4.86616 5.07944 1.04297 10 1.04297ZM7.76758 17.9941C7.76471 17.9945 7.7627 17.9951 7.7627 17.9951C7.7627 17.9951 7.76716 17.9945 7.77637 17.9951L7.78809 17.9912L7.76758 17.9941ZM10 2.29297C5.71703 2.29297 2.29213 5.60813 2.29199 9.63965C2.29199 11.5806 3.081 13.348 4.37793 14.665C4.77308 15.0663 5.1129 15.6922 4.97852 16.4043V16.4053C4.89194 16.8598 4.74478 17.2982 4.54199 17.708C5.28677 17.6904 6.02433 17.4981 6.68555 17.1465L6.69824 17.1396C6.8765 17.0448 7.02913 16.9633 7.15332 16.9043C7.27345 16.8472 7.42358 16.7827 7.58594 16.7578C7.74395 16.7337 7.89758 16.7481 8.02539 16.7656C8.15308 16.7831 8.30962 16.8121 8.48828 16.8457L8.50293 16.8486C8.9962 16.9413 9.49707 16.988 9.99902 16.9873C14.2821 16.9873 17.708 13.6713 17.708 9.63965C17.7079 5.60813 14.283 2.29297 10 2.29297ZM6.67383 9.16797C7.13407 9.16797 7.50781 9.54073 7.50781 10.001C7.50781 10.4612 7.13407 10.834 6.67383 10.834H6.66699C6.20676 10.834 5.83301 10.4612 5.83301 10.001C5.83301 9.54073 6.20676 9.16797 6.66699 9.16797H6.67383ZM10.0039 9.16797C10.4642 9.16797 10.8379 9.54073 10.8379 10.001C10.8379 10.4612 10.4642 10.834 10.0039 10.834H9.99707C9.53682 10.834 9.16309 10.4612 9.16309 10.001C9.16309 9.54073 9.53682 9.16797 9.99707 9.16797H10.0039ZM13.333 9.16797C13.7931 9.16814 14.166 9.54083 14.166 10.001C14.166 10.4611 13.7931 10.8338 13.333 10.834H13.3252C12.8649 10.834 12.4922 10.4612 12.4922 10.001C12.4922 9.54073 12.8649 9.16797 13.3252 9.16797H13.333Z" fill="#1B8354"/></svg>