<svg width="25" height="24" fill="none" xmlns="http://www.w3.org/2000/svg"><rect x="0.333008" width="24" height="24" rx="12" fill="#F9FAFB"/><path d="M18.334 5.50195C18.7481 5.5018 19.084 5.16607 19.084 4.75195C19.0838 4.33796 18.748 4.0021 18.334 4.00195H17.2148C17.0078 3.68916 16.7844 3.39559 16.54 3.12695C15.4715 1.95219 14.0575 1.25102 12.335 1.25098C10.6124 1.25098 9.19848 1.95222 8.12988 3.12695C7.88543 3.39569 7.66118 3.68903 7.4541 4.00195L6.33398 4.00195C5.91986 4.00195 5.58414 4.33787 5.58398 4.75195C5.58398 5.16617 5.91977 5.50195 6.33398 5.50195L18.334 5.50195ZM16.5449 22.459C16.9802 22.6428 17.4847 22.8396 17.9619 22.71C18.4573 22.5753 18.8032 22.1161 19.0947 21.7236C19.4257 21.2781 20.138 20.1962 20.6689 19.3857C20.6689 19.3857 21.2581 18.5037 21.4951 18.0732C21.8139 17.4943 22.0839 16.8408 22.084 16.1328C22.084 15.4071 21.7922 14.684 21.4336 14.0586C20.2496 11.9942 19.1744 9.89466 18.6865 7.67383C18.6072 7.31262 18.5523 6.74221 18.0674 6.74219L6.60156 6.74219C6.11661 6.74219 6.06079 7.31261 5.98145 7.67383C5.49358 9.89462 4.4193 11.9942 3.23535 14.0586C2.87665 14.6841 2.58398 15.407 2.58398 16.1328C2.58407 16.8407 2.85417 17.4943 3.17285 18.0732C3.40977 18.5036 3.70962 18.9526 3.99902 19.3857C4.52998 20.1962 5.24226 21.2781 5.57324 21.7236C5.86475 22.116 6.21069 22.5751 6.70605 22.71C7.18329 22.8397 7.68768 22.6428 8.12305 22.459C9.49238 21.8807 10.7919 20.92 12.334 20.9199C13.8761 20.9199 15.1757 21.8806 16.5449 22.459ZM16.6562 20.5078C16.6906 20.6703 16.5254 20.8021 16.376 20.7295C16.0723 20.5819 15.7176 20.4044 15.3018 20.1963C13.3488 19.219 11.3202 19.219 9.36719 20.1963C8.95111 20.4045 8.59579 20.5819 8.29199 20.7295C8.14266 20.8019 7.97752 20.6701 8.01172 20.5078C8.35015 18.9164 8.59602 17.057 8.00195 15.5518C7.72696 14.855 8.02957 14.058 8.69336 13.2627C9.20854 12.6455 9.60899 11.9189 9.82617 11.1201C10.0676 10.232 10.4161 9.64729 10.8164 9.28711C11.6263 8.5585 13.0427 8.5585 13.8525 9.28711C14.2528 9.64731 14.6013 10.2321 14.8428 11.1201C15.0599 11.9188 15.4595 12.6455 15.9746 13.2627C16.6384 14.058 16.942 14.855 16.667 15.5518C16.0729 17.057 16.3178 18.9164 16.6562 20.5078Z" fill="#1F2A37"/></svg>