<svg width="24" height="24" fill="none" xmlns="http://www.w3.org/2000/svg"><path d="M18.4043 8.16699C18.5592 8.08151 18.7465 8.19962 19.1201 8.43457C21.3003 9.80593 22.7489 12.2332 22.749 14.999C22.749 19.2792 19.2792 22.749 14.999 22.749C12.2332 22.7489 9.80593 21.3003 8.43457 19.1201C8.19962 18.7465 8.08151 18.5592 8.16699 18.4043C8.25256 18.2494 8.50167 18.249 8.99902 18.249C14.1077 18.249 18.249 14.1077 18.249 8.99902C18.249 8.50167 18.2494 8.25256 18.4043 8.16699ZM8.99902 1.24902C13.2792 1.24902 16.749 4.71882 16.749 8.99902C16.749 13.2792 13.2792 16.749 8.99902 16.749C4.71882 16.749 1.24902 13.2792 1.24902 8.99902C1.24902 4.71882 4.71882 1.24902 8.99902 1.24902ZM9.02441 14.2686C9.00788 14.4472 8.99902 14.6286 8.99902 14.8115C9.18195 14.8115 9.36338 14.8027 9.54199 14.7861L9.02441 14.2686ZM3.21191 8.45605C3.19538 8.63467 3.18652 8.81609 3.18652 8.99902C3.18652 11.5324 4.80723 13.6874 7.06836 14.4834C7.09521 13.8391 7.20115 13.2144 7.37598 12.6201L3.21191 8.45605ZM12.1484 9.64355C11.0757 10.1975 10.1975 11.0757 9.64355 12.1484L11.6621 14.167C12.7349 13.6131 13.6131 12.7349 14.167 11.6621L12.1484 9.64355ZM6.33594 3.83105C5.26316 4.38498 4.38498 5.26316 3.83105 6.33594L8.22363 10.7285C8.85431 9.71309 9.71309 8.85431 10.7285 8.22363L6.33594 3.83105ZM14.8115 8.99902C14.6286 8.99902 14.4472 9.00788 14.2686 9.02441L14.7861 9.54199C14.8027 9.36338 14.8115 9.18195 14.8115 8.99902ZM8.99902 3.18652C8.81609 3.18652 8.63467 3.19538 8.45605 3.21191L12.6201 7.37598C13.2144 7.20115 13.8391 7.09521 14.4834 7.06836C13.6874 4.80723 11.5324 3.18652 8.99902 3.18652Z" fill="#1B8354"/></svg>