<svg width="22" height="22" fill="none" xmlns="http://www.w3.org/2000/svg"><path fill-rule="evenodd" clip-rule="evenodd" d="M11.7583 5.99915C11.7583 5.58493 11.4225 5.24915 11.0083 5.24915C10.5941 5.24915 10.2583 5.58493 10.2583 5.99915V8.88633C9.38441 9.19521 8.7583 10.0286 8.7583 11.0083C8.7583 12.2509 9.76566 13.2583 11.0083 13.2583C11.3544 13.2583 11.6822 13.1802 11.9751 13.0406L13.4849 14.5503C13.7778 14.8432 14.2526 14.8432 14.5455 14.5503C14.8384 14.2574 14.8384 13.7825 14.5455 13.4896L13.0375 11.9816C13.179 11.687 13.2583 11.3569 13.2583 11.0083C13.2583 10.0286 12.6322 9.19521 11.7583 8.88633V5.99915ZM11.7583 11.0083C11.7583 11.2162 11.6737 11.4043 11.5372 11.5401C11.4016 11.675 11.2147 11.7583 11.0083 11.7583C10.5941 11.7583 10.2583 11.4225 10.2583 11.0083C10.2583 10.5941 10.5941 10.2583 11.0083 10.2583C11.4225 10.2583 11.7583 10.5941 11.7583 11.0083Z" fill="#384250"/><path fill-rule="evenodd" clip-rule="evenodd" d="M11 0.25C5.06294 0.25 0.25 5.06294 0.25 11C0.25 16.9371 5.06294 21.75 11 21.75C16.9371 21.75 21.75 16.9371 21.75 11C21.75 5.06294 16.9371 0.25 11 0.25ZM1.75 11C1.75 5.89137 5.89137 1.75 11 1.75C16.1086 1.75 20.25 5.89137 20.25 11C20.25 16.1086 16.1086 20.25 11 20.25C5.89137 20.25 1.75 16.1086 1.75 11Z" fill="#384250"/></svg>