<svg width="24" height="24" fill="none" xmlns="http://www.w3.org/2000/svg"><path d="M9.96484 1.00098C10.5171 1.00098 10.9648 1.44877 10.9648 2.00098C10.9648 2.55326 10.5171 3.00098 9.96484 3.00098C8.31109 3.00098 7.14874 3.00281 6.25293 3.09766C5.37537 3.19062 4.86876 3.36383 4.48633 3.63281C4.15392 3.86666 3.86492 4.15781 3.63184 4.49219C3.36314 4.87771 3.18935 5.38835 3.09668 6.27149C3.0022 7.17218 3.00098 8.34018 3.00098 10.001C3.00098 11.6621 3.00216 12.8307 3.09668 13.7314C3.18937 14.6145 3.36312 15.1252 3.63184 15.5107C3.86484 15.8449 4.15409 16.1354 4.48633 16.3691C4.86877 16.6381 5.37532 16.8123 6.25293 16.9053C7.14874 17.0001 8.31109 17.001 9.96484 17.001H13.9473C15.6012 17.001 16.7633 17.0001 17.6592 16.9053C18.537 16.8123 19.0433 16.6382 19.4258 16.3691C19.8775 16.0515 20.5016 16.1606 20.8193 16.6123C21.1368 17.064 21.0278 17.6872 20.5762 18.0049C19.8017 18.5496 18.9137 18.783 17.8701 18.8936C16.8566 19.0009 15.5879 19.001 14.0039 19.001H13.4014C13.0242 19.001 13.001 19.0242 13.001 19.4014V20.001C13.001 20.8283 13.1738 21.001 14.001 21.001H16.001C16.5532 21.001 17.0009 21.4488 17.001 22.001C17.001 22.5533 16.5533 23.001 16.001 23.001H8.00098C7.44877 23.0009 7.00098 22.5532 7.00098 22.001C7.00107 21.4488 7.44882 21.0011 8.00098 21.001H10.001C10.8283 21.001 11.001 20.8283 11.001 20.001V19.4014C11.001 19.0244 10.9783 19.001 10.6016 19.001H9.9082C8.3244 19.001 7.05643 19.0008 6.04297 18.8936C4.99928 18.783 4.11048 18.5497 3.33594 18.0049C2.81252 17.6367 2.35745 17.1796 1.99121 16.6543C1.44979 15.8776 1.21728 14.9864 1.10742 13.9395C1.00072 12.9222 1.00096 11.649 1.00098 10.0576V9.94434C1.00096 8.35289 1.00069 7.07979 1.10742 6.0625C1.21728 5.01563 1.44987 4.12531 1.99121 3.34863C2.35751 2.82314 2.81237 2.36536 3.33594 1.99707C4.11048 1.45229 4.99928 1.21891 6.04297 1.1084C7.05643 1.00111 8.32442 1.00096 9.9082 1.00098H9.96484ZM18.3027 1.00098C19.2012 1.00095 19.9511 1.00109 20.5459 1.08106C21.1735 1.16548 21.74 1.35134 22.1953 1.80664C22.6508 2.26211 22.8365 2.82924 22.9209 3.45703C23.0008 4.05175 23.001 4.80092 23.001 5.69922V9.80274C23.001 10.7012 23.0009 11.4511 22.9209 12.0459C22.8365 12.6735 22.6507 13.2399 22.1953 13.6953C21.74 14.1507 21.1735 14.3365 20.5459 14.4209C19.9511 14.5009 19.2012 14.501 18.3027 14.501H17.1992C16.3008 14.501 15.5508 14.5009 14.9561 14.4209C14.3285 14.3365 13.762 14.1507 13.3066 13.6953C12.8513 13.2399 12.6655 12.6735 12.5811 12.0459C12.5011 11.4511 12.501 10.7012 12.501 9.80274V5.69922C12.501 4.80095 12.5011 4.05174 12.5811 3.45703C12.6655 2.82924 12.8512 2.26211 13.3066 1.80664C13.762 1.35134 14.3285 1.16548 14.9561 1.08106C15.5508 1.00109 16.3008 1.00095 17.1992 1.00098H18.3027ZM17.7461 10.251C17.1965 10.2512 16.7511 10.6989 16.751 11.251C16.751 11.8031 17.1965 12.2508 17.7461 12.251H17.7559C18.3055 12.2508 18.751 11.8031 18.751 11.251C18.7509 10.6989 18.3054 10.2512 17.7559 10.251H17.7461Z" fill="#1B8354"/></svg>