<svg width="24" height="24" fill="none" xmlns="http://www.w3.org/2000/svg"><path d="M17.5 10.5C16.9477 10.5 16.5 10.9477 16.5 11.5C16.5 12.0523 16.9477 12.5 17.5 12.5H17.509C18.0613 12.5 18.509 12.0523 18.509 11.5C18.509 10.9477 18.0613 10.5 17.509 10.5H17.5Z" fill="#1B8354"/><path fill-rule="evenodd" clip-rule="evenodd" d="M16.948 1.25H18.052C18.9505 1.24997 19.6997 1.24995 20.2945 1.32991C20.9223 1.41432 21.4891 1.59999 21.9445 2.05546C22.4 2.51093 22.5857 3.07773 22.6701 3.70552C22.7501 4.30027 22.75 5.04943 22.75 5.94784V10.052C22.75 10.9504 22.7501 11.6997 22.6701 12.2945C22.5857 12.9223 22.4 13.4891 21.9445 13.9445C21.4891 14.4 20.9223 14.5857 20.2945 14.6701C19.6997 14.7501 18.9505 14.75 18.052 14.75H16.948C16.0495 14.75 15.3003 14.7501 14.7055 14.6701C14.0777 14.5857 13.5109 14.4 13.0555 13.9445C12.6 13.4891 12.4143 12.9223 12.3299 12.2945C12.2499 11.6997 12.25 10.9505 12.25 10.052V5.948C12.25 5.04954 12.2499 4.3003 12.3299 3.70552C12.4143 3.07773 12.6 2.51093 13.0555 2.05546C13.5109 1.59999 14.0777 1.41432 14.7055 1.32991C15.3003 1.24995 16.0495 1.24997 16.948 1.25ZM14.9054 2.81654C14.4439 2.87858 14.2464 2.9858 14.1161 3.11612C13.9858 3.24644 13.8786 3.44393 13.8165 3.9054C13.7516 4.38843 13.75 5.03599 13.75 6V10C13.75 10.964 13.7516 11.6116 13.8165 12.0946C13.8786 12.5561 13.9858 12.7536 14.1161 12.8839C14.2464 13.0142 14.4439 13.1214 14.9054 13.1835C15.3884 13.2484 16.036 13.25 17 13.25H18C18.964 13.25 19.6116 13.2484 20.0946 13.1835C20.5561 13.1214 20.7536 13.0142 20.8839 12.8839C21.0142 12.7536 21.1214 12.5561 21.1835 12.0946C21.2484 11.6116 21.25 10.964 21.25 10V6C21.25 5.03599 21.2484 4.38843 21.1835 3.9054C21.1214 3.44393 21.0142 3.24644 20.8839 3.11612C20.7536 2.9858 20.5561 2.87858 20.0946 2.81654C19.6116 2.7516 18.964 2.75 18 2.75H17C16.036 2.75 15.3884 2.7516 14.9054 2.81654Z" fill="#1B8354"/><path d="M9.92035 1.25H9.96412C10.3783 1.25 10.7141 1.58579 10.7141 2C10.7141 2.41421 10.3783 2.75 9.96412 2.75C8.31557 2.75 7.13798 2.75098 6.22587 2.84756C5.32731 2.9427 4.77328 3.12377 4.34178 3.42727C3.98538 3.67795 3.67522 3.98945 3.42544 4.34779C3.12261 4.78222 2.942 5.34017 2.84718 6.24386C2.75097 7.16072 2.75 8.34424 2.75 10C2.75 11.6558 2.75097 12.8393 2.84718 13.7561C2.942 14.6598 3.12261 15.2178 3.42544 15.6522C3.67522 16.0106 3.98538 16.3221 4.34178 16.5727C4.77328 16.8762 5.32731 17.0573 6.22587 17.1524C7.13798 17.249 8.31557 17.25 9.96412 17.25H13.9462C15.5947 17.25 16.7723 17.249 17.6844 17.1524C18.583 17.0573 19.137 16.8762 19.5685 16.5727C19.9073 16.3344 20.3752 16.4159 20.6135 16.7547C20.8518 17.0935 20.7703 17.5613 20.4315 17.7996C19.7059 18.31 18.8653 18.5358 17.8424 18.6441C16.8421 18.75 15.5851 18.75 13.9899 18.75H12.75V21.25H16C16.4142 21.25 16.75 21.5858 16.75 22C16.75 22.4142 16.4142 22.75 16 22.75H8C7.58579 22.75 7.25 22.4142 7.25 22C7.25 21.5858 7.58579 21.25 8 21.25H11.25V18.75H9.92037C8.32519 18.75 7.06822 18.75 6.06793 18.6441C5.04498 18.5358 4.20436 18.31 3.47882 17.7996C2.97908 17.4481 2.54458 17.0116 2.1949 16.51C1.68756 15.7822 1.46308 14.9392 1.35537 13.9127C1.24999 12.9084 1.24999 11.6462 1.25 10.0434V9.95657C1.24999 8.35376 1.24999 7.09158 1.35537 6.08732C1.46308 5.06083 1.68756 4.21784 2.1949 3.49002C2.54458 2.98836 2.97908 2.55186 3.47882 2.20036C4.20436 1.69005 5.04498 1.46421 6.06793 1.3559C7.06822 1.24999 8.32518 1.24999 9.92035 1.25Z" fill="#1B8354"/></svg>