<svg width="20" height="20" fill="none" xmlns="http://www.w3.org/2000/svg"><path fill-rule="evenodd" clip-rule="evenodd" d="M7.95775 1.04102H7.87623C6.54101 1.04101 5.48322 1.041 4.64637 1.13992C3.78723 1.24147 3.07998 1.45467 2.48919 1.93952C2.28876 2.104 2.10498 2.28778 1.94049 2.48821C1.45565 3.079 1.24245 3.78625 1.14089 4.64539C1.04197 5.48224 1.04198 6.54004 1.04199 7.87526V7.95678C1.04198 9.29199 1.04197 10.3498 1.14089 11.1866C1.24245 12.0458 1.45564 12.753 1.94049 13.3438C2.10498 13.5442 2.28876 13.728 2.48919 13.8925C3.04908 14.352 3.71357 14.5675 4.51319 14.6753C5.16224 14.7628 5.94353 14.784 6.88425 14.7892C6.8951 15.3076 6.91915 15.7629 6.97243 16.1591C7.07328 16.9092 7.28902 17.5408 7.79062 18.0424C8.29221 18.544 8.92378 18.7597 9.67387 18.8606C10.3963 18.9577 11.3149 18.9577 12.4546 18.9577H13.3794C14.519 18.9577 15.4376 18.9577 16.1601 18.8606C16.9102 18.7597 17.5418 18.544 18.0434 18.0424C18.545 17.5408 18.7607 16.9092 18.8616 16.1591C18.9587 15.4367 18.9587 14.5181 18.9587 13.3784V12.4536C18.9587 11.314 18.9587 10.3954 18.8616 9.67289C18.7607 8.9228 18.545 8.29124 18.0434 7.78964C17.5418 7.28804 16.9102 7.0723 16.1601 6.97145C15.7639 6.91818 15.3086 6.89413 14.7902 6.88327C14.7849 5.94255 14.7637 5.16127 14.6763 4.51221C14.5685 3.71259 14.353 3.0481 13.8935 2.48821C13.729 2.28778 13.5452 2.104 13.3448 1.93952C12.754 1.45467 12.0468 1.24147 11.1876 1.13992C10.3508 1.041 9.29297 1.04101 7.95775 1.04102ZM13.5401 6.87436C13.5345 5.9492 13.5137 5.24505 13.4375 4.67915C13.3468 4.006 13.185 3.59529 12.9272 3.2812C12.8147 3.14407 12.6889 3.01832 12.5518 2.90578C12.2206 2.634 11.782 2.46888 11.0409 2.38127C10.286 2.29204 9.30209 2.29102 7.91699 2.29102C6.5319 2.29102 5.54803 2.29204 4.7931 2.38127C4.05197 2.46888 3.61335 2.634 3.28218 2.90578C3.14504 3.01832 3.0193 3.14407 2.90676 3.2812C2.63497 3.61237 2.46986 4.05099 2.38225 4.79212C2.29302 5.54705 2.29199 6.53092 2.29199 7.91602C2.29199 9.30111 2.29302 10.285 2.38225 11.0399C2.46985 11.781 2.63497 12.2197 2.90676 12.5508C3.0193 12.688 3.14504 12.8137 3.28218 12.9263C3.59627 13.184 4.00698 13.3458 4.68012 13.4365C5.24603 13.5127 5.95018 13.5336 6.87533 13.5391C6.87532 13.486 6.87533 13.4325 6.87533 13.3784V12.4536C6.87531 11.314 6.8753 10.3954 6.97243 9.67289C7.07328 8.9228 7.28902 8.29124 7.79062 7.78964C8.29222 7.28804 8.92378 7.0723 9.67387 6.97145C10.3963 6.87432 11.3149 6.87433 12.4546 6.87435H13.3794C13.4334 6.87435 13.487 6.87435 13.5401 6.87436ZM8.6745 8.67352C8.90514 8.44289 9.22895 8.29252 9.84043 8.21031C10.4699 8.12568 11.3041 8.12435 12.5003 8.12435H13.3337C14.5298 8.12435 15.3641 8.12568 15.9936 8.21031C16.605 8.29252 16.9288 8.44289 17.1595 8.67353C17.3901 8.90416 17.5405 9.22797 17.6227 9.83945C17.7073 10.4689 17.7087 11.3032 17.7087 12.4994V13.3327C17.7087 14.5289 17.7073 15.3631 17.6227 15.9926C17.5405 16.6041 17.3901 16.9279 17.1595 17.1585C16.9288 17.3891 16.605 17.5395 15.9936 17.6217C15.3641 17.7064 14.5298 17.7077 13.3337 17.7077H12.5003C11.3041 17.7077 10.4699 17.7064 9.84043 17.6217C9.22895 17.5395 8.90514 17.3891 8.6745 17.1585C8.44386 16.9279 8.29349 16.6041 8.21128 15.9926C8.12665 15.3631 8.12533 14.5289 8.12533 13.3327V12.4993C8.12533 11.3032 8.12665 10.4689 8.21128 9.83945C8.29349 9.22797 8.44387 8.90416 8.6745 8.67352Z" fill="#1B8354"/></svg>