<svg width="24" height="24" fill="none" xmlns="http://www.w3.org/2000/svg"><path d="M12.5566 1.25C14.3943 1.24998 15.8501 1.25016 16.9893 1.40332C18.1616 1.56096 19.1101 1.89329 19.8584 2.6416C20.6067 3.38991 20.939 4.33844 21.0967 5.51074C21.2498 6.64991 21.25 8.10571 21.25 9.94336V16.9287C21.25 16.9399 21.2485 16.9509 21.248 16.9619C21.2487 16.9745 21.25 16.9872 21.25 17C21.25 17.4142 20.9142 17.75 20.5 17.75C19.5335 17.75 18.75 18.5335 18.75 19.5C18.75 20.4665 19.5335 21.25 20.5 21.25C20.9142 21.25 21.25 21.5858 21.25 22C21.25 22.4142 20.9142 22.75 20.5 22.75H6C4.20508 22.75 2.75 21.2949 2.75 19.5V9.94336C2.74998 8.10571 2.75016 6.64991 2.90332 5.51074C3.06096 4.33844 3.39329 3.38991 4.1416 2.6416C4.88991 1.89329 5.83844 1.56096 7.01074 1.40332C8.14991 1.25016 9.60571 1.24998 11.4434 1.25H12.5566ZM6 17.75C5.0335 17.75 4.25 18.5335 4.25 19.5C4.25 20.4665 5.0335 21.25 6 21.25H17.7617C17.4382 20.7448 17.25 20.1445 17.25 19.5C17.25 18.8555 17.4382 18.2552 17.7617 17.75H6ZM13.75 6.68652C13.75 7.54852 13.7501 8.17895 13.2051 8.54395C13.1384 8.59468 13.0716 8.63032 13.0068 8.65527C12.8592 8.72113 12.714 8.74988 12.5684 8.75C12.1338 8.74958 11.6911 8.49066 11.1377 8.16602C11.1357 8.16502 11.129 8.16116 11.127 8.16016C10.89 8.01817 10.597 7.84315 10.501 7.82715C10.4045 7.84269 10.1116 8.01841 9.875 8.16016C9.87263 8.16148 9.86708 8.16509 9.86523 8.16602C9.12538 8.59993 8.58206 8.91724 7.99414 8.65527C7.92939 8.63033 7.86263 8.59468 7.7959 8.54395C7.2509 8.17895 7.25 7.54752 7.25 6.68652V2.88477C7.23694 2.88646 7.22389 2.88791 7.21094 2.88965C6.20485 3.02491 5.62536 3.27894 5.20215 3.70215C4.77894 4.12536 4.52491 4.70485 4.38965 5.71094C4.2515 6.73859 4.25 8.09324 4.25 10V16.7617C4.75523 16.4382 5.35552 16.25 6 16.25H19.75V10C19.75 8.09324 19.7485 6.73859 19.6104 5.71094C19.4751 4.70485 19.2211 4.12536 18.7979 3.70215C18.3746 3.27894 17.7952 3.02491 16.7891 2.88965C16.0017 2.7838 15.0225 2.7572 13.75 2.75098V6.68652ZM11.5 2.75C10.4198 2.75 9.51676 2.75178 8.75 2.77734V6.68652C8.75 6.81652 8.74995 6.95315 8.75195 7.07715C8.86391 7.01417 8.98851 6.94105 9.10547 6.87207C9.61635 6.56614 9.98626 6.34524 10.4541 6.32715H10.5469C11.0147 6.34428 11.3847 6.56615 11.8965 6.87305C12.0134 6.941 12.1361 7.0142 12.248 7.07715C12.25 6.95415 12.25 6.81652 12.25 6.68652V2.75H11.5Z" fill="#161616"/></svg>