<svg width="20" height="20" fill="none" xmlns="http://www.w3.org/2000/svg"><path d="M10 1.04297C14.9476 1.04297 18.958 5.05343 18.958 10.001C18.958 14.9485 14.9476 18.959 10 18.959C5.05245 18.959 1.04199 14.9485 1.04199 10.001C1.04199 5.05343 5.05245 1.04297 10 1.04297ZM10 2.29297C5.7428 2.29297 2.29199 5.74378 2.29199 10.001C2.29199 14.2582 5.7428 17.709 10 17.709C14.2572 17.709 17.708 14.2582 17.708 10.001C17.708 5.74378 14.2572 2.29297 10 2.29297ZM12.4902 12.709C12.8353 12.709 13.1151 12.989 13.1152 13.334C13.1152 13.6792 12.8354 13.959 12.4902 13.959H7.49023C7.14506 13.959 6.86523 13.6792 6.86523 13.334C6.86541 12.989 7.14516 12.709 7.49023 12.709H12.4902ZM10 5.20898C10.3451 5.20898 10.6248 5.48896 10.625 5.83398V9.3252L11.2246 8.72559C11.4686 8.48156 11.8643 8.48167 12.1084 8.72559C12.3525 8.96966 12.3525 9.3653 12.1084 9.60938L11.0107 10.707C10.89 10.8279 10.7599 10.9592 10.6348 11.0547C10.4882 11.1665 10.2779 11.2871 10 11.2871C9.72211 11.2871 9.51185 11.1665 9.36523 11.0547C9.24014 10.9592 9.11002 10.8279 8.98926 10.707L7.8916 9.60938C7.64752 9.3653 7.64752 8.96966 7.8916 8.72559C8.13569 8.48167 8.53137 8.48156 8.77539 8.72559L9.375 9.3252V5.83398C9.37518 5.48896 9.65493 5.20898 10 5.20898Z" fill="#161616"/></svg>