<svg width="30" height="21" fill="none" xmlns="http://www.w3.org/2000/svg"><path d="M5.59125 20.8C3.88458 20.8 2.63125 20.3733 1.83125 19.52C1.08458 18.6133 0.71125 17.4667 0.71125 16.08V14.96C0.71125 12.7733 1.35125 10.3733 2.63125 7.76C3.91125 5.09333 5.69792 2.77333 7.99125 0.799999H13.3513C11.7513 2.50667 10.4446 4.13333 9.43125 5.68C8.47125 7.17333 7.77792 8.85333 7.35125 10.72C8.41792 10.9867 9.19125 11.4933 9.67125 12.24C10.2046 12.9867 10.4713 13.8933 10.4713 14.96V16.08C10.4713 17.4667 10.0713 18.6133 9.27125 19.52C8.52458 20.3733 7.29792 20.8 5.59125 20.8ZM21.7513 20.8C20.0446 20.8 18.7913 20.3733 17.9913 19.52C17.2446 18.6133 16.8713 17.4667 16.8713 16.08V14.96C16.8713 12.7733 17.5113 10.3733 18.7913 7.76C20.0713 5.09333 21.8579 2.77333 24.1513 0.799999H29.5113C27.9113 2.50667 26.6046 4.13333 25.5913 5.68C24.6313 7.17333 23.9379 8.85333 23.5113 10.72C24.5779 10.9867 25.3513 11.4933 25.8313 12.24C26.3646 12.9867 26.6313 13.8933 26.6313 14.96V16.08C26.6313 17.4667 26.2313 18.6133 25.4313 19.52C24.6846 20.3733 23.4579 20.8 21.7513 20.8Z" fill="#1B8354" fill-opacity="0.6"/></svg>