<svg width="24" height="25" fill="none" xmlns="http://www.w3.org/2000/svg"><path fill-rule="evenodd" clip-rule="evenodd" d="M14.92 3.1911C12.967 3.14203 11.033 3.14203 9.07999 3.1911L9.02182 3.19256C7.497 3.23084 6.27002 3.26165 5.2867 3.4329C4.2572 3.61219 3.42048 3.95607 2.71362 4.66562C2.00971 5.3722 1.66764 6.19689 1.49176 7.2097C1.32429 8.17407 1.29878 9.3711 1.26719 10.8539L1.26593 10.9127C1.24469 11.909 1.24469 12.8996 1.26594 13.8959L1.26719 13.9546C1.29879 15.4375 1.32429 16.6345 1.49176 17.5989C1.66764 18.6117 2.00972 19.4364 2.71362 20.143C3.42048 20.8525 4.2572 21.1964 5.2867 21.3757C6.27001 21.5469 7.49697 21.5778 9.02177 21.616L9.07999 21.6175C11.033 21.6666 12.967 21.6666 14.92 21.6175L14.9782 21.616C16.503 21.5778 17.73 21.5469 18.7133 21.3757C19.7428 21.1964 20.5795 20.8525 21.2864 20.143C21.9903 19.4364 22.3324 18.6117 22.5082 17.5989C22.6757 16.6345 22.7012 15.4375 22.7328 13.9546L22.7341 13.8959C22.7553 12.8996 22.7553 11.909 22.7341 10.9127L22.7328 10.854C22.7012 9.37112 22.6757 8.17409 22.5082 7.20972C22.3324 6.19691 21.9903 5.37222 21.2864 4.66564C20.5795 3.95608 19.7428 3.61221 18.7133 3.43291C17.73 3.26166 16.503 3.23085 14.9782 3.19256L14.92 3.1911ZM9.11766 4.69062C11.0456 4.64219 12.9544 4.64219 14.8823 4.69063C16.479 4.73075 17.5947 4.76068 18.4559 4.91067C19.2835 5.05479 19.7994 5.2984 20.2237 5.72428C20.3977 5.89889 20.5405 6.08684 20.6582 6.30259L14.7173 9.66874C13.4621 10.38 12.7003 10.6543 12.0001 10.6543C11.2999 10.6543 10.5381 10.38 9.28285 9.66874L3.34181 6.3025C3.4595 6.08679 3.60237 5.89885 3.77629 5.72427C4.20055 5.29839 4.71652 5.05477 5.54405 4.91066C6.40529 4.76067 7.52099 4.73074 9.11766 4.69062ZM2.92102 7.78813C2.81754 8.57994 2.79468 9.58076 2.76559 10.9447C2.7448 11.9197 2.7448 12.8889 2.7656 13.8639C2.79877 15.4194 2.82385 16.5027 2.96964 17.3423C3.10923 18.1461 3.34907 18.6555 3.77629 19.0843C4.20056 19.5102 4.71653 19.7538 5.54406 19.8979C6.4053 20.0479 7.521 20.0779 9.11767 20.118C11.0456 20.1664 12.9544 20.1664 14.8823 20.118C16.479 20.0779 17.5947 20.0479 18.4559 19.8979C19.2835 19.7538 19.7994 19.5102 20.2237 19.0843C20.6509 18.6555 20.8908 18.1461 21.0304 17.3423C21.1762 16.5027 21.2012 15.4194 21.2344 13.8639C21.2552 12.8889 21.2552 11.9197 21.2344 10.9447C21.2053 9.58083 21.1825 8.58003 21.079 7.78823L15.4568 10.9738C14.1635 11.7066 13.1126 12.1543 12.0001 12.1543C10.8876 12.1543 9.83667 11.7066 8.54339 10.9738L2.92102 7.78813Z" fill="#1B8354"/></svg>