<svg width="24" height="24" fill="none" xmlns="http://www.w3.org/2000/svg"><rect width="24" height="24" rx="12" fill="#F9FAFB"/><path d="M7.6875 14.4746C10.3251 12.8436 13.6709 12.8438 16.3086 14.4746C16.3864 14.5227 16.4855 14.5803 16.5986 14.6465C17.1108 14.9462 17.9236 15.4224 18.4785 15.9863C18.827 16.3406 19.1749 16.8237 19.2383 17.4258C19.3061 18.0699 19.0323 18.6657 18.5107 19.1816C17.6491 20.0341 16.5821 20.752 15.1826 20.752H8.81445C7.415 20.752 6.34697 20.0341 5.48535 19.1816C4.96403 18.6657 4.69102 18.0698 4.75879 17.4258C4.82216 16.8238 5.1691 16.3406 5.51758 15.9863C6.07248 15.4223 6.88617 14.9462 7.39844 14.6465C7.51148 14.5803 7.60979 14.5227 7.6875 14.4746ZM16.5449 12.4287C18.1901 12.0233 19.9525 12.3152 21.4297 13.3047C21.4847 13.3415 21.5562 13.3876 21.6396 13.4404C22.0311 13.6883 22.6855 14.1016 23.1289 14.5898C23.4098 14.8992 23.6902 15.3232 23.7412 15.8486C23.7955 16.4082 23.5767 16.9318 23.1523 17.3867C22.5846 17.9952 21.8917 18.5531 20.8682 18.709C20.6294 18.7453 20.5093 18.7636 20.4375 18.6895C20.3658 18.615 20.3926 18.4729 20.4463 18.1895C20.4999 17.9061 20.5152 17.6075 20.4824 17.2959C20.3762 16.2866 19.8054 15.5519 19.3711 15.1104C18.6983 14.4265 17.7662 13.882 17.2715 13.5928C17.0648 13.465 16.7831 13.3032 16.4961 13.1494C16.1178 12.9467 15.9283 12.8452 15.9453 12.709C15.9625 12.5727 16.1571 12.5244 16.5449 12.4287ZM2.56934 13.3047C4.04661 12.3152 5.8089 12.0231 7.4541 12.4287C7.84197 12.5244 8.03556 12.5727 8.05273 12.709C8.0698 12.8452 7.88114 12.9467 7.50293 13.1494C7.21593 13.3032 6.93425 13.465 6.72754 13.5928C6.23288 13.882 5.30086 14.4263 4.62793 15.1104C4.19362 15.5519 3.62286 16.2864 3.5166 17.2959C3.48385 17.6075 3.49809 17.9061 3.55176 18.1895C3.60548 18.4731 3.63233 18.615 3.56055 18.6895C3.4887 18.7634 3.36872 18.7453 3.12988 18.709C2.10643 18.553 1.41435 17.9951 0.84668 17.3867C0.422258 16.9318 0.202536 16.4082 0.256836 15.8486C0.307894 15.3231 0.589172 14.8992 0.870117 14.5898C1.31352 14.1016 1.96792 13.6883 2.35938 13.4404C2.44281 13.3876 2.51433 13.3415 2.56934 13.3047ZM5.99902 5.25195C6.16452 5.25195 6.32749 5.26422 6.48633 5.28809C6.67586 5.31659 6.77057 5.33154 6.81934 5.41016C6.86807 5.48896 6.83453 5.59344 6.7666 5.80273C6.59295 6.33782 6.49904 6.90899 6.49902 7.50195C6.49902 8.74171 6.9095 9.88583 7.60156 10.8057C7.73345 10.9809 7.79938 11.069 7.7793 11.1592C7.75892 11.2494 7.67366 11.2939 7.50391 11.3828C7.05397 11.6183 6.54205 11.752 5.99902 11.752C4.20425 11.7518 2.74902 10.2968 2.74902 8.50195C2.7491 6.7072 4.2043 5.25213 5.99902 5.25195ZM11.999 3.25195C14.3462 3.25195 16.249 5.15474 16.249 7.50195C16.2488 9.84897 14.3461 11.752 11.999 11.752C9.65198 11.7519 7.74925 9.84895 7.74902 7.50195C7.74902 5.15476 9.65184 3.25198 11.999 3.25195ZM18 5.25195C19.7945 5.25241 21.2499 6.70738 21.25 8.50195C21.25 10.2966 19.7945 11.7515 18 11.752C17.4569 11.752 16.9441 11.6183 16.4941 11.3828C16.3246 11.294 16.2401 11.2494 16.2197 11.1592C16.1996 11.069 16.2655 10.981 16.3975 10.8057C17.0894 9.88588 17.5 8.7416 17.5 7.50195C17.5 6.90903 17.406 6.33779 17.2324 5.80273C17.1645 5.59359 17.1302 5.48894 17.1787 5.41016C17.2274 5.33158 17.3224 5.31655 17.5117 5.28809C17.6706 5.26422 17.8345 5.25195 18 5.25195Z" fill="#1F2A37"/></svg>