<svg width="18" height="14" fill="none" xmlns="http://www.w3.org/2000/svg"><path fill-rule="evenodd" clip-rule="evenodd" d="M9.00033 10.125C7.27444 10.125 5.87533 8.72588 5.87533 6.99999C5.87533 5.2741 7.27444 3.87499 9.00033 3.87499C10.7262 3.87499 12.1253 5.2741 12.1253 6.99999C12.1253 8.72588 10.7262 10.125 9.00033 10.125ZM7.12533 6.99999C7.12533 8.03552 7.96479 8.87499 9.00033 8.87499C10.0359 8.87499 10.8753 8.03552 10.8753 6.99999C10.8753 5.96446 10.0359 5.12499 9.00033 5.12499C7.96479 5.12499 7.12533 5.96446 7.12533 6.99999Z" fill="#161616"/><path fill-rule="evenodd" clip-rule="evenodd" d="M9.00033 0.541656C6.85819 0.541656 5.02195 1.4845 3.60058 2.59414C2.17793 3.70479 1.12638 5.01644 0.538167 5.84126L0.493819 5.9031C0.282855 6.1965 0.0419922 6.53149 0.0419922 6.99999C0.0419922 7.4685 0.282855 7.80348 0.493819 8.09688L0.538168 8.15873C1.12638 8.98354 2.17793 10.2952 3.60058 11.4058C5.02195 12.5155 6.85819 13.4583 9.00033 13.4583C11.1425 13.4583 12.9787 12.5155 14.4001 11.4058C15.8227 10.2952 16.8743 8.98354 17.4625 8.15872L17.5068 8.09688C17.7178 7.80348 17.9587 7.46849 17.9587 6.99999C17.9587 6.53148 17.7178 6.1965 17.5068 5.9031L17.4625 5.84126C16.8743 5.01644 15.8227 3.70479 14.4001 2.59414C12.9787 1.4845 11.1425 0.541656 9.00033 0.541656ZM1.55588 6.56703C2.10605 5.79556 3.07731 4.58847 4.36979 3.57944C5.66355 2.56942 7.23478 1.79166 9.00033 1.79166C10.7659 1.79166 12.3371 2.56942 13.6309 3.57944C14.9233 4.58847 15.8946 5.79556 16.4448 6.56703C16.5809 6.75788 16.6456 6.85107 16.6843 6.92526C16.7088 6.97242 16.7087 6.98534 16.7087 6.998L16.7087 6.99999L16.7087 7.00198C16.7087 7.01464 16.7088 7.02757 16.6843 7.07472C16.6456 7.14891 16.5809 7.2421 16.4448 7.43295C15.8946 8.20442 14.9233 9.41151 13.6309 10.4205C12.3371 11.4306 10.7659 12.2083 9.00033 12.2083C7.23478 12.2083 5.66356 11.4306 4.36979 10.4205C3.07731 9.41151 2.10605 8.20442 1.55588 7.43295C1.41978 7.2421 1.35501 7.14891 1.31639 7.07472C1.29185 7.02757 1.29192 7.01464 1.29199 7.00198L1.29199 6.99999L1.29199 6.998C1.29192 6.98534 1.29185 6.97242 1.31639 6.92526C1.35501 6.85107 1.41978 6.75788 1.55588 6.56703Z" fill="#161616"/></svg>