<svg width="21" height="20" fill="none" xmlns="http://www.w3.org/2000/svg"><path fill-rule="evenodd" clip-rule="evenodd" d="M6.78817 3.5C6.79972 3.5 6.81132 3.5 6.82295 3.5L14.5453 3.5C15.059 3.49998 15.4951 3.49996 15.8392 3.54687C16.2034 3.59652 16.5516 3.70861 16.8182 4.00207C17.0871 4.29809 17.1607 4.65484 17.1664 5.01952C17.1716 5.36009 17.1172 5.78315 17.0537 6.27641L17.0491 6.31233C17.0266 6.48688 16.993 6.65571 16.9228 6.82474C16.8515 6.99635 16.7533 7.14251 16.631 7.28777C15.9779 8.06369 14.7637 9.46593 13.0544 10.7429C13.0267 10.7636 12.9918 10.8125 12.9852 10.886C12.8191 12.7213 12.673 13.6923 12.5676 14.2549C12.4536 14.8632 11.9896 15.2842 11.5895 15.5741C11.3801 15.7259 11.1579 15.8625 10.96 15.9829C10.9441 15.9926 10.9284 16.0021 10.9129 16.0115C10.728 16.124 10.5708 16.2196 10.4394 16.3125C10.0791 16.5673 9.66336 16.5494 9.34559 16.3643C9.04573 16.1896 8.83472 15.871 8.79206 15.5107C8.69842 14.7197 8.52865 13.1713 8.34125 10.8817C8.33524 10.8083 8.32377 10.787 8.32281 10.7852C8.32216 10.784 8.32047 10.7809 8.31487 10.7747C8.30861 10.7678 8.2961 10.7556 8.27231 10.7378C6.56643 9.46245 5.35463 8.06267 4.70242 7.28774C4.58062 7.14302 4.47955 7.00034 4.4075 6.82682C4.33696 6.65694 4.30688 6.48726 4.28437 6.31233C4.28283 6.30031 4.28129 6.28834 4.27975 6.2764C4.21627 5.78315 4.16183 5.36009 4.1671 5.01952C4.17275 4.65484 4.24636 4.29809 4.51528 4.00206C4.78187 3.70861 5.1301 3.59652 5.49428 3.54687C5.83835 3.49996 6.27446 3.49998 6.78817 3.5ZM5.62938 4.5377C5.37331 4.57261 5.29617 4.62966 5.25546 4.67447C5.21709 4.71672 5.17076 4.7911 5.16698 5.03499C5.16296 5.29475 5.20683 5.64541 5.2762 6.18475C5.29548 6.33462 5.31237 6.39836 5.33103 6.44331C5.34818 6.48461 5.37857 6.53814 5.4675 6.64382C6.10636 7.40287 7.25906 8.7317 8.87111 9.93694C9.00062 10.0338 9.11945 10.1536 9.20541 10.3151C9.29011 10.4741 9.32478 10.6396 9.33792 10.8001C9.5243 13.0772 9.69284 14.6136 9.78512 15.3931C9.78793 15.4168 9.79659 15.4403 9.80991 15.4607C9.82353 15.4816 9.83867 15.4942 9.84897 15.5002C9.85028 15.501 9.85143 15.5016 9.85242 15.5021C9.8548 15.5008 9.858 15.4989 9.86207 15.496C10.0235 15.3819 10.2108 15.268 10.3876 15.1606C10.4052 15.1499 10.4227 15.1393 10.4401 15.1287C10.6393 15.0075 10.8298 14.8897 11.0028 14.7644C11.3673 14.5002 11.5461 14.2767 11.5847 14.0707C11.6824 13.5495 11.8249 12.6121 11.9892 10.7959C12.0194 10.4631 12.1827 10.1459 12.4559 9.94181C14.0712 8.73502 15.2262 7.40381 15.866 6.6438C15.9435 6.55163 15.978 6.4922 15.9993 6.44107C16.0216 6.38735 16.0404 6.31626 16.0573 6.18475C16.1267 5.64541 16.1705 5.29475 16.1665 5.03499C16.1627 4.7911 16.1164 4.71672 16.078 4.67447C16.0373 4.62966 15.9602 4.57261 15.7041 4.5377C15.4357 4.5011 15.0686 4.5 14.5105 4.5H6.82295C6.26492 4.5 5.89782 4.5011 5.62938 4.5377ZM9.84718 15.5044C9.84721 15.5044 9.84754 15.5042 9.84815 15.5041L9.84718 15.5044Z" fill="#F9FAFB"/></svg>