<svg width="24" height="24" fill="none" xmlns="http://www.w3.org/2000/svg"><path d="M20.1595 4.19336L2.63945 4.19336C1.97671 4.19336 1.43945 4.73062 1.43945 5.39336L1.43945 13.5534C1.43945 14.2161 1.97671 14.7534 2.63945 14.7534L20.1595 14.7534C20.8222 14.7534 21.3595 14.2161 21.3595 13.5534V5.39336C21.3595 4.73062 20.8222 4.19336 20.1595 4.19336Z" fill="#54C08A"/><path d="M21.36 6.11492L2.64 6.11492C1.18197 6.11492 0 7.29689 0 8.75492L0 19.5549C0 21.013 1.18197 22.1949 2.64 22.1949H21.36C22.818 22.1949 24 21.013 24 19.5549V8.75492C24 7.29689 22.818 6.11492 21.36 6.11492Z" fill="#25935F"/><path d="M9.36 1.79492L2.64 1.79492C1.18197 1.79492 0 2.97689 0 4.43492L0 8.27492C0 9.73295 1.18197 10.9149 2.64 10.9149H9.36C10.818 10.9149 12 9.73295 12 8.27492V4.43492C12 2.97689 10.818 1.79492 9.36 1.79492Z" fill="#25935F"/></svg>