<svg width="24" height="24" fill="none" xmlns="http://www.w3.org/2000/svg"><path d="M10.0264 1.27201C10.4401 1.28921 10.761 1.63855 10.7442 2.05228C10.7272 2.46628 10.378 2.78803 9.96296 2.77103C7.572 2.67105 5.69387 2.94284 5.67487 2.94584C5.65698 2.94881 5.63808 2.9507 5.61921 2.9517C4.31524 3.0457 2.7599 3.81855 2.75983 6.96537C2.75983 8.32725 2.75697 9.79932 2.75397 11.2222C2.74897 13.9182 2.74283 16.4649 2.75983 17.7349C2.75996 18.4223 3.19735 20.979 5.336 21.104C8.403 21.282 13.9281 21.322 16.4551 21.105C16.462 21.105 16.4688 21.104 16.4757 21.1031C16.4987 21.1021 18.7674 20.9465 19.0274 18.7085C19.2884 16.4636 19.2698 14.8255 19.2628 14.2085C19.2628 14.1276 19.2608 14.0632 19.2608 14.0152C19.261 13.6015 19.5971 13.2653 20.0108 13.2652C20.4247 13.2652 20.7606 13.6014 20.7608 14.0152C20.7608 14.0592 20.7608 14.1189 20.7628 14.1919C20.7698 14.8352 20.7896 16.5429 20.5167 18.8814C20.1947 21.6542 17.8034 22.5241 16.5733 22.5982C15.3394 22.7032 13.4172 22.7495 11.4073 22.7495L11.4083 22.7515C9.19827 22.7515 6.88006 22.6951 5.25006 22.6001C3.88815 22.5201 2.78086 21.8178 2.04987 20.566C1.4689 19.57 1.26083 18.4557 1.26081 17.7437C1.24481 16.4727 1.24995 13.9203 1.25495 11.2183C1.25795 9.79639 1.26081 8.3253 1.26081 6.96439C1.26089 2.30256 4.19146 1.55758 5.48444 1.45658C5.74681 1.4194 7.62154 1.17106 10.0264 1.27201ZM14.9805 16.2671C15.3944 16.2673 15.7305 16.6032 15.7305 17.0171C15.7303 17.4308 15.3942 17.7669 14.9805 17.7671H6.98053C6.56668 17.7671 6.23077 17.4309 6.23053 17.0171C6.23053 16.6031 6.56653 16.2671 6.98053 16.2671H14.9805ZM10.9805 12.2671C11.3944 12.2673 11.7305 12.6032 11.7305 13.0171C11.7303 13.4308 11.3942 13.7669 10.9805 13.7671H6.98053C6.56668 13.7671 6.23077 13.4309 6.23053 13.0171C6.23053 12.6031 6.56653 12.2671 6.98053 12.2671H10.9805ZM16.9952 1.26713C20.1682 1.26713 22.7501 3.84613 22.7501 7.01713C22.7498 10.1879 20.168 12.7671 16.9952 12.7671C13.8225 12.767 11.2405 10.1878 11.2403 7.01713C11.2403 3.84622 13.8223 1.26728 16.9952 1.26713ZM16.9952 2.76713C14.6493 2.76728 12.7403 4.67422 12.7403 7.01713C12.7405 9.35984 14.6495 11.267 16.9952 11.2671C19.341 11.2671 21.2498 9.35993 21.2501 7.01713C21.2501 4.67413 19.3412 2.76713 16.9952 2.76713ZM18.7305 4.80912C19.1204 4.67135 19.5495 4.87547 19.6876 5.26517C19.8255 5.65511 19.6214 6.08413 19.2315 6.22221C18.3815 6.5232 17.1744 8.03551 16.6133 8.91752C16.4754 9.13448 16.2365 9.26513 15.9805 9.26517V9.26615H15.9415C15.6716 9.25216 15.4297 9.0948 15.3096 8.85307C14.8766 7.98606 14.4543 7.5514 14.4493 7.5474C14.1565 7.25445 14.1565 6.77981 14.4493 6.48685C14.7423 6.19385 15.2178 6.19385 15.5108 6.48685C15.5477 6.52379 15.7581 6.74059 16.0372 7.14017C16.6882 6.29719 17.7076 5.1721 18.7305 4.80912Z" fill="#161616"/></svg>