<svg width="41" height="40" fill="none" xmlns="http://www.w3.org/2000/svg"><path d="M37.167 37.917C38.0875 37.917 38.834 37.1705 38.834 36.25C38.8339 35.3296 38.0874 34.584 37.167 34.584H36.75L36.75 24.0391C36.7501 22.9209 36.7509 21.9419 36.6572 21.1367C36.556 20.2669 36.3297 19.4275 35.7617 18.6641C35.1937 17.9006 34.4544 17.4426 33.6504 17.0957C32.9061 16.7746 31.9684 16.4931 30.8975 16.1719C30.869 16.1633 30.8402 16.1551 30.8115 16.1465L28.417 15.4287L28.417 13.5439C28.417 12.3413 28.417 11.3345 28.3242 10.5166C28.2263 9.65298 28.0132 8.86691 27.498 8.16211C26.9798 7.45333 26.2973 7.02028 25.5078 6.68359C24.7673 6.36787 23.8262 6.095 22.7148 5.77246L14.2119 3.30371C12.3548 2.7646 10.8237 2.32081 9.59473 2.15625C8.30774 1.98401 7.08726 2.0787 6.0459 2.89844C5.01579 3.70955 4.61003 4.87706 4.42676 6.18457C4.24979 7.44729 4.24996 9.08843 4.25 11.0977L4.25 34.584H3.83398C2.91359 34.584 2.16712 35.3296 2.16699 36.25C2.16699 37.1705 2.91351 37.917 3.83398 37.917L37.167 37.917ZM13.833 14.584C13.143 14.5838 12.5832 14.024 12.583 13.334C12.583 12.6438 13.1428 12.0842 13.833 12.084L18.833 12.084C19.5233 12.0841 20.083 12.6437 20.083 13.334C20.0828 14.0241 19.5232 14.5839 18.833 14.584L13.833 14.584ZM13.833 21.25C13.1428 21.2498 12.583 20.6902 12.583 20C12.5831 19.3099 13.1429 18.7502 13.833 18.75L18.833 18.75C19.5232 18.7501 20.0829 19.3098 20.083 20C20.083 20.6903 19.5233 21.2499 18.833 21.25L13.833 21.25ZM28.417 18.9082L29.8535 19.3389C31.0354 19.6934 31.7851 19.9211 32.3301 20.1563C32.8347 20.374 32.997 20.5312 33.0879 20.6533C33.1788 20.7755 33.2822 20.9764 33.3457 21.5225C33.4143 22.112 33.417 22.8951 33.417 24.1289V34.584L28.417 34.584L28.417 18.9082ZM10.917 29.9248C10.9169 29.2038 10.917 28.5427 10.9893 28.0049C11.0689 27.4125 11.2566 26.7855 11.7715 26.2705C12.2863 25.7558 12.9126 25.568 13.5049 25.4883C14.0428 25.416 14.7046 25.4159 15.4258 25.416H17.2422C17.963 25.4159 18.6244 25.4161 19.1621 25.4883C19.7545 25.5679 20.3815 25.7556 20.8965 26.2705C21.4115 26.7855 21.5991 27.4124 21.6787 28.0049C21.751 28.5427 21.7501 29.2038 21.75 29.9248L21.75 34.584H19.25L19.25 30C19.25 29.1792 19.2474 28.6891 19.2002 28.3379C19.1786 28.177 19.1536 28.0959 19.1387 28.0596C19.102 28.0444 18.9895 27.9884 18.8291 27.9668C18.4779 27.9197 17.9875 27.916 17.167 27.916H15.5C14.6795 27.916 14.189 27.9196 13.8379 27.9668C13.6777 27.9884 13.5968 28.0134 13.5605 28.0283C13.5455 28.0648 13.4884 28.1772 13.4668 28.3379C13.4196 28.6891 13.417 29.1793 13.417 30L13.417 34.584L10.917 34.584L10.917 29.9248Z" fill="#1F2A37"/></svg>