<svg width="24" height="24" fill="none" xmlns="http://www.w3.org/2000/svg"><path d="M22 22.75C22.4142 22.75 22.75 22.4142 22.75 22C22.75 21.5858 22.4142 21.25 22 21.25H21.75L21.75 8.14941C21.75 7.56649 21.7501 7.07368 21.709 6.66699C21.6653 6.23523 21.5703 5.83685 21.3428 5.46094C21.1148 5.08432 20.807 4.81802 20.4453 4.58301C20.106 4.3625 19.6728 4.14111 19.1631 3.88086L14.7881 1.64746C14.4829 1.49162 14.1808 1.35951 13.8984 1.29492C13.6186 1.23094 13.2336 1.20529 12.8809 1.43359C12.5344 1.65784 12.3964 2.01363 12.333 2.28516C12.268 2.56371 12.25 2.88931 12.25 3.22852L12.25 7.25H10C9.36332 7.25 8.80097 7.28178 8.32324 7.38672C7.837 7.49354 7.39187 7.68626 7.03906 8.03906C6.68626 8.39187 6.49354 8.837 6.38672 9.32324C6.28178 9.80097 6.25 10.3633 6.25 11V11.25H4C3.77698 11.25 3.54664 11.2609 3.33398 11.3076C3.1128 11.3562 2.8654 11.453 2.65918 11.6592C2.45296 11.8654 2.35621 12.1128 2.30762 12.334C2.26092 12.5466 2.25 12.777 2.25 13L2.25 21.25H2C1.58579 21.25 1.25 21.5858 1.25 22C1.25 22.4142 1.58579 22.75 2 22.75L22 22.75ZM17.75 11C17.75 10.3633 17.7182 9.80097 17.6133 9.32324C17.5065 8.837 17.3137 8.39187 16.9609 8.03906C16.6081 7.68626 16.163 7.49354 15.6768 7.38672C15.199 7.28179 14.6367 7.25 14 7.25H13.75L13.75 3.22852C13.75 3.05942 13.7556 2.92698 13.7646 2.82422C13.8542 2.8606 13.9669 2.91212 14.1064 2.9834L18.4482 5.2002C18.9998 5.48179 19.3621 5.66808 19.6279 5.84082C19.8786 6.00372 19.989 6.12161 20.0596 6.23828C20.1307 6.35586 20.1859 6.51193 20.2168 6.81738C20.2494 7.1397 20.25 7.55635 20.25 8.18555L20.25 21.25H17.75L17.75 11ZM7.75 11C7.75 10.396 7.78286 9.96291 7.85254 9.64551C7.92041 9.33657 8.01266 9.18656 8.09961 9.09961C8.18656 9.01266 8.33657 8.92041 8.64551 8.85254C8.96291 8.78286 9.39595 8.75 10 8.75L14 8.75C14.604 8.75 15.0371 8.78286 15.3545 8.85254C15.6634 8.92041 15.8134 9.01266 15.9004 9.09961C15.9873 9.18656 16.0796 9.33657 16.1475 9.64551C16.2171 9.96291 16.25 10.396 16.25 11L16.25 21.25L7.75 21.25L7.75 11ZM13 12.75C13.4142 12.75 13.75 12.4142 13.75 12C13.75 11.5858 13.4142 11.25 13 11.25H11C10.5858 11.25 10.25 11.5858 10.25 12C10.25 12.4142 10.5858 12.75 11 12.75H13ZM3.75 13C3.75 12.8945 3.75385 12.8164 3.75879 12.7588C3.81643 12.7538 3.89454 12.75 4 12.75H6.25L6.25 21.25H3.75L3.75 13ZM13 15.75C13.4142 15.75 13.75 15.4142 13.75 15C13.75 14.5858 13.4142 14.25 13 14.25H11C10.5858 14.25 10.25 14.5858 10.25 15C10.25 15.4142 10.5858 15.75 11 15.75H13ZM13 18.75C13.4142 18.75 13.75 18.4142 13.75 18C13.75 17.5858 13.4142 17.25 13 17.25H11C10.5858 17.25 10.25 17.5858 10.25 18C10.25 18.4142 10.5858 18.75 11 18.75H13Z" fill="#161616"/></svg>