<svg width="41" height="40" fill="none" xmlns="http://www.w3.org/2000/svg"><path d="M13.3145 24.1223C17.7107 21.4039 23.2873 21.4039 27.6836 24.1223C27.8132 24.2024 27.9775 24.2981 28.166 24.4084C29.0197 24.908 30.375 25.7009 31.2998 26.6409C31.8807 27.2313 32.4598 28.0368 32.5654 29.0403C32.6784 30.1138 32.2227 31.1071 31.3535 31.967C29.9175 33.3878 28.139 34.5832 25.8066 34.5833H15.1924C12.86 34.5833 11.0806 33.3878 9.64453 31.967C8.77547 31.1071 8.31967 30.1137 8.43262 29.0403C8.53824 28.0368 9.11737 27.2313 9.69824 26.6409C10.623 25.7009 11.9783 24.908 12.832 24.4084C13.0205 24.2982 13.1849 24.2024 13.3145 24.1223ZM4.7832 22.1721C7.24546 20.5228 10.1817 20.036 12.9238 20.7122C13.57 20.8715 13.8941 20.9509 13.9229 21.178C13.9511 21.405 13.6353 21.5745 13.0049 21.9124C12.5266 22.1687 12.0575 22.4376 11.7129 22.6506C10.8886 23.1326 9.33557 24.0407 8.21387 25.1809C7.49 25.9167 6.53843 27.1399 6.36133 28.8225C6.30668 29.3419 6.33146 29.8394 6.4209 30.3118C6.51043 30.7845 6.55516 31.0217 6.43555 31.1458C6.31593 31.2697 6.11615 31.2396 5.71777 31.179C4.0118 30.9193 2.8583 29.9888 1.91211 28.9749C1.20456 28.2165 0.839118 27.3433 0.929688 26.4104C1.01493 25.5347 1.48295 24.8293 1.95117 24.3137C2.69026 23.4999 3.77923 22.8098 4.43164 22.3967C4.57099 22.3085 4.69141 22.2336 4.7832 22.1721ZM28.0762 20.7122C30.8184 20.036 33.7554 20.5227 36.2178 22.1721C36.3095 22.2335 36.4293 22.3087 36.5684 22.3967C37.2208 22.8098 38.3108 23.4999 39.0498 24.3137C39.518 24.8293 39.9861 25.5348 40.0713 26.4104C40.1618 27.3432 39.7964 28.2165 39.0889 28.9749C38.1427 29.989 36.9892 30.9192 35.2832 31.179C34.8849 31.2396 34.6851 31.2693 34.5654 31.1458C34.4458 31.0217 34.4905 30.7846 34.5801 30.3118C34.6695 29.8394 34.6943 29.3419 34.6396 28.8225C34.4626 27.1403 33.5109 25.9168 32.7871 25.1809C31.6655 24.0409 30.1125 23.1326 29.2881 22.6506C28.9435 22.4376 28.4745 22.1688 27.9961 21.9124C27.3654 21.5743 27.0498 21.4051 27.0781 21.178C27.1069 20.951 27.4301 20.8715 28.0762 20.7122ZM10.499 8.75024C10.775 8.75026 11.0466 8.77095 11.3115 8.81079C11.6272 8.85827 11.786 8.88184 11.8672 9.01294C11.9481 9.14424 11.8914 9.31963 11.7783 9.66821C11.4889 10.5601 11.332 11.5119 11.332 12.5002C11.3321 14.5667 12.0162 16.474 13.1699 18.0071C13.3898 18.2993 13.4997 18.4456 13.4658 18.5959C13.4318 18.7463 13.2906 18.8209 13.0078 18.969C12.2579 19.3616 11.4042 19.5832 10.499 19.5833C7.50767 19.5833 5.08234 17.1585 5.08203 14.1672C5.08203 11.1757 7.50748 8.75024 10.499 8.75024ZM20.499 5.41724C24.411 5.41725 27.582 8.58823 27.582 12.5002C27.582 16.4122 24.411 19.5832 20.499 19.5833C16.587 19.5833 13.4161 16.4122 13.416 12.5002C13.416 8.58823 16.587 5.41724 20.499 5.41724ZM30.501 8.75024C33.4924 8.75034 35.918 11.1758 35.918 14.1672C35.9177 17.1585 33.4923 19.5832 30.501 19.5833C29.5959 19.5832 28.7421 19.3616 27.9922 18.969C27.7095 18.821 27.5682 18.7462 27.5342 18.5959C27.5004 18.4456 27.6102 18.2993 27.8301 18.0071C28.9838 16.474 29.6679 14.5667 29.668 12.5002C29.668 11.5119 29.5111 10.5601 29.2217 9.66821C29.1085 9.31944 29.0527 9.14427 29.1338 9.01294C29.2151 8.88202 29.3737 8.85828 29.6895 8.81079C29.9541 8.77101 30.2252 8.75026 30.501 8.75024Z" fill="#1B8354"/></svg>