<svg width="24" height="24" fill="none" xmlns="http://www.w3.org/2000/svg"><path fill-rule="evenodd" clip-rule="evenodd" d="M17.195 15.8551H17.196C17.407 16.0521 17.63 16.2191 17.886 16.3541C18.642 16.7521 19.494 16.7521 20.676 16.7511L21.217 16.7371C22.011 16.6381 22.637 16.012 22.737 15.218C22.75 15.108 22.75 14.988 22.75 14.873L22.75 9.19004C22.75 8.75704 22.75 8.36004 22.707 8.03804C22.659 7.68204 22.546 7.30605 22.237 6.99705C21.928 6.68805 21.553 6.57605 21.197 6.52805C20.874 6.48505 20.478 6.48506 20.045 6.48506H19.483C18.736 6.48506 18.171 6.10106 17.433 5.35606C16.816 4.73306 15.887 4.34404 15.027 4.29204C14.355 4.24904 13.453 4.19305 12.653 4.39605L12.585 4.41404C11.573 4.69304 10.912 5.43805 10.392 6.02505L8.88201 7.72505C8.03901 8.67405 8.03901 10.1801 8.88201 11.1291C9.64201 11.9841 10.878 12.137 11.802 11.444C11.93 11.348 12.107 11.1981 12.222 11.1021C12.321 11.0171 12.413 10.939 12.507 10.864C12.676 10.703 13.097 10.495 13.433 10.948L15.771 14.1071C16.186 14.6681 16.524 15.1251 16.834 15.4781C16.953 15.6131 17.072 15.7391 17.195 15.8551ZM9.11599 4.27405C9.29399 4.29705 9.383 4.30904 9.452 4.36904C9.521 4.42904 9.564 4.54306 9.551 4.63406C9.539 4.72506 9.467 4.80705 9.322 4.97105L7.76101 6.72905C6.41301 8.24605 6.41301 10.6081 7.76101 12.1261C8.88701 13.3931 10.76 13.7061 12.269 12.9091C12.541 12.7651 12.678 12.693 12.786 12.717C12.895 12.742 12.976 12.852 13.138 13.071L14.595 15.039C14.986 15.567 15.355 16.066 15.706 16.466C15.771 16.541 15.839 16.616 15.909 16.69C16.02 16.806 16.02 16.9911 15.905 17.1031C15.131 17.8511 14.502 18.459 13.938 18.889C13.349 19.337 12.588 19.66 11.895 19.743C11.199 19.793 10.568 19.6041 9.902 19.2771C9.262 18.9621 8.485 18.462 7.573 17.874C6.575 17.23 6.191 16.991 5.77 16.863C5.344 16.743 4.821 16.718 3.621 16.718H3.59399C3.32699 16.718 3.082 16.7181 2.878 16.7011C2.658 16.6821 2.417 16.639 2.18 16.514C1.871 16.35 1.618 16.0971 1.454 15.7871C1.329 15.5511 1.28599 15.31 1.26699 15.09C1.24999 14.885 1.25 14.641 1.25 14.374L1.25 8.95606C1.25 8.52306 1.24999 8.12705 1.29299 7.80405C1.34099 7.44805 1.45399 7.07304 1.76299 6.76304C2.07199 6.45404 2.447 6.34204 2.803 6.29404C3.126 6.25104 3.522 6.25105 3.955 6.25105L4.86499 6.25105C5.33299 6.25105 5.82499 6.02006 6.21799 5.53206C6.95499 4.61206 8.02799 4.13405 9.11599 4.27405Z" fill="#1B8354"/></svg>