<svg width="29" height="28" fill="none" xmlns="http://www.w3.org/2000/svg"><path d="M20.333 16.6248C22.7492 16.6248 24.7079 18.5836 24.708 20.9998C24.708 23.416 22.7493 25.3748 20.333 25.3748C17.9169 25.3746 15.958 23.4159 15.958 20.9998C15.958 20.3402 16.1048 19.7149 16.3662 19.1541C15.8897 18.6722 15.2294 18.3748 14.5 18.3748C13.7703 18.3748 13.1103 18.6729 12.6338 19.155C12.895 19.7157 13.042 20.3405 13.042 20.9998C13.042 23.4159 11.0831 25.3746 8.66699 25.3748C6.25075 25.3748 4.29199 23.416 4.29199 20.9998C4.29212 18.5836 6.25083 16.6248 8.66699 16.6248C9.78753 16.6248 10.809 17.0471 11.583 17.74C12.3565 17.0475 13.3787 16.6248 14.5 16.6248C15.621 16.6248 16.6426 17.0478 17.416 17.74C18.1901 17.0468 19.2122 16.6248 20.333 16.6248ZM8.66699 18.3748C7.21733 18.3748 6.04212 19.5501 6.04199 20.9998C6.04199 22.4495 7.21724 23.6248 8.66699 23.6248C10.1166 23.6246 11.292 22.4494 11.292 20.9998C11.2919 19.5502 10.1165 18.3749 8.66699 18.3748ZM20.333 18.3748C18.8835 18.3749 17.7081 19.5502 17.708 20.9998C17.708 22.4494 18.8834 23.6246 20.333 23.6248C21.7828 23.6248 22.958 22.4495 22.958 20.9998C22.9579 19.5501 21.7827 18.3748 20.333 18.3748ZM17.0576 3.43433C19.4263 1.74061 22.6783 2.82789 23.6621 5.56421C23.7298 5.75261 23.7953 6.00064 23.8945 6.37671L25.6748 13.1248H26.167C26.65 13.1249 27.0419 13.5167 27.042 13.9998C27.042 14.4829 26.6501 14.8746 26.167 14.8748H26.1357L26.1367 14.8767H2.86523L2.86621 14.8748H2.83301C2.34991 14.8746 1.95801 14.4829 1.95801 13.9998C1.95814 13.5167 2.34999 13.1249 2.83301 13.1248H3.32715L5.09375 6.4314C5.09861 6.41299 5.1037 6.39453 5.1084 6.37671C5.20756 6.00076 5.27311 5.75257 5.34082 5.56421C6.3248 2.82801 9.57664 1.74052 11.9453 3.43433C12.1069 3.54989 12.299 3.71558 12.5869 3.96362C12.6011 3.97586 12.6162 3.98809 12.6309 4.00073C12.8297 4.17196 12.8994 4.23221 12.96 4.27808C13.8792 4.97451 15.1227 4.97451 16.042 4.27808C16.1025 4.2322 16.1721 4.17208 16.3711 4.00073L16.415 3.96362C16.7033 3.71533 16.896 3.54992 17.0576 3.43433ZM10.9268 4.85718C9.5398 3.86571 7.59414 4.4689 6.9873 6.15698C6.94915 6.2632 6.90455 6.42894 6.78613 6.87769L5.1377 13.1248H23.8643L22.2168 6.87769C22.0983 6.42871 22.0528 6.26321 22.0146 6.15698C21.4078 4.46885 19.4622 3.86558 18.0752 4.85718C17.9872 4.92012 17.8607 5.02805 17.5137 5.3269L17.4902 5.34741C17.3232 5.49134 17.2086 5.58928 17.0986 5.67261C15.5544 6.84253 13.4475 6.84253 11.9033 5.67261C11.7934 5.58929 11.6788 5.49131 11.5117 5.34741L11.4893 5.3269C11.142 5.02785 11.0148 4.92014 10.9268 4.85718Z" fill="#161616"/></svg>