<svg width="24" height="24" fill="none" xmlns="http://www.w3.org/2000/svg"><path d="M15.0547 1.25C16.4222 1.24998 17.5247 1.24968 18.3916 1.36621C19.2917 1.48723 20.0495 1.74672 20.6514 2.34863C21.2533 2.95055 21.5128 3.70829 21.6338 4.6084C21.7503 5.47534 21.75 6.57782 21.75 7.94531V20C21.75 21.5188 20.5188 22.75 19 22.75H5C3.48123 22.75 2.25 21.5188 2.25 20V19.9551C2.24995 19.5223 2.24958 19.1255 2.29297 18.8027C2.34077 18.4473 2.45368 18.0717 2.7627 17.7627C3.07172 17.4537 3.44727 17.3408 3.80274 17.293C4.12551 17.2496 4.52234 17.25 4.95508 17.25H6.25V7.94531C6.24998 6.57782 6.24968 5.47534 6.36622 4.6084C6.48723 3.70829 6.74672 2.95055 7.34864 2.34863C7.95055 1.74672 8.7083 1.48723 9.6084 1.36621C10.4753 1.24968 11.5778 1.24998 12.9453 1.25H15.0547ZM5 18.75C4.50756 18.75 4.21364 18.752 4.00293 18.7803C3.90638 18.7933 3.85772 18.8084 3.83594 18.8174C3.83096 18.8194 3.82712 18.8213 3.8252 18.8223L3.82325 18.8232L3.82227 18.8252C3.82127 18.8271 3.81944 18.8309 3.81739 18.8359C3.80843 18.8577 3.79326 18.9064 3.78028 19.0029C3.75198 19.2136 3.75 19.5076 3.75 20C3.75 20.6904 4.30965 21.25 5 21.25H16.5498C16.3581 20.875 16.25 20.4501 16.25 20C16.25 19.5076 16.248 19.2136 16.2197 19.0029C16.2067 18.9064 16.1916 18.8577 16.1826 18.8359C16.1819 18.8341 16.1813 18.8324 16.1807 18.8311L16.1768 18.8232L16.1748 18.8223C16.1729 18.8213 16.1691 18.8194 16.1641 18.8174C16.1423 18.8084 16.0936 18.7933 15.9971 18.7803C15.7864 18.752 15.4924 18.75 15 18.75H5ZM13 2.75C11.5649 2.75 10.5639 2.75202 9.8086 2.85352C9.07482 2.95217 8.68595 3.13242 8.40918 3.40918C8.13242 3.68594 7.95217 4.07482 7.85352 4.80859C7.75202 5.5639 7.75 6.56485 7.75 8V17.25H15.0449C15.4777 17.25 15.8745 17.2496 16.1973 17.293C16.5527 17.3408 16.9283 17.4537 17.2373 17.7627C17.5463 18.0717 17.6592 18.4473 17.707 18.8027C17.7504 19.1255 17.7501 19.5223 17.75 19.9551V20C17.75 20.6904 18.3097 21.25 19 21.25C19.6904 21.25 20.25 20.6904 20.25 20V8C20.25 6.56485 20.248 5.5639 20.1465 4.80859C20.0478 4.07482 19.8676 3.68594 19.5908 3.40918C19.3141 3.13242 18.9252 2.95217 18.1914 2.85352C17.4361 2.75202 16.4352 2.75 15 2.75H13ZM14 13.25C14.4142 13.25 14.75 13.5858 14.75 14C14.75 14.4142 14.4142 14.75 14 14.75H11C10.5858 14.75 10.25 14.4142 10.25 14C10.25 13.5858 10.5858 13.25 11 13.25H14ZM17 9.25C17.4142 9.25 17.75 9.58579 17.75 10C17.75 10.4142 17.4142 10.75 17 10.75H11C10.5858 10.75 10.25 10.4142 10.25 10C10.25 9.58579 10.5858 9.25 11 9.25H17ZM17 5.25781C17.4142 5.25781 17.75 5.5936 17.75 6.00781C17.75 6.42203 17.4142 6.75781 17 6.75781H11C10.5858 6.75781 10.25 6.42203 10.25 6.00781C10.25 5.5936 10.5858 5.25781 11 5.25781H17Z" fill="#161616"/></svg>