<svg width="24" height="24" fill="none" xmlns="http://www.w3.org/2000/svg"><path d="M12.749 18.749C13.5882 18.7492 14.3069 19.2662 14.6035 19.999H18.999C19.4131 19.9992 19.749 20.3349 19.749 20.749C19.749 21.1631 19.4131 21.4988 18.999 21.499H14.6035C14.3069 22.2319 13.5882 22.7489 12.749 22.749H11.249C10.4097 22.749 9.69126 22.2319 9.39453 21.499H4.99902C4.58481 21.499 4.24902 21.1632 4.24902 20.749C4.24902 20.3348 4.58481 19.999 4.99902 19.999H9.39453C9.69126 19.2661 10.4097 18.749 11.249 18.749H12.749ZM11.999 1.24902C12.4105 1.24902 12.779 1.43592 13.1113 1.60449L16.6396 3.37793C17.3438 3.73177 17.9468 4.03513 18.3672 4.33008C18.7946 4.62994 19.249 5.06884 19.249 5.74902V13.249C19.249 13.9292 18.7946 14.3681 18.3672 14.668C17.9468 14.9629 17.3438 15.2663 16.6396 15.6201L13.1113 17.3936C12.779 17.5621 12.4105 17.749 11.999 17.749C11.5875 17.749 11.2191 17.5621 10.8867 17.3936L7.35938 15.6201C6.65511 15.2662 6.05132 14.963 5.63086 14.668C5.20351 14.3681 4.74902 13.9291 4.74902 13.249V5.74902C4.74902 5.06893 5.20351 4.62994 5.63086 4.33008C6.05133 4.03508 6.6551 3.73186 7.35938 3.37793L10.8867 1.60449C11.2191 1.43591 11.5875 1.24907 11.999 1.24902ZM6.24902 13.2275C6.54585 13.5185 7.31314 13.9182 8.08594 14.3066L11.249 15.8965V10.0654C11.124 10.0109 11.0026 9.95235 10.8867 9.89355L7.35938 8.12012C6.94933 7.91405 6.57446 7.72303 6.24902 7.54297V13.2275ZM17.749 7.54297C17.4237 7.72294 17.0495 7.91417 16.6396 8.12012L13.1113 9.89355C12.9954 9.95236 12.874 10.0109 12.749 10.0654V15.8965L15.9121 14.3066C16.6849 13.9182 17.3506 13.62 17.749 13.2275V7.54297Z" fill="#1B8354"/></svg>