<svg width="24" height="24" fill="none" xmlns="http://www.w3.org/2000/svg"><path d="M11.999 1.00098C13.38 1.00098 14.4989 2.12005 14.499 3.50098C14.499 3.85293 14.4269 4.1892 14.2949 4.49316C14.9648 4.79016 15.6019 5.22219 16.1768 5.78809C16.9966 6.59393 17.9763 7.00089 18.9512 7.00098H19.999C20.551 7.00098 20.9989 7.44905 20.999 8.00098C20.999 8.55298 20.551 9.00098 19.999 9.00098H19.8379L21.5205 12.3662C21.8946 12.4733 22.2261 12.683 22.4717 13.0645C22.7205 13.4514 22.8028 13.8485 22.7168 14.2773C22.6518 14.6021 22.4867 14.9329 22.3438 15.2188C22.3357 15.2358 22.3264 15.2535 22.3184 15.2705C21.5973 16.7183 20.1789 17.751 18.499 17.751C16.8194 17.7508 15.4017 16.7182 14.6807 15.2705C14.6727 15.2535 14.6633 15.2358 14.6553 15.2188C14.5123 14.9329 14.3472 14.6021 14.2822 14.2773C14.1962 13.8485 14.2785 13.4514 14.5273 13.0645C14.773 12.683 15.1044 12.4733 15.4785 12.3662L17.2881 8.74609C16.3627 8.45785 15.5042 7.93324 14.7734 7.21387C14.2345 6.68296 13.628 6.32651 12.999 6.14453V21.001H14.999C15.551 21.001 15.9989 21.4491 15.999 22.001C15.999 22.553 15.551 23.001 14.999 23.001H8.99902C8.44723 23.0007 7.99902 22.5528 7.99902 22.001C7.99911 21.4492 8.44729 21.0012 8.99902 21.001H10.999V6.14453C10.3703 6.32656 9.76439 6.68312 9.22559 7.21387C8.49467 7.93338 7.63554 8.45691 6.70996 8.74512L8.52051 12.3662C8.89473 12.4733 9.22601 12.6829 9.47168 13.0645C9.7206 13.4514 9.80279 13.8484 9.7168 14.2773C9.65179 14.6022 9.48668 14.9329 9.34375 15.2188C9.33575 15.2358 9.32636 15.2535 9.31836 15.2705C8.59731 16.7182 7.17974 17.7509 5.5 17.751C3.82009 17.751 2.4017 16.7184 1.68066 15.2705C1.67266 15.2535 1.66425 15.2358 1.65625 15.2188C1.51331 14.9329 1.34823 14.6022 1.2832 14.2773C1.19724 13.8485 1.27857 13.4513 1.52734 13.0645C1.77289 12.6831 2.10454 12.4734 2.47852 12.3662L4.16113 9.00098H3.99902C3.44723 9.00073 2.99902 8.55283 2.99902 8.00098C2.99911 7.4492 3.44729 7.00122 3.99902 7.00098H5.04785C6.0227 7.00087 7.00239 6.59393 7.82227 5.78809C8.39718 5.22217 9.03422 4.79016 9.7041 4.49316C9.57213 4.18919 9.49902 3.85294 9.49902 3.50098C9.49911 2.1202 10.6183 1.00122 11.999 1.00098ZM4.21387 12.251H6.78613L5.5 9.67773L4.21387 12.251ZM17.2139 12.251H19.7861L18.5 9.67773L17.2139 12.251ZM11.999 3.00098C11.7233 3.00122 11.4991 3.2252 11.499 3.50098C11.499 3.77683 11.7232 4.00073 11.999 4.00098C12.275 4.00098 12.499 3.77698 12.499 3.50098C12.4989 3.22505 12.275 3.00098 11.999 3.00098Z" fill="#1B8354"/></svg>