<svg width="29" height="28" fill="none" xmlns="http://www.w3.org/2000/svg"><path d="M23.5879 18.4316C23.889 18.0536 24.4404 17.9909 24.8184 18.292C25.4089 18.7624 25.8749 19.373 25.875 20.2031C25.875 21.2515 25.1405 21.9403 24.3242 22.4648C23.5052 22.9912 22.3104 23.5361 20.8379 24.207L18.7793 25.1445C18.7175 25.1727 18.656 25.201 18.5957 25.2285C16.8459 26.0264 15.7174 26.541 14.5 26.541C13.2826 26.541 12.154 26.0264 10.4043 25.2285C10.344 25.201 10.2825 25.1727 10.2207 25.1445L8.16211 24.207C6.68956 23.5361 5.49483 22.9912 4.67578 22.4648C3.85951 21.9403 3.125 21.2515 3.125 20.2031C3.12508 19.373 3.59113 18.7624 4.18164 18.292C4.55964 17.9909 5.11104 18.0536 5.41211 18.4316C5.71288 18.8096 5.65035 19.3601 5.27246 19.6611C4.89383 19.9627 4.87503 20.122 4.875 20.2031C4.875 20.3002 4.90683 20.5335 5.62207 20.9932C6.32167 21.4427 7.39886 21.9365 8.95703 22.6465L10.9463 23.5527C12.946 24.4639 13.7093 24.791 14.5 24.791C15.2907 24.791 16.054 24.4639 18.0537 23.5527L20.043 22.6465C21.6011 21.9365 22.6783 21.4427 23.3779 20.9932C24.0932 20.5335 24.125 20.3002 24.125 20.2031C24.125 20.122 24.1062 19.9627 23.7275 19.6611C23.3497 19.3601 23.2871 18.8096 23.5879 18.4316ZM24.2451 12.2295C24.6389 11.9495 25.1858 12.0418 25.4658 12.4355C25.7249 12.7999 25.8749 13.2161 25.875 13.6816C25.875 14.73 25.1405 15.4198 24.3242 15.9443C23.5052 16.4706 22.3102 17.0147 20.8379 17.6855L18.7793 18.624C18.7175 18.6522 18.656 18.6795 18.5957 18.707C16.8459 19.505 15.7174 20.0195 14.5 20.0195C13.2826 20.0195 12.1541 19.505 10.4043 18.707C10.344 18.6795 10.2825 18.6522 10.2207 18.624L8.23145 17.7178C8.20827 17.7072 8.18515 17.696 8.16211 17.6855C6.6898 17.0147 5.4948 16.4706 4.67578 15.9443C3.85951 15.4198 3.125 14.73 3.125 13.6816C3.1251 13.2161 3.27513 12.7999 3.53418 12.4355C3.81424 12.0418 4.36108 11.9495 4.75488 12.2295C5.14852 12.5096 5.23995 13.0564 4.95996 13.4502C4.88977 13.549 4.87507 13.6161 4.875 13.6816C4.875 13.7787 4.90683 14.012 5.62207 14.4717C6.32165 14.9212 7.39882 15.415 8.95703 16.125L10.9463 17.0312C12.946 17.9424 13.7093 18.2695 14.5 18.2695C15.2907 18.2695 16.054 17.9424 18.0537 17.0312L20.043 16.125C21.6012 15.415 22.6784 14.9212 23.3779 14.4717C24.0932 14.012 24.125 13.7787 24.125 13.6816C24.1249 13.6161 24.1102 13.5491 24.04 13.4502C23.76 13.0564 23.8515 12.5096 24.2451 12.2295ZM14.5 1.45801C15.72 1.45801 16.8508 1.98145 18.5986 2.79004C18.6595 2.81818 18.7208 2.84715 18.7832 2.87598L20.8418 3.82715C22.3143 4.50774 23.5098 5.06063 24.3291 5.59473C25.1487 6.12908 25.875 6.82437 25.875 7.875C25.875 8.92563 25.1487 9.62092 24.3291 10.1553C23.5098 10.6894 22.3143 11.2423 20.8418 11.9229L18.7832 12.874C18.7208 12.9029 18.6595 12.9318 18.5986 12.96C16.8508 13.7686 15.72 14.292 14.5 14.292C13.28 14.292 12.1492 13.7686 10.4014 12.96C10.3405 12.9318 10.2792 12.9029 10.2168 12.874L8.1582 11.9229C6.68571 11.2423 5.49016 10.6894 4.6709 10.1553C3.85126 9.62092 3.125 8.92563 3.125 7.875C3.125 6.82437 3.85126 6.12908 4.6709 5.59473C5.49016 5.06063 6.68571 4.50775 8.1582 3.82715L10.2168 2.87598C10.2792 2.84715 10.3405 2.81818 10.4014 2.79004C12.1492 1.98145 13.28 1.45801 14.5 1.45801ZM14.5 3.20801C13.7124 3.20801 12.9511 3.53896 10.9502 4.46387L8.96191 5.38379C7.40347 6.10416 6.32634 6.60464 5.62695 7.06055C4.91513 7.5246 4.875 7.76365 4.875 7.875C4.875 7.98635 4.91513 8.2254 5.62695 8.68945C6.32634 9.14536 7.40347 9.64584 8.96191 10.3662L10.9502 11.2861C12.9511 12.211 13.7124 12.542 14.5 12.542C15.2876 12.542 16.0489 12.211 18.0498 11.2861L20.0381 10.3662C21.5965 9.64584 22.6737 9.14536 23.373 8.68945C24.0849 8.2254 24.125 7.98635 24.125 7.875C24.125 7.76365 24.0849 7.5246 23.373 7.06055C22.6737 6.60464 21.5965 6.10416 20.0381 5.38379L18.0498 4.46387C16.0489 3.53897 15.2876 3.20801 14.5 3.20801Z" fill="#161616"/></svg>