<svg width="20" height="20" fill="none" xmlns="http://www.w3.org/2000/svg"><path d="M16.2226 3.83194C14.7839 2.33466 12.4407 2.33467 11.002 3.83194L10.4074 4.45077C10.1683 4.69968 10.1762 5.09532 10.4251 5.33448C10.674 5.57364 11.0696 5.56574 11.3088 5.31683L11.9034 4.698C12.8502 3.71265 14.3745 3.71265 15.3212 4.698C16.2815 5.69741 16.2815 7.32772 15.3212 8.32714L12.6217 11.1366C12.472 11.2925 12.3089 11.4228 12.1371 11.5283C11.2137 12.0959 10.0043 11.9697 9.20391 11.1366C9.0737 11.0011 8.96129 10.8543 8.86651 10.6991C8.68663 10.4045 8.30198 10.3115 8.00738 10.4914C7.71278 10.6713 7.61979 11.0559 7.79968 11.3505C7.94096 11.5819 8.10863 11.8009 8.30256 12.0027C9.51464 13.2642 11.3727 13.4654 12.7917 12.5933C13.0539 12.4321 13.2999 12.2349 13.5231 12.0027L16.2226 9.1932C17.6477 7.70998 17.6477 5.31516 16.2226 3.83194Z" fill="#1B8354"/><path d="M11.697 7.9986C10.2583 6.50133 7.91505 6.50133 6.47639 7.9986L3.77687 10.8081C2.35172 12.2913 2.35172 14.6861 3.77687 16.1694C5.21553 17.6666 7.55879 17.6666 8.99745 16.1694L9.59227 15.5503C9.83142 15.3014 9.82352 14.9058 9.57462 14.6666C9.32572 14.4274 8.93007 14.4353 8.69092 14.6842L8.0961 15.3033C7.14932 16.2887 5.62501 16.2887 4.67822 15.3033C3.71794 14.3039 3.71794 12.6736 4.67822 11.6742L7.37774 8.86467C8.32452 7.87931 9.84883 7.87931 10.7956 8.86467C10.9258 9.00015 11.0382 9.14694 11.1329 9.3021C11.3129 9.59669 11.6975 9.68966 11.9921 9.50975C12.2867 9.32984 12.3796 8.94519 12.1997 8.6506C12.0585 8.41931 11.8908 8.20038 11.697 7.9986Z" fill="#1B8354"/></svg>