<svg width="20" height="22" fill="none" xmlns="http://www.w3.org/2000/svg"><path fill-rule="evenodd" clip-rule="evenodd" d="M10.0005 5.75C7.65328 5.75 5.75049 7.65279 5.75049 10C5.75049 12.3472 7.65328 14.25 10.0005 14.25C12.3477 14.25 14.2505 12.3472 14.2505 10C14.2505 7.65279 12.3477 5.75 10.0005 5.75ZM7.25049 10C7.25049 8.48122 8.4817 7.25 10.0005 7.25C11.5193 7.25 12.7505 8.48122 12.7505 10C12.7505 11.5188 11.5193 12.75 10.0005 12.75C8.4817 12.75 7.25049 11.5188 7.25049 10Z" fill="#384250"/><path fill-rule="evenodd" clip-rule="evenodd" d="M10.0015 0.25C6.17538 0.25 2.52505 2.51303 0.997135 6.08468C-0.42482 9.40865 0.344963 12.2373 1.94771 14.6595C3.26177 16.6454 5.17835 18.4178 6.90742 20.0168C7.23709 20.3217 7.5601 20.6204 7.87066 20.9129L7.87231 20.9145C8.44734 21.4528 9.21115 21.75 10.0015 21.75C10.7919 21.75 11.5557 21.4528 12.1308 20.9145C12.4243 20.6396 12.7286 20.3592 13.039 20.0732C14.7869 18.4628 16.7304 16.672 18.0582 14.6609C19.6591 12.2362 20.4261 9.40453 19.0059 6.08468C17.478 2.51303 13.8277 0.25 10.0015 0.25ZM2.37624 6.67465C3.65506 3.68528 6.74215 1.75 10.0015 1.75C13.2609 1.75 16.348 3.68528 17.6268 6.67465C18.7989 9.4144 18.2075 11.7124 16.8064 13.8344C15.5889 15.6786 13.8053 17.3242 12.0521 18.9418C11.7344 19.235 11.4177 19.5272 11.1056 19.8195C10.8132 20.0932 10.4177 20.25 10.0015 20.25C9.58569 20.25 9.19046 20.0934 8.89816 19.8201C8.56571 19.5069 8.22802 19.1942 7.88939 18.8806C6.15852 17.2778 4.40324 15.6523 3.19866 13.8318C1.79629 11.7124 1.20269 9.41794 2.37624 6.67465Z" fill="#384250"/></svg>