<svg width="25" height="24" fill="none" xmlns="http://www.w3.org/2000/svg"><path d="M10.061 10.8825C11.041 11.4595 11.77 11.7485 12.499 11.7485C13.229 11.7485 13.958 11.4605 14.939 10.8825L17.881 9.14242C18.238 8.93242 18.356 8.47247 18.145 8.11547C17.935 7.75847 17.475 7.64041 17.118 7.85141L14.177 9.59047C12.703 10.4575 12.295 10.4575 10.823 9.59047L7.88099 7.85043C7.52499 7.63943 7.06494 7.75839 6.85394 8.11439C6.64294 8.47039 6.76201 8.93045 7.11801 9.14145L10.061 10.8825Z" fill="#1B8354"/><path fill-rule="evenodd" clip-rule="evenodd" d="M9.57972 21.2064C10.5617 21.2314 11.5307 21.2445 12.4997 21.2445C13.4687 21.2445 14.4378 21.2314 15.4198 21.2064L15.4211 21.2064C18.6583 21.1244 20.4419 21.0793 21.7867 19.7354C23.1287 18.3824 23.1657 16.6465 23.2327 13.4935C23.2537 12.4865 23.2537 11.5085 23.2327 10.5015C23.1657 7.34846 23.1287 5.61145 21.7837 4.25645C20.4407 2.91545 18.6568 2.8695 15.4188 2.7875C13.4538 2.7375 11.5437 2.7375 9.57874 2.7875L9.57739 2.78753C6.34024 2.86951 4.55656 2.91468 3.21175 4.2585C1.86975 5.6115 1.83275 7.34749 1.76575 10.5005C1.74475 11.5075 1.74475 12.4855 1.76575 13.4925C1.83275 16.6455 1.86977 18.3825 3.21477 19.7375C4.55777 21.0785 6.34171 21.1244 9.57972 21.2064ZM4.27679 18.6774C3.35579 17.7504 3.32677 16.4054 3.26477 13.4604C3.24377 12.4744 3.24377 11.5164 3.26477 10.5314C3.32677 7.58645 3.35576 6.2425 4.27376 5.3165C5.19268 4.39758 6.5785 4.36245 9.61598 4.28547C11.556 4.23547 13.4418 4.23545 15.3808 4.28545C18.4188 4.36245 19.8048 4.39845 20.7218 5.31445C21.6428 6.24145 21.6717 7.58645 21.7337 10.5314C21.7547 11.5174 21.7547 12.4754 21.7337 13.4604C21.6717 16.4054 21.6427 17.7495 20.7247 18.6755C19.8059 19.5943 18.4203 19.6294 15.3835 19.7064L15.3818 19.7064C13.4418 19.7564 11.5568 19.7564 9.6178 19.7064C6.5798 19.6294 5.19379 19.5934 4.27679 18.6774Z" fill="#1B8354"/></svg>