<svg width="24" height="24" fill="none" xmlns="http://www.w3.org/2000/svg"><path fill-rule="evenodd" clip-rule="evenodd" d="M9.77965 1.82175C11.2369 1.72488 12.7601 1.72468 14.2204 1.82175C18.787 2.12531 22.4103 5.8116 22.7082 10.4214C22.7639 11.2838 22.7639 12.1759 22.7082 13.0383C22.4103 17.648 18.787 21.3343 14.2204 21.6379C12.7601 21.735 11.2369 21.7348 9.77965 21.6379C9.21472 21.6003 8.59978 21.4668 8.05839 21.2438C7.8203 21.1457 7.65868 21.0794 7.54041 21.0361C7.45909 21.0919 7.35108 21.1713 7.1938 21.2873C6.40136 21.8716 5.40092 22.2815 3.98117 22.247L3.93544 22.2459C3.66155 22.2393 3.36961 22.2324 3.13152 22.1863C2.84475 22.1308 2.48996 21.9922 2.26791 21.6136C2.02623 21.2015 2.12313 20.7848 2.21688 20.5224C2.30536 20.2747 2.45874 19.9843 2.61542 19.6875L2.6369 19.6468C3.10323 18.7631 3.23314 18.041 2.98381 17.5595C2.15148 16.303 1.40272 14.7546 1.2918 13.0383C1.23607 12.1759 1.23607 11.2838 1.2918 10.4214C1.58972 5.8116 5.213 2.12531 9.77965 1.82175ZM7.75 9.49902C7.75 9.91324 8.08579 10.249 8.5 10.249H12C12.4142 10.249 12.75 9.91324 12.75 9.49902C12.75 9.08481 12.4142 8.74902 12 8.74902H8.5C8.08579 8.74902 7.75 9.08481 7.75 9.49902ZM7.75 14.499C7.75 14.9132 8.08579 15.249 8.5 15.249H15.5C15.9142 15.249 16.25 14.9132 16.25 14.499C16.25 14.0848 15.9142 13.749 15.5 13.749H8.5C8.08579 13.749 7.75 14.0848 7.75 14.499Z" fill="#1F2A37"/></svg>