<svg width="16" height="18" fill="none" xmlns="http://www.w3.org/2000/svg"><path fill-rule="evenodd" clip-rule="evenodd" d="M7.99967 12.9583C10.646 12.9583 12.7913 10.813 12.7913 8.16666V4.83332C12.7913 2.18696 10.646 0.0416565 7.99967 0.0416565C5.35331 0.0416565 3.20801 2.18696 3.20801 4.83332V8.16666C3.20801 10.813 5.35331 12.9583 7.99967 12.9583ZM7.99967 1.29166C6.04367 1.29166 4.45801 2.87732 4.45801 4.83332V8.16666C4.45801 10.1227 6.04367 11.7083 7.99967 11.7083C9.74242 11.7083 11.1912 10.4496 11.4864 8.79166H9.66634C9.32116 8.79166 9.04134 8.51183 9.04134 8.16666C9.04134 7.82148 9.32116 7.54166 9.66634 7.54166H11.5413V5.45832H9.66634C9.32116 5.45832 9.04134 5.1785 9.04134 4.83332C9.04134 4.48815 9.32116 4.20832 9.66634 4.20832H11.4864C11.1912 2.5504 9.74242 1.29166 7.99967 1.29166Z" fill="#161616"/><path d="M1.95801 8.16666C1.95801 7.82148 1.67819 7.54166 1.33301 7.54166C0.98783 7.54166 0.708008 7.82148 0.708008 8.16666C0.708008 11.9832 3.64017 15.1149 7.37467 15.4319V16.7083H5.49967C5.1545 16.7083 4.87467 16.9881 4.87467 17.3333C4.87467 17.6785 5.1545 17.9583 5.49967 17.9583H10.4997C10.8449 17.9583 11.1247 17.6785 11.1247 17.3333C11.1247 16.9881 10.8449 16.7083 10.4997 16.7083H8.62467V15.4319C12.3592 15.1149 15.2913 11.9832 15.2913 8.16666C15.2913 7.82148 15.0115 7.54166 14.6663 7.54166C14.3212 7.54166 14.0413 7.82148 14.0413 8.16666C14.0413 11.5034 11.3364 14.2083 7.99967 14.2083C4.66295 14.2083 1.95801 11.5034 1.95801 8.16666Z" fill="#161616"/></svg>