<svg width="24" height="24" fill="none" xmlns="http://www.w3.org/2000/svg"><path d="M12 22.75C17.9371 22.75 22.75 17.9369 22.75 12C22.75 6.06292 17.9371 1.25 12 1.25C6.06292 1.25 1.25 6.06292 1.25 12C1.25 17.9369 6.06291 22.75 12 22.75ZM12 21.25C6.89136 21.25 2.75 17.1085 2.75 12C2.75 6.89135 6.89135 2.75 12 2.75C17.1087 2.75 21.25 6.89135 21.25 12C21.25 17.1085 17.1086 21.25 12 21.25ZM10.3359 15.3135C10.6075 15.2588 10.8414 15.1035 10.9932 14.8896L11.6045 14.0117C11.668 13.9209 11.7051 13.8113 11.7051 13.6934V12.4023L12.8818 12.1611V14.4883L16.6582 13.7109C16.8365 13.3283 16.9548 12.9131 17 12.4775L14.0586 13.083V11.9189L16.6582 11.3838C16.8365 11.0012 16.9548 10.5859 17 10.1504L14.0586 10.7549L14.0586 6.56934C13.6079 6.81421 13.2072 7.13996 12.8818 7.52441L12.8818 10.9971L11.7051 11.2393L11.7051 6C11.2546 6.24472 10.8546 6.57078 10.5293 6.95508L10.5293 11.4805L7.89648 12.0225C7.71818 12.4051 7.59999 12.8204 7.55469 13.2559L10.5293 12.6445V14.1104L7.3418 14.7656C7.16335 15.1484 7.04519 15.5642 7 16L10.3359 15.3135ZM16.668 16.2275C16.8413 15.8468 16.956 15.4334 17 15L13.332 15.7725C13.1587 16.1533 13.0439 16.5666 13 17L16.668 16.2275Z" fill="#1B8354"/></svg>