<svg width="24" height="24" fill="none" xmlns="http://www.w3.org/2000/svg"><path d="M16.0176 17.9053C17.539 17.0317 19.461 17.0317 20.9824 17.9053C21.2508 18.0504 21.8789 18.3911 22.2168 18.71C22.426 18.9075 22.6924 19.2277 22.7422 19.667C22.7977 20.157 22.5642 20.5693 22.2305 20.876C21.7307 21.3351 21.0789 21.75 20.2148 21.75H16.7852C15.9211 21.7499 15.2693 21.3351 14.7695 20.876C14.4358 20.5693 14.2023 20.157 14.2578 19.667C14.3076 19.2277 14.574 18.9075 14.7832 18.71C15.121 18.3911 15.7491 18.0505 16.0176 17.9053ZM4.60547 13.8623C4.8265 13.7257 5.10253 13.713 5.33496 13.8291L7.33496 14.8291C7.70529 15.0143 7.85579 15.4646 7.6709 15.835C7.48566 16.2054 7.03455 16.3561 6.66406 16.1709L5.75391 15.7158C5.76141 16.4687 5.78377 17.0027 5.85059 17.4238C5.93862 17.9784 6.09465 18.2763 6.40918 18.5908C6.51109 18.6927 6.70046 18.81 7.03223 18.9141C7.35952 19.0167 7.77749 19.0923 8.28516 19.1445C9.30547 19.2495 10.5732 19.25 12 19.25C12.4141 19.2501 12.75 19.5858 12.75 20C12.75 20.4142 12.4141 20.7499 12 20.75H11.9688C10.5784 20.75 9.23613 20.7495 8.13086 20.6357C7.5719 20.5782 7.04468 20.4891 6.58398 20.3447C6.12768 20.2017 5.68607 19.9888 5.34863 19.6514C4.78448 19.0872 4.50078 18.4885 4.36914 17.6592C4.25 16.9084 4.24996 15.9232 4.25 14.5771C4.25 14.5517 4.25 14.5257 4.25 14.5C4.25 14.2401 4.38447 13.999 4.60547 13.8623ZM18.5 11.75C19.7425 11.7502 20.75 12.7575 20.75 14C20.75 15.2425 19.7425 16.2498 18.5 16.25C17.2574 16.25 16.25 15.2426 16.25 14C16.25 12.7574 17.2574 11.75 18.5 11.75ZM3.01758 8.40527C4.53898 7.53173 6.46003 7.53177 7.98145 8.40527C8.24977 8.55041 8.87789 8.89101 9.21582 9.20996C9.42506 9.40745 9.69141 9.72763 9.74121 10.167C9.79666 10.657 9.56326 11.0693 9.22949 11.376C8.72969 11.8351 8.07789 12.25 7.21387 12.25H3.78516C2.92109 12.25 2.26934 11.8351 1.76953 11.376C1.43576 11.0694 1.20237 10.657 1.25781 10.167C1.30761 9.72767 1.57397 9.40746 1.7832 9.20996C2.12113 8.89101 2.74925 8.55041 3.01758 8.40527ZM11.5303 3.25C12.9207 3.24999 14.2628 3.25048 15.3682 3.36426C15.9274 3.42183 16.4551 3.51077 16.916 3.65527C17.3723 3.79835 17.8139 4.01119 18.1514 4.34863C18.7155 4.91277 18.9992 5.51158 19.1309 6.34082C19.25 7.09166 19.25 8.07751 19.25 9.42383V9.5C19.25 9.75993 19.1147 10.002 18.8936 10.1387C18.6725 10.2751 18.3964 10.2871 18.1641 10.1709L16.1641 9.1709C15.7938 8.98557 15.6439 8.53543 15.8291 8.16504C16.0143 7.79464 16.4645 7.64406 16.835 7.8291L17.7461 8.28516C17.7386 7.53193 17.7163 6.99742 17.6494 6.57617C17.5614 6.02157 17.4053 5.72371 17.0908 5.40918C16.9889 5.30729 16.7986 5.19096 16.4668 5.08691C16.1396 4.98435 15.7223 4.90869 15.2148 4.85645C14.1945 4.75141 12.9269 4.75 11.5 4.75C11.0858 4.75 10.75 4.41421 10.75 4C10.7502 3.58594 11.0859 3.25 11.5 3.25H11.5303ZM5.5 2.25C6.74264 2.25 7.75 3.25736 7.75 4.5C7.74982 5.74249 6.74253 6.75 5.5 6.75C4.25747 6.75 3.25018 5.74249 3.25 4.5C3.25 3.25736 4.25736 2.25 5.5 2.25Z" fill="#1B8354"/></svg>