<svg width="25" height="24" fill="none" xmlns="http://www.w3.org/2000/svg"><rect x="0.666016" width="24" height="24" rx="12" fill="#F9FAFB"/><path d="M22.666 22.751C23.218 22.7507 23.6658 22.3029 23.666 21.751C23.666 21.1988 23.2181 20.7512 22.666 20.751H22.416L22.416 14.4229C22.4161 13.7521 22.4156 13.1646 22.3594 12.6816C22.2986 12.1598 22.163 11.6562 21.8223 11.1982C21.4814 10.7402 21.0381 10.465 20.5557 10.2568C20.1092 10.0642 19.5467 9.89582 18.9043 9.70313C18.8872 9.698 18.8697 9.69266 18.8525 9.6875L17.415 9.25684V8.12598C17.4151 7.40446 17.415 6.80029 17.3594 6.30957C17.3006 5.79143 17.1734 5.31933 16.8643 4.89648C16.5533 4.47131 16.1435 4.21175 15.6699 4.00977C15.2256 3.82036 14.6609 3.6564 13.9941 3.46289L8.89258 1.98242C7.77838 1.65897 6.85945 1.39171 6.12207 1.29297C5.3499 1.18965 4.61698 1.24738 3.99219 1.73926C3.37445 2.22591 3.13142 2.92662 3.02148 3.71094C2.91534 4.46858 2.91501 5.4537 2.91504 6.65918L2.91504 20.751H2.66602C2.11373 20.751 1.66602 21.1987 1.66602 21.751C1.66624 22.3031 2.11387 22.751 2.66602 22.751L22.666 22.751ZM8.66504 8.75C8.25105 8.74974 7.91504 8.41405 7.91504 8C7.91519 7.58608 8.25114 7.25026 8.66504 7.25L11.665 7.25C12.0792 7.25 12.4149 7.58592 12.415 8C12.415 8.41421 12.0793 8.75 11.665 8.75L8.66504 8.75ZM8.66504 12.75C8.25105 12.7497 7.91504 12.4141 7.91504 12C7.91519 11.5861 8.25114 11.2503 8.66504 11.25L11.665 11.25C12.0792 11.25 12.4149 11.5859 12.415 12C12.415 12.4142 12.0793 12.75 11.665 12.75L8.66504 12.75ZM17.415 11.3447L18.2783 11.6035C18.9872 11.8162 19.4367 11.9527 19.7637 12.0938C20.0659 12.2242 20.1632 12.3184 20.2178 12.3916C20.2723 12.4649 20.3349 12.5854 20.373 12.9131C20.4142 13.2668 20.416 13.7364 20.416 14.4766L20.416 20.751H17.415L17.415 11.3447ZM6.91602 17.9551C6.91596 17.5224 6.91562 17.1255 6.95898 16.8027C7.00675 16.4475 7.11916 16.0716 7.42773 15.7627C7.73664 15.4538 8.11339 15.3408 8.46875 15.293C8.79138 15.2496 9.18863 15.2499 9.62109 15.25H10.71C11.1424 15.2499 11.5396 15.2497 11.8623 15.293C12.2177 15.3408 12.5943 15.4538 12.9033 15.7627C13.212 16.0716 13.3243 16.4474 13.3721 16.8027C13.4154 17.1255 13.4161 17.5223 13.416 17.9551L13.416 20.751H11.916L11.916 18C11.916 17.5074 11.9141 17.2127 11.8857 17.002C11.8728 16.9061 11.8576 16.8578 11.8486 16.8359C11.8265 16.8268 11.759 16.7922 11.6631 16.7793C11.4525 16.751 11.158 16.75 10.666 16.75H9.66602C9.17366 16.75 8.87863 16.751 8.66797 16.7793C8.57262 16.7922 8.52395 16.8074 8.50195 16.8164C8.49291 16.8383 8.45831 16.9058 8.44531 17.002C8.41699 17.2127 8.41602 17.5074 8.41602 18L8.41602 20.751H6.91602L6.91602 17.9551Z" fill="#1F2A37"/></svg>