<svg width="25" height="24" fill="none" xmlns="http://www.w3.org/2000/svg"><path d="M9.05723 17.3962C9.2186 17.2743 9.70035 16.9104 9.97806 16.6936C10.5343 16.2596 11.2734 15.6664 12.0103 15.0266C12.7509 14.3836 13.4722 13.7081 14.0024 13.108C14.2683 12.8071 14.4703 12.5427 14.6018 12.3246C14.7255 12.1194 14.7512 11.9983 14.7512 11.9983C14.7512 11.9983 14.7255 11.8806 14.6018 11.6755C14.4703 11.4574 14.2683 11.193 14.0024 10.8921C13.4722 10.292 12.7509 9.6165 12.0102 8.97346C11.2733 8.33365 10.5342 7.74054 9.97802 7.30647C9.70031 7.08974 9.21925 6.72634 9.05787 6.60445C8.72435 6.35882 8.65241 5.88881 8.89805 5.55529C9.14368 5.22177 9.61318 5.15052 9.9467 5.39615L9.94924 5.39807C10.1185 5.52591 10.6175 5.90281 10.9009 6.12394C11.4696 6.56782 12.2306 7.17825 12.9937 7.84081C13.753 8.50013 14.5317 9.22579 15.1265 9.89891C15.4231 10.2346 15.6898 10.5749 15.8864 10.9011C16.0707 11.2066 16.2519 11.5935 16.2519 12.0001C16.2519 12.4066 16.0707 12.7935 15.8864 13.099C15.6898 13.4252 15.4231 13.7655 15.1265 14.1012C14.5317 14.7743 13.753 15.5 12.9937 16.1593C12.2306 16.8218 11.4697 17.4323 10.9009 17.8762C10.6174 18.0974 10.1183 18.4744 9.94941 18.6019L9.94723 18.6036C9.61371 18.8492 9.14373 18.7783 8.8981 18.4448C8.65247 18.1113 8.72374 17.6418 9.05723 17.3962Z" fill="#161616"/></svg>