<svg width="25" height="24" fill="none" xmlns="http://www.w3.org/2000/svg"><path fill-rule="evenodd" clip-rule="evenodd" d="M12.5 1.25C9.6005 1.25 7.25 3.6005 7.25 6.5C7.25 9.39949 9.6005 11.75 12.5 11.75C15.3995 11.75 17.75 9.39949 17.75 6.5C17.75 3.6005 15.3995 1.25 12.5 1.25ZM8.75 6.5C8.75 4.42893 10.4289 2.75 12.5 2.75C14.5711 2.75 16.25 4.42893 16.25 6.5C16.25 8.57107 14.5711 10.25 12.5 10.25C10.4289 10.25 8.75 8.57107 8.75 6.5Z" fill="#1B8354"/><path fill-rule="evenodd" clip-rule="evenodd" d="M18.7288 15.0792C18.5662 14.9874 18.4226 14.9064 18.3063 14.8372C14.7523 12.7209 10.2481 12.7209 6.69404 14.8372C6.57773 14.9064 6.43405 14.9875 6.27139 15.0793C5.55857 15.4814 4.48106 16.0893 3.7429 16.8118C3.28123 17.2637 2.84257 17.8592 2.76283 18.5888C2.67802 19.3646 3.01649 20.0927 3.6955 20.7396C4.86695 21.8556 6.27274 22.75 8.09104 22.75H16.9093C18.7276 22.75 20.1334 21.8556 21.3048 20.7396C21.9839 20.0927 22.3223 19.3646 22.2375 18.5888C22.1578 17.8592 21.7191 17.2637 21.2575 16.8118C20.5193 16.0893 19.4417 15.4813 18.7288 15.0792ZM7.46146 16.126C10.5426 14.2913 14.4577 14.2913 17.5389 16.126C17.7068 16.226 17.8907 16.3303 18.0834 16.4397C18.796 16.8439 19.6281 17.316 20.2082 17.8838C20.5683 18.2363 20.7218 18.5271 20.7464 18.7517C20.7659 18.9301 20.7208 19.2242 20.2702 19.6535C19.2343 20.6404 18.1818 21.25 16.9093 21.25H8.09104C6.8186 21.25 5.76602 20.6404 4.73017 19.6535C4.27954 19.2242 4.23445 18.9301 4.25395 18.7517C4.27851 18.5271 4.43202 18.2363 4.79214 17.8838C5.37223 17.316 6.20426 16.844 6.91686 16.4397C7.10953 16.3304 7.2936 16.226 7.46146 16.126Z" fill="#1B8354"/></svg>