<svg width="24" height="25" fill="none" xmlns="http://www.w3.org/2000/svg"><path fill-rule="evenodd" clip-rule="evenodd" d="M5.31629 1.69086C5.88297 1.80799 6.33427 2.18873 6.61466 2.69176L7.50787 4.2942C7.83688 4.88441 8.11375 5.38109 8.29457 5.81286C8.48637 6.27088 8.60029 6.72254 8.54821 7.2219C8.49614 7.72126 8.29148 8.1397 8.00931 8.54829C7.7433 8.93346 7.36991 9.36234 6.92621 9.87197L4.69835 12.431C6.46519 15.327 9.07413 17.9371 11.9731 19.7057L14.5321 17.4779C15.0417 17.0342 15.4706 16.6608 15.8558 16.3948C16.2644 16.1126 16.6828 15.9079 17.1822 15.8559C17.6815 15.8038 18.1332 15.9177 18.5912 16.1095C19.023 16.2903 19.5197 16.5672 20.1099 16.8962L21.7123 17.7894C22.2153 18.0698 22.5961 18.5211 22.7132 19.0878C22.8316 19.6604 22.657 20.2359 22.2714 20.709C20.8725 22.4253 18.6313 23.5182 16.28 23.0439C14.8348 22.7523 13.4088 22.2666 11.6841 21.2775C8.21872 19.2901 5.11165 16.1813 3.12658 12.72C2.13746 10.9953 1.65174 9.5693 1.3602 8.12404C0.885904 5.77281 1.97874 3.53154 3.6951 2.13263C4.16814 1.74709 4.74368 1.57252 5.31629 1.69086ZM13.3702 20.4782C14.5366 21.0529 15.5511 21.3666 16.5766 21.5735C18.2727 21.9156 19.985 21.1401 21.1087 19.7613C21.2563 19.5803 21.2572 19.4539 21.2443 19.3914C21.2301 19.323 21.1728 19.206 20.982 19.0996L19.4155 18.2264C18.7798 17.8721 18.3567 17.6375 18.0118 17.4931C17.6844 17.356 17.4966 17.3312 17.3378 17.3478C17.1789 17.3643 17.0002 17.4273 16.7082 17.629C16.4005 17.8415 16.0349 18.1584 15.486 18.6362L13.3702 20.4782ZM3.92588 11.0339L5.76786 8.91806C6.24569 8.3692 6.56257 8.00354 6.77504 7.69589C6.97672 7.40385 7.03974 7.22516 7.0563 7.06632C7.07287 6.90748 7.04808 6.71963 6.91099 6.39227C6.76657 6.0474 6.53194 5.62423 6.17763 4.98858L5.30445 3.42208C5.19807 3.23123 5.08109 3.17396 5.01268 3.15982C4.95018 3.1469 4.8238 3.14781 4.64277 3.29535C3.26399 4.41912 2.48845 6.13138 2.83058 7.82743C3.03747 8.85301 3.35115 9.86749 3.92588 11.0339Z" fill="#1B8354"/></svg>