<svg width="24" height="28" fill="none" xmlns="http://www.w3.org/2000/svg"><path fill-rule="evenodd" clip-rule="evenodd" d="M12.0005 8.75C9.65328 8.75 7.75049 10.6528 7.75049 13C7.75049 15.3472 9.65328 17.25 12.0005 17.25C14.3477 17.25 16.2505 15.3472 16.2505 13C16.2505 10.6528 14.3477 8.75 12.0005 8.75ZM9.25049 13C9.25049 11.4812 10.4817 10.25 12.0005 10.25C13.5193 10.25 14.7505 11.4812 14.7505 13C14.7505 14.5188 13.5193 15.75 12.0005 15.75C10.4817 15.75 9.25049 14.5188 9.25049 13Z" fill="#1B8354"/><path fill-rule="evenodd" clip-rule="evenodd" d="M12.0015 3.25C8.17538 3.25 4.52505 5.51303 2.99714 9.08468C1.57518 12.4086 2.34496 15.2373 3.94771 17.6595C5.26177 19.6454 7.17835 21.4178 8.90742 23.0168C9.23709 23.3217 9.5601 23.6204 9.87066 23.9129L9.87231 23.9145C10.4473 24.4528 11.2112 24.75 12.0015 24.75C12.7919 24.75 13.5557 24.4528 14.1308 23.9145C14.4243 23.6396 14.7286 23.3592 15.039 23.0732C16.7869 21.4628 18.7304 19.672 20.0582 17.6609C21.6591 15.2362 22.4261 12.4045 21.0059 9.08468C19.478 5.51303 15.8277 3.25 12.0015 3.25ZM4.37624 9.67465C5.65506 6.68528 8.74215 4.75 12.0015 4.75C15.2609 4.75 18.348 6.68528 19.6268 9.67465C20.7989 12.4144 20.2075 14.7124 18.8064 16.8344C17.5889 18.6786 15.8053 20.3242 14.0521 21.9418C13.7344 22.235 13.4177 22.5272 13.1056 22.8195C12.8132 23.0932 12.4177 23.25 12.0015 23.25C11.5857 23.25 11.1905 23.0934 10.8982 22.8201C10.5657 22.5069 10.228 22.1942 9.88939 21.8806C8.15852 20.2778 6.40324 18.6523 5.19866 16.8318C3.79629 14.7124 3.20269 12.4179 4.37624 9.67465Z" fill="#1B8354"/></svg>