<svg width="24" height="24" fill="none" xmlns="http://www.w3.org/2000/svg"><path d="M12 1.25C14.8995 1.25 17.25 3.6005 17.25 6.5V8.45898C18.9408 8.86274 20.2391 10.2989 20.4756 12.0557C20.6237 13.1559 20.75 14.312 20.75 15.5C20.75 16.688 20.6237 17.8441 20.4756 18.9443C20.204 20.9613 18.5327 22.5558 16.4746 22.6504C15.0462 22.7161 13.5958 22.75 12 22.75C10.4042 22.75 8.95376 22.7161 7.52539 22.6504C5.46733 22.5558 3.79598 20.9613 3.52441 18.9443C3.37629 17.8441 3.25 16.688 3.25 15.5C3.25 14.312 3.37629 13.1559 3.52441 12.0557C3.76094 10.2989 5.05918 8.86274 6.75 8.45898V6.5C6.75 3.6005 9.1005 1.25 12 1.25ZM12 9.75C10.4264 9.75 8.99855 9.78405 7.59375 9.84863C6.28504 9.90898 5.18908 10.9317 5.01074 12.2549C4.86537 13.3346 4.75 14.4129 4.75 15.5C4.75 16.5871 4.86537 17.6654 5.01074 18.7451C5.18908 20.0683 6.28504 21.091 7.59375 21.1514C8.99855 21.2159 10.4264 21.25 12 21.25C13.5736 21.25 15.0014 21.2159 16.4062 21.1514C17.715 21.091 18.8109 20.0683 18.9893 18.7451C19.1346 17.6654 19.25 16.5871 19.25 15.5C19.25 14.4129 19.1346 13.3346 18.9893 12.2549C18.8109 10.9317 17.715 9.90898 16.4062 9.84863C15.0014 9.78405 13.5736 9.75 12 9.75ZM12 13.75C12.4142 13.75 12.75 14.0858 12.75 14.5V16.5C12.75 16.9142 12.4142 17.25 12 17.25C11.5858 17.25 11.25 16.9142 11.25 16.5V14.5C11.25 14.0858 11.5858 13.75 12 13.75ZM12 2.75C9.92893 2.75 8.25 4.42893 8.25 6.5V8.32031C9.44677 8.27459 10.6731 8.25 12 8.25C13.3269 8.25 14.5532 8.27459 15.75 8.32031V6.5C15.75 4.42893 14.0711 2.75 12 2.75Z" fill="#161616"/></svg>