<svg width="24" height="24" fill="none" xmlns="http://www.w3.org/2000/svg"><path d="M8.5 1.25C7.25736 1.25 6.25 2.25736 6.25 3.5V7.25H5C2.92893 7.25 1.25 8.92893 1.25 11V17C1.25 17.9665 2.0335 18.75 3 18.75H6.25V20C6.25 21.5188 7.48122 22.75 9 22.75H15C16.5188 22.75 17.75 21.5188 17.75 20V18.75H21C21.9665 18.75 22.75 17.9665 22.75 17V11C22.75 8.92893 21.0711 7.25 19 7.25H17.75V3.5C17.75 2.25736 16.7426 1.25 15.5 1.25H8.5ZM16.25 20C16.25 20.6904 15.6904 21.25 15 21.25H9C8.30964 21.25 7.75 20.6904 7.75 20V16.75H16.25V20ZM19 8.75C20.2426 8.75 21.25 9.75736 21.25 11V17C21.25 17.1381 21.1381 17.25 21 17.25H17.75V16C17.75 15.5858 17.4142 15.25 17 15.25H7C6.58579 15.25 6.25 15.5858 6.25 16V17.25H3C2.86193 17.25 2.75 17.1381 2.75 17V11C2.75 9.75736 3.75736 8.75 5 8.75H19ZM5.49121 10.5C4.93893 10.5 4.49121 10.9477 4.49121 11.5C4.49121 12.0523 4.93893 12.5 5.49121 12.5H5.5C6.05228 12.5 6.5 12.0523 6.5 11.5C6.5 10.9477 6.05228 10.5 5.5 10.5H5.49121ZM15.5 2.75C15.9142 2.75 16.25 3.08579 16.25 3.5V7.25H7.75V3.5C7.75 3.08579 8.08579 2.75 8.5 2.75H15.5Z" fill="#25935F"/></svg>