<svg width="25" height="24" fill="none" xmlns="http://www.w3.org/2000/svg"><path d="M12.499 13.7451C12.085 13.7451 11.749 13.4091 11.749 12.9951V12.6151C11.749 11.7491 12.265 11.0921 12.721 10.5121L12.7321 10.498C12.88 10.3092 13.0196 10.131 13.125 9.96416C13.204 9.83816 13.249 9.68416 13.249 9.53516C13.249 9.09916 12.913 8.74512 12.499 8.74512C12.085 8.74512 11.749 9.09916 11.749 9.53516C11.749 9.97116 11.413 10.2852 10.999 10.2852C10.585 10.2852 10.249 9.94916 10.249 9.53516C10.249 8.27216 11.258 7.24512 12.499 7.24512C13.74 7.24512 14.749 8.27216 14.749 9.53516C14.749 9.96816 14.627 10.3921 14.395 10.7631C14.243 11.0021 14.069 11.2241 13.901 11.4381L13.8977 11.4423C13.5787 11.849 13.249 12.2693 13.249 12.6151V12.9951C13.249 13.4091 12.913 13.7451 12.499 13.7451Z" fill="#1B8354"/><path d="M11.7539 14.9951C11.7539 15.4091 12.0949 15.7451 12.5089 15.7451C12.9229 15.7451 13.2589 15.4091 13.2589 14.9951C13.2589 14.5811 12.9229 14.2451 12.5089 14.2451H12.4989C12.0849 14.2451 11.7539 14.5811 11.7539 14.9951Z" fill="#1B8354"/><path fill-rule="evenodd" clip-rule="evenodd" d="M4.64398 22.247C4.58998 22.247 4.53599 22.247 4.48099 22.245L4.40296 22.243C3.71996 22.222 3.12898 22.203 2.77298 21.633L2.75492 21.602C2.41795 21.0001 2.71192 20.4461 3.11886 19.6792L3.13695 19.645C3.46995 19.02 3.79695 18.155 3.48695 17.554C2.45595 16.018 1.88593 14.498 1.79193 13.035C1.73993 12.166 1.73993 11.288 1.79193 10.422C2.08493 5.82103 5.73392 2.123 10.2799 1.819C11.7279 1.727 13.2619 1.727 14.7169 1.819C19.2659 2.124 22.9159 5.82098 23.2079 10.42C23.2599 11.289 23.2599 12.167 23.2079 13.033C22.9149 17.634 19.266 21.331 14.72 21.636C13.262 21.738 11.7249 21.738 10.2759 21.636C9.69691 21.6 9.08299 21.46 8.55199 21.241L8.42894 21.19L8.36691 21.1645C8.24859 21.1159 8.13252 21.0682 8.04398 21.035C7.9766 21.0808 7.89118 21.141 7.80392 21.2026L7.75091 21.24L7.689 21.2839C6.817 21.9329 5.81793 22.249 4.64193 22.249L4.64398 22.247ZM4.25795 20.737C4.29977 20.739 4.34292 20.7401 4.38563 20.7412L4.44994 20.743L4.52298 20.745C5.44198 20.766 6.14891 20.56 6.80091 20.074C6.80341 20.0725 6.80568 20.0707 6.80795 20.069C6.81021 20.0673 6.81248 20.0655 6.81498 20.064L6.88295 20.016L6.88515 20.0144C7.31968 19.7054 7.53847 19.5499 7.83597 19.504C8.16197 19.455 8.44296 19.5699 9.00296 19.8009L9.12494 19.8509C9.50194 20.0069 9.95694 20.11 10.3749 20.136C11.7619 20.233 13.2269 20.234 14.6169 20.136H14.619C18.417 19.882 21.465 16.786 21.711 12.937C21.759 12.145 21.759 11.304 21.711 10.51C21.466 6.66302 18.417 3.56795 14.62 3.31295C13.229 3.22595 11.761 3.22595 10.377 3.31295C6.58199 3.56695 3.53293 6.66197 3.28793 10.512C3.23993 11.304 3.23993 12.145 3.28793 12.939C3.36493 14.14 3.85791 15.421 4.75091 16.744C4.76291 16.762 4.77497 16.7809 4.78597 16.8009C5.31497 17.7569 5.20595 18.95 4.46195 20.347L4.44398 20.3799C4.38098 20.4979 4.31494 20.624 4.25795 20.737Z" fill="#1B8354"/></svg>