<svg width="20" height="21" fill="none" xmlns="http://www.w3.org/2000/svg"><path d="M9.9991 18.5293H10C13.7033 18.5293 15.5617 18.5293 16.8433 17.2476C18.055 16.0343 18.1175 14.2334 18.1233 11.1551C18.1233 10.8101 17.8442 10.5293 17.4992 10.5293H17.4975C17.1525 10.5293 16.8725 10.8085 16.8725 11.1535C16.8667 14.146 16.7792 15.5434 15.9583 16.3643C15.0425 17.2793 13.3575 17.2793 9.99919 17.2793C6.64085 17.2793 4.955 17.2793 4.04 16.3643C3.125 15.4484 3.125 13.7626 3.125 10.4043C3.125 7.04598 3.12502 5.36017 4.04085 4.44434C4.86085 3.6235 6.25831 3.53513 9.25081 3.5293C9.59665 3.5293 9.875 3.24848 9.875 2.90348C9.87417 2.55848 9.595 2.2793 9.25 2.2793H9.24833C6.16916 2.28513 4.36832 2.34762 3.15666 3.56095C1.875 4.84178 1.875 6.70093 1.875 10.4042C1.875 14.1075 1.875 15.966 3.15666 17.2476C4.43748 18.5293 6.29666 18.5293 9.9991 18.5293Z" fill="#1B8354"/><path d="M8.76675 11.7294C8.88925 11.8502 9.04841 11.911 9.20758 11.911C9.36842 11.911 9.5284 11.8486 9.6509 11.7261L16.8001 4.53522C16.8492 5.04022 16.8876 5.83772 16.8701 7.08356C16.8651 7.42939 17.1409 7.71267 17.4859 7.71767C17.8326 7.726 18.1151 7.44687 18.1201 7.10187C18.1717 3.47755 17.7821 3.08636 17.5728 2.8763C17.3628 2.66626 16.9718 2.27523 13.3501 2.32688C13.0051 2.33188 12.7292 2.616 12.7342 2.961C12.7392 3.30266 13.0184 3.57688 13.3592 3.57688H13.3684C14.6192 3.55938 15.4175 3.59768 15.9209 3.64768L8.76422 10.8452C8.52089 11.0902 8.52175 11.4861 8.76675 11.7294Z" fill="#1B8354"/></svg>