<svg width="975" height="50" fill="none" xmlns="http://www.w3.org/2000/svg"><mask id="mask0_325_36134" style="mask-type:luminance" maskUnits="userSpaceOnUse" x="-465" y="0" width="1440" height="60"><path d="M510.73 25.4966L506.422 21.5436L497.898 29.3636L489.375 21.5436L479.824 30.3066L489.375 39.0696L497.898 31.2506L501.181 34.2606L476.053 57.3236V0.93364H467.09V59.7086H476.053V59.6936H538.51V42.5426L548.493 51.7406L539.753 59.6946H549.412L558.127 51.7626L546.449 41.0126L558.149 30.3696L546.449 19.7276L558.127 8.97064L549.283 0.91964H539.626L548.493 8.99764L538.51 18.1896V0.000640869L510.73 25.4966ZM550.499 51.7476L538.821 40.9886L550.495 30.3696L538.821 19.7426L550.499 8.99464L543.064 2.22064H548.701L556.122 8.97664L544.444 19.7336L556.136 30.3696L544.444 41.0066L556.122 51.7566L548.829 58.3946H543.192L550.499 51.7476ZM468.507 2.23464H474.638V58.4076H468.507V2.23464ZM511.733 26.4156L537.092 3.13964V19.4936L536.815 19.7496L537.092 20.0016V40.7306L536.815 40.9826L537.092 41.2376V58.3936H476.891L502.182 35.1796L506.422 39.0696L515.014 31.1866L523.608 39.0696L533.159 30.3066L523.608 21.5436L515.014 29.4266L511.733 26.4156ZM538.51 21.2906L548.482 30.3696L538.51 39.4426V21.2906ZM516.058 30.3066L523.608 23.3816L531.156 30.3066L523.608 37.2306L516.058 30.3066ZM498.9 30.3316L498.927 30.3066L498.9 30.2816L506.422 23.3816L509.729 26.4156L502.182 33.3416L498.9 30.3316ZM481.826 30.3066L489.375 23.3816L496.896 30.2816L496.869 30.3066L496.896 30.3316L489.375 37.2306L481.826 30.3066ZM503.184 34.2606L510.731 27.3346L513.971 30.3066L506.422 37.2306L503.184 34.2606ZM631.089 28.6996L615.429 14.3266L615.439 43.1356L599.732 28.7756V28.8086L589.756 19.7276L601.434 8.97064L592.59 0.91964H582.924L591.8 8.99864L580.122 19.7476L591.78 30.3696L580.122 40.9826L591.8 51.7406L583.051 59.6946H592.718L599.732 53.3116V59.6936H633.548L617.873 45.3616H649.242L633.587 30.9926H664.566V34.6686H791.172V26.4546H664.566V30.7246L631.151 0.0136414L631.089 28.6996ZM593.806 51.7476L582.128 40.9886L593.79 30.3696L582.128 19.7436L593.806 8.99364L586.364 2.22064H592.007L599.428 8.97664L587.75 19.7336L599.435 30.3696L587.75 41.0066L599.428 51.7566L592.134 58.3946H586.494L593.806 51.7476ZM632.562 3.14764L661.441 29.6926H632.503L632.562 3.14764ZM616.846 17.4666L631.085 30.5346L631.084 30.9926H631.585L645.821 44.0606H616.855L616.846 17.4666ZM665.981 27.7546H789.756V33.3676H665.981V27.7546ZM601.148 52.0226L601.434 51.7626L601.148 51.4996V31.9066L615.44 44.9716V45.3616H615.865L630.119 58.3926H601.148V52.0226ZM589.756 41.0126L599.732 31.9296V50.1956L589.756 41.0126ZM852.925 0.909641H852.376V1.41364L826.015 25.6086L821.707 21.6576L813.183 29.4746L804.66 21.6576L795.108 30.4186L804.66 39.1816L813.183 31.3626L816.465 34.3736L791.172 57.5876V51.5116H664.566V59.7906H788.773L788.754 59.8066H853.793V59.7916H916.53V0.909641H853.793V0.11364L852.925 0.909641ZM853.793 2.21064H915.112V33.2276L908.298 26.9146L914.173 21.4926L909.406 21.4736L907.556 23.2436V20.9216L914.184 14.7926L909.406 14.7836L907.556 16.5536V14.7916H904.651V16.8116L902.458 14.7806L897.865 14.8736L904.651 21.1436V23.5056L902.453 21.4746H897.786L903.666 26.9206L895.304 34.6116L886.989 26.9146L892.863 21.4926L888.097 21.4736L886.246 23.2436V20.9216L892.873 14.7926L888.097 14.7836L886.246 16.5536V14.7916H883.34V16.8116L881.147 14.7806L876.556 14.8736L883.34 21.1436V23.5056L881.143 21.4746H876.477L882.356 26.9206L873.992 34.6116L865.677 26.9146L871.553 21.4926L866.787 21.4736L864.936 23.2436V20.9216L871.564 14.7926L866.787 14.7836L864.936 16.5536V14.7916H862.029V16.8116L859.837 14.7806L855.247 14.8736L862.029 21.1436V23.5056L859.832 21.4746H855.167L861.045 26.9206L853.793 33.5906V2.21064ZM827.016 26.5286L852.376 3.25364V58.5056H792.174L817.468 35.2926L821.707 39.1816L830.299 31.2996L838.89 39.1816L848.443 30.4186L838.89 21.6576L830.299 29.5376L827.016 26.5286ZM909.754 15.5336L912.215 15.5396L906.739 20.6146V25.1086L909.754 22.2256L912.21 22.2356L907.15 26.9156L915.112 34.2946V36.4816L905.98 28.0576L895.277 37.8336L886.762 29.9776L884.669 28.0576L873.966 37.8336L863.36 28.0576L853.793 36.7936V34.6526L862.198 26.9226L857.126 22.2246H859.492L862.846 25.3226V20.8346L857.168 15.5856L859.504 15.5386L862.846 18.6336V15.5406H864.12V18.4196L867.134 15.5336L869.595 15.5396L864.12 20.6146V25.1086L867.134 22.2256L869.589 22.2356L864.529 26.9156L873.99 35.6736L883.508 26.9226L878.437 22.2246H880.802L884.156 25.3226V20.8346L878.477 15.5856L880.813 15.5386L884.156 18.6336V15.5406H885.43V18.4196L888.444 15.5336L890.905 15.5396L885.43 20.6146V25.1086L888.444 22.2256L890.898 22.2356L885.84 26.9156L895.302 35.6736L904.817 26.9226L899.746 22.2246H902.112L905.468 25.3226V20.8346L899.787 15.5856L902.126 15.5386L905.468 18.6336V15.5406H906.739V18.4196L909.754 15.5336ZM831.341 30.4186L838.89 23.4956L846.44 30.4186L838.89 37.3436L831.341 30.4186ZM814.186 30.4436L814.212 30.4186L814.186 30.3936L821.707 23.4956L825.014 26.5286L817.466 33.4536L814.186 30.4436ZM797.111 30.4186L804.66 23.4956L812.181 30.3936L812.155 30.4186L812.181 30.4436L804.66 37.3436L797.111 30.4186ZM818.469 34.3726L826.015 27.4476L829.255 30.4186L821.707 37.3436L818.469 34.3726ZM905.976 29.1166L915.112 37.5476V39.5876L905.996 31.1396L902.794 34.1026C902.288 34.5696 901.785 35.0346 901.286 35.5026L895.354 41.0166L884.686 31.1386L874.043 41.0176L872.817 39.8876L872.823 39.8796L863.375 31.1386L853.793 40.0356V37.8486L863.356 29.1166L873.966 38.8926L884.667 29.1166L895.276 38.8926L905.976 29.1166ZM901.871 36.0286C902.368 35.5606 902.87 35.0966 903.375 34.6306L905.996 32.2046L915.112 40.6536V42.8396L905.979 34.3986L896.166 43.4946L895.337 44.2536L884.667 34.3986L874.854 43.4946L874.027 44.2536L863.357 34.3986L853.793 43.2626V41.1026L863.376 32.2056L874.045 42.0816L884.687 32.2056L895.354 42.0826L901.871 36.0286ZM905.98 35.4626L915.112 43.9046V58.4896H853.793V44.3186L863.358 35.4626L874.025 45.3166L884.668 35.4626L895.334 45.3166L905.98 35.4626ZM665.981 52.8126H789.756V58.4886H665.981V52.8126ZM-276.641 0.909641H-277.19V1.41364L-303.55 25.6086L-307.859 21.6576L-316.382 29.4746L-324.906 21.6576L-334.457 30.4186L-324.906 39.1816L-316.382 31.3626L-313.1 34.3736L-338.394 57.5876V51.5116H-465V59.7906H-340.792L-340.81 59.8066H-275.772V59.7916H-213.036V0.909641H-275.772V0.11364L-276.641 0.909641ZM-275.772 2.21064H-214.452V33.2276L-221.266 26.9146L-215.393 21.4926L-220.158 21.4736L-222.009 23.2436V20.9216L-215.382 14.7926L-220.158 14.7836L-222.009 16.5536V14.7916H-224.914V16.8116L-227.107 14.7806L-231.7 14.8736L-224.914 21.1436V23.5056L-227.113 21.4746H-231.779L-225.9 26.9206L-234.261 34.6116L-242.577 26.9146L-236.702 21.4926L-241.468 21.4736L-243.319 23.2436V20.9216L-236.691 14.7926L-241.468 14.7836L-243.319 16.5536V14.7916H-246.226V16.8116L-248.419 14.7806L-253.009 14.8736L-246.226 21.1436V23.5056L-248.422 21.4746H-253.088L-247.21 26.9206L-255.573 34.6116L-263.889 26.9146L-258.014 21.4926L-262.778 21.4736L-264.628 23.2436V20.9216L-258.001 14.7926L-262.778 14.7836L-264.628 16.5536V14.7916H-267.536V16.8116L-269.728 14.7806L-274.319 14.8736L-267.536 21.1436V23.5056L-269.734 21.4746H-274.399L-268.52 26.9206L-275.772 33.5906V2.21064ZM-302.548 26.5286L-277.19 3.25364V58.5056H-337.39L-312.098 35.2926L-307.859 39.1816L-299.267 31.2996L-290.674 39.1816L-281.122 30.4186L-290.674 21.6576L-299.267 29.5376L-302.548 26.5286ZM-219.811 15.5336L-217.35 15.5396L-222.825 20.6146V25.1086L-219.812 22.2256L-217.356 22.2356L-222.415 26.9156L-214.452 34.2946V36.4816L-223.586 28.0576L-234.289 37.8336L-242.804 29.9776L-244.896 28.0576L-255.598 37.8336L-266.206 28.0576L-275.772 36.7946V34.6526L-267.368 26.9226L-272.439 22.2246H-270.074L-266.718 25.3226V20.8346L-272.398 15.5856L-270.062 15.5386L-266.718 18.6336V15.5406H-265.446V18.4196L-262.431 15.5336L-259.971 15.5396L-265.446 20.6146V25.1086L-262.432 22.2256L-259.977 22.2356L-265.037 26.9156L-255.575 35.6736L-246.057 26.9226L-251.129 22.2246H-248.762L-245.409 25.3226V20.8346L-251.089 15.5856L-248.753 15.5386L-245.409 18.6336V15.5406H-244.136V18.4196L-241.121 15.5336L-238.661 15.5396L-244.136 20.6146V25.1086L-241.121 22.2256L-238.667 22.2356L-243.725 26.9156L-234.264 35.6736L-224.747 26.9226L-229.819 22.2246H-227.453L-224.098 25.3226V20.8346L-229.778 15.5856L-227.44 15.5386L-224.098 18.6336V15.5406H-222.825V18.4196L-219.811 15.5336ZM-298.224 30.4186L-290.674 23.4956L-283.125 30.4186L-290.674 37.3436L-298.224 30.4186ZM-315.38 30.4436L-315.354 30.4186L-315.38 30.3936L-307.859 23.4956L-304.552 26.5286L-312.099 33.4536L-315.38 30.4436ZM-332.454 30.4186L-324.906 23.4956L-317.384 30.3936L-317.411 30.4186L-317.384 30.4436L-324.906 37.3436L-332.454 30.4186ZM-311.097 34.3726L-303.55 27.4476L-300.31 30.4186L-307.859 37.3436L-311.097 34.3726ZM-223.588 29.1166L-214.452 37.5476V39.5876L-223.57 31.1396L-226.758 34.0896C-227.268 34.5606 -227.776 35.0316 -228.278 35.5026L-234.21 41.0166L-244.879 31.1386L-255.523 41.0176L-256.738 39.8986L-256.73 39.8896L-266.191 31.1386L-275.772 40.0356V37.8496L-266.208 29.1166L-255.599 38.8926L-244.899 29.1166L-234.29 38.8926L-223.588 29.1166ZM-227.695 36.0286C-227.192 35.5566 -226.686 35.0876 -226.178 34.6186L-223.57 32.2046L-214.452 40.6536V42.8396L-223.587 34.3986L-233.4 43.4946L-234.229 44.2536L-244.899 34.3986L-254.711 43.4946L-255.538 44.2536L-266.208 34.3986L-275.772 43.2626V41.1026L-266.19 32.2056L-255.521 42.0816L-244.879 32.2056L-234.21 42.0826L-227.695 36.0286ZM-223.586 35.4626L-214.452 43.9046V58.4896H-275.772V44.3186L-266.207 35.4626L-255.54 45.3166L-244.898 35.4626L-234.231 45.3166L-223.586 35.4626ZM-463.584 52.8126H-339.809V58.4886H-463.584V52.8126ZM225.504 0.916641H224.09H161.466V1.01764H98.5314V9.23064H161.466V13.6406H98.5314V21.8556H161.466V26.5086H98.5314V27.1896C97.4778 23.6166 93.2787 21.2496 89.4533 21.2496H80.3806L92.4409 12.8366V11.3126L92.0432 10.9496C88.7636 7.93764 83.5533 7.57064 79.936 10.0856C78.4673 11.0486 75.2891 13.4076 73.22 14.9586V14.7796C73.22 12.0596 71.5574 3.97964 68.9337 1.39664L68.548 1.01764H67.2166L66.8265 1.43464C64.3292 4.09764 62.5773 11.6836 62.5773 14.7796V14.9966C60.4177 13.4066 57.2047 11.0456 55.8895 10.1046C52.2493 7.57564 47.0314 7.93764 43.7541 10.9486L43.3564 11.3136V12.8366L55.4166 21.2496H46.3428C42.6623 21.2496 38.498 23.6166 37.3279 27.1836V0.941639H-26.7544V0.943642H-62.6683V0.93964H-126.705V0.943642H-151.912H-151.997V59.7716H-151.912V59.7766H-25.1004V59.7566H37.3279V29.7326L37.9489 30.3446H54.253C52.4117 31.9966 49.5331 34.5746 48.5742 35.4026C46.5618 37.3826 45.4069 39.9046 45.4069 42.3246C45.4069 43.8726 45.9561 45.7446 46.8767 47.3316L47.2504 47.9736H48.7431L62.3898 35.3546V55.8036L67.7439 59.5436L73.4063 55.1706V35.3546L87.0541 47.9736H88.5468L88.9205 47.3306C89.8401 45.7446 90.3882 43.8736 90.3882 42.3246C90.3882 39.6676 89.255 37.2016 87.223 35.4026C86.3198 34.5136 83.683 32.1736 81.602 30.3446H97.8472L98.5314 29.6706V34.7236H161.466V39.1336H98.5314V47.3486H161.466V51.5676H98.5314V59.7916H162.57V59.6846H224.09H224.383H225.504H286.863H288.266H349.273V59.7246H413.31V59.7086H420.879V0.93364H411.906V0.951641H349.273H313.195V0.917641H288.266L225.504 0.916641ZM202.001 27.7536L195.106 21.2616L209.07 21.2416L202.514 15.1076L215.938 15.0926L208.987 8.64364L222.953 8.63564L215.959 2.21764H224.088V58.3846H215.812L222.961 51.8546L209.024 51.8636L215.979 45.4646L202.075 45.4336L208.784 39.2456L194.969 39.2646L201.868 32.7756H184.762L191.659 39.2696L177.695 39.2896L184.25 45.4236L171.08 45.4406L178.027 51.8876L164.027 51.8956L171.097 58.3846H162.883V2.21764H171.09L164.019 8.67664L177.99 8.66764L171.035 15.0666L184.69 15.0976L177.983 21.2876L191.793 21.2666L184.895 27.7536H202.001ZM173.099 2.21864H213.957L219.535 7.33664L205.597 7.34464L212.549 13.7956L199.146 13.8116L205.705 19.9486L193.728 19.9646L193.453 19.7066L193.177 19.9656L181.393 19.9826L188.089 13.8046L174.44 13.7736L181.405 7.36564L167.454 7.37464L173.099 2.21864ZM413.322 2.23464H419.462V58.4076H413.322V2.23464ZM-25.1004 2.24164H35.9114V58.4546H-25.1004V2.24164ZM-87.7085 25.1606H-75.183V13.6936H-62.6683V2.24564H-26.7544V46.9886H-37.6314V35.4896H-50.1613V23.9886H-64.0924V35.4896H-76.6223V46.9886H-87.7085V25.1606ZM-87.7085 2.24564H-64.0847V12.3926H-76.5983V23.8596H-87.7085V2.24564ZM-125.288 2.24564H-89.1249V23.8596H-89.1304V35.3236H-100.229V23.8596H-112.757V12.3926H-125.288V2.24564ZM-150.496 2.24564H-126.705V13.6936H-114.175V25.1606H-101.644V36.6256H-89.1249V46.9886H-89.138V58.4706H-150.496V2.24564ZM350.733 2.25164H411.894V58.4246H350.733V2.25164ZM288.266 36.7276V25.2806H300.737V13.8346H313.195V2.25264H349.273V46.9516H338.136V35.5046H325.665V24.0596H311.792V35.5046H299.32V46.9516H288.266V36.7276ZM288.266 2.25264H311.778V12.5336H299.321V23.9806H288.266V2.25264ZM250.866 2.25264H286.85V23.9806V35.4266H275.809V23.9806H263.338V12.5336H250.866V2.25264ZM225.798 2.25264H249.45V13.8346H261.922V25.2806H274.392V36.7276H286.85V58.3846H225.798V2.25264ZM99.9479 2.31864H161.154V7.93064H99.9479V2.31864ZM63.9926 14.7796C63.9926 12.0146 65.6661 4.71964 67.867 2.31864H67.9324C70.1703 4.58264 71.8036 12.2116 71.8036 14.7796V17.7076L72.9618 16.8346C74.7225 15.5056 79.0099 12.2916 80.7761 11.1326C83.8388 9.00064 88.2406 9.31164 91.0255 11.8536V12.1916L76.1771 22.5506H89.4533C93.1938 22.5506 97.3613 25.1606 97.37 28.9076L97.2316 29.0436H78.0718L79.3488 30.1646C81.4396 31.9956 85.1082 35.2276 86.2141 36.3146C87.9933 37.8896 88.9728 40.0236 88.9728 42.3246C88.9728 43.6566 88.4956 45.2776 87.6981 46.6726L71.991 32.1996V54.5646L67.6981 57.8796L63.8063 55.1586V32.1996L48.1537 46.6726H48.0981C47.2995 45.2766 46.8233 43.6556 46.8233 42.3246C46.8233 40.2306 47.8388 38.0316 49.5756 36.3206C50.7817 35.2816 55.1694 31.3416 56.4855 30.1586L57.7244 29.0436H38.5645L38.4261 28.9086C38.6244 25.1606 42.7549 22.5506 46.3428 22.5506H59.6202L44.7717 12.1916V11.8526C47.5533 9.31064 51.9595 9.00264 55.0266 11.1356C56.5956 12.2586 60.9058 15.4326 62.842 16.8576L63.9926 17.7066V14.7796ZM99.9479 14.9416H161.154V20.5546H99.9479V14.9416ZM193.451 21.5676L198.642 26.4536H188.256L193.451 21.5676ZM-87.7085 48.2906H-75.2058V36.7896H-62.676V25.2886H-51.5767V36.7896H-39.0479V48.2906H-26.7544V58.4756H-87.7085V48.2906ZM288.28 48.2536H300.737V36.8056H313.209V25.3596H324.249V36.8056H336.719V48.2536H349.273V58.3846H288.28V48.2536ZM99.9479 27.8096H161.154V33.4226H99.9479V27.8096ZM188.121 34.0776H198.508L193.312 38.9626L188.121 34.0776ZM99.9479 40.4346H161.154V46.0476H99.9479V40.4346ZM193.585 40.5646L205.372 40.5486L198.676 46.7266L212.574 46.7566L205.609 53.1666L219.528 53.1576L213.805 58.3836H173.1L167.445 53.1946L181.417 53.1866L174.466 46.7346L187.619 46.7186L181.062 40.5816L193.036 40.5656L193.311 40.8236L193.585 40.5646ZM99.9479 52.8696H161.154V58.4896H99.9479V52.8696ZM561.277 0.91964L570.145 8.99764L558.467 19.7496L570.133 30.3696L558.467 40.9826L570.145 51.7406L561.405 59.6946H571.062L579.779 51.7626L568.1 41.0126L579.799 30.3696L568.1 19.7276L579.779 8.97064L570.934 0.91964H561.277ZM572.15 51.7476L560.473 40.9886L572.145 30.3696L560.473 19.7426L572.15 8.99464L564.714 2.22064H570.352L577.773 8.97664L566.095 19.7336L577.787 30.3696L566.095 41.0066L577.773 51.7566L570.479 58.3946H564.845L572.15 51.7476ZM453.312 59.7086H462.275V0.93364H453.312V59.7086ZM454.728 2.23464H460.859V58.4076H454.728V2.23464ZM439.267 59.7086H448.23V0.93364H439.267V59.7086ZM440.684 2.23464H446.815V58.4076H440.684V2.23464ZM425.488 59.7086H434.451V0.93364H425.488V59.7086ZM426.904 2.23464H433.035V58.4076H426.904V2.23464ZM664.566 9.17564H791.172V0.961639H664.566V9.17564ZM665.981 2.26164H789.756V7.87464H665.981V2.26164ZM-465 9.17564H-338.394V0.961639H-465V9.17564ZM-463.584 2.26164H-339.809V7.87464H-463.584V2.26164ZM941.548 3.01964L941.246 3.32264C939.979 4.58164 939.125 7.77664 938.967 9.50564C937.896 8.77164 936.581 7.87264 935.992 7.47864C933.978 6.17264 931.09 6.36064 929.282 7.91164L928.953 8.18964V9.26264L934.429 12.8246H930.846C928.445 12.8246 925.788 14.4346 925.656 16.8296L925.634 17.2436L926.35 17.9036H934.029C933.125 18.6586 932.164 19.4576 931.772 19.7746C930.658 20.7966 930.019 22.1086 930.019 23.3726C930.019 24.1826 930.323 25.1546 930.831 25.9736L931.126 26.4466H932.219L938.843 20.7336V36.3216L941.974 38.3626L945.247 36.0056V20.7336L951.871 26.4466H952.964L953.259 25.9736C953.767 25.1536 954.072 24.1826 954.072 23.3726C954.072 21.9836 953.439 20.6976 952.318 19.7756C951.954 19.4376 951.058 18.6896 950.103 17.9036H957.739L958.435 17.2636V16.8766C958.435 14.4886 955.699 12.8246 953.246 12.8246H949.662L955.137 9.26264V8.18964L954.814 7.91664C953 6.35964 950.115 6.17064 948.12 7.46464C947.464 7.86664 946.157 8.76464 945.117 9.48864C944.95 7.89864 944.167 4.53464 942.815 3.29364L942.517 3.01964H941.548ZM940.356 10.0236C940.356 8.80564 941.104 5.76364 942.053 4.47964C943.022 5.74264 943.735 8.93864 943.735 10.0236V12.0946L944.874 11.2926C945.786 10.6506 948.007 9.09664 948.922 8.53764C950.307 7.63864 952.259 7.71064 953.598 8.67164L945.216 14.1266H953.246C954.922 14.1266 956.785 15.1676 956.998 16.6026H946.388L947.778 17.7376C949.654 19.2716 950.911 20.3206 951.344 20.7176C952.189 21.4156 952.655 22.3586 952.655 23.3726C952.655 23.8496 952.496 24.4346 952.228 24.9706L943.831 17.7286V35.3736L941.932 36.7416L940.259 35.6506V17.7286L931.861 24.9706C931.595 24.4346 931.435 23.8486 931.435 23.3726C931.435 22.4516 931.923 21.4746 932.74 20.7226C933.319 20.2566 935.323 18.5816 936.335 17.7336L937.685 16.6026H927.109C927.404 15.1666 929.243 14.1266 930.846 14.1266H938.875L930.491 8.67164C931.829 7.71064 933.785 7.64064 935.167 8.53564C935.981 9.07864 938.219 10.6156 939.224 11.3066L940.356 12.0856V10.0236ZM-188.016 3.01964L-188.319 3.32264C-189.585 4.58164 -190.441 7.77664 -190.599 9.50564C-191.67 8.77164 -192.985 7.87164 -193.574 7.47864C-195.588 6.17264 -198.475 6.36064 -200.284 7.91164L-200.613 8.18964V9.26264L-195.137 12.8246H-198.72C-201.12 12.8246 -203.778 14.4346 -203.908 16.8266L-203.931 17.2426L-203.215 17.9036H-195.535C-196.441 18.6586 -197.402 19.4576 -197.793 19.7746C-198.908 20.7966 -199.546 22.1086 -199.546 23.3726C-199.546 24.1826 -199.242 25.1546 -198.733 25.9736L-198.439 26.4466H-197.345L-190.722 20.7336V36.3216L-187.591 38.3626L-184.317 36.0056V20.7336L-177.695 26.4466H-176.601L-176.306 25.9736C-175.798 25.1536 -175.494 24.1826 -175.494 23.3726C-175.494 21.9836 -176.127 20.6976 -177.247 19.7756C-177.612 19.4376 -178.508 18.6896 -179.462 17.9036H-171.824L-171.13 17.2636V16.8766C-171.13 14.4886 -173.865 12.8246 -176.32 12.8246H-179.904L-174.427 9.26264V8.18764L-174.752 7.91664C-176.565 6.35964 -179.449 6.17064 -181.444 7.46464C-182.101 7.86664 -183.409 8.76464 -184.449 9.48864C-184.616 7.89864 -185.399 4.53464 -186.749 3.29364L-187.049 3.01964H-188.016ZM-189.209 10.0236C-189.209 8.80564 -188.462 5.76364 -187.513 4.47964C-186.543 5.74264 -185.831 8.93864 -185.831 10.0236V12.0946L-184.692 11.2926C-183.779 10.6506 -181.559 9.09664 -180.642 8.53764C-179.258 7.64064 -177.308 7.71064 -175.967 8.67164L-184.35 14.1266H-176.32C-174.644 14.1266 -172.781 15.1676 -172.568 16.6026H-183.177L-181.787 17.7376C-179.911 19.2716 -178.655 20.3206 -178.221 20.7176C-177.376 21.4156 -176.91 22.3586 -176.91 23.3726C-176.91 23.8496 -177.07 24.4346 -177.336 24.9706L-185.734 17.7286V35.3736L-187.633 36.7416L-189.306 35.6506V17.7286L-197.702 24.9706C-197.971 24.4346 -198.13 23.8496 -198.13 23.3726C-198.13 22.4516 -197.643 21.4746 -196.825 20.7226C-196.246 20.2566 -194.243 18.5816 -193.231 17.7336L-191.88 16.6026H-202.456C-202.162 15.1666 -200.323 14.1266 -198.72 14.1266H-190.691L-199.073 8.67164C-197.735 7.70964 -195.78 7.64064 -194.398 8.53564C-193.584 9.07864 -191.347 10.6156 -190.343 11.3066L-189.209 12.0856V10.0236ZM-11.1519 11.8546L-18.391 16.7356C-20.2988 18.0206 -20.7934 20.4626 -19.5175 22.2936L-1.80792 47.7096C-0.970062 48.9116 0.463806 49.6016 1.95758 49.6016C2.41846 49.6016 2.88589 49.5356 3.34241 49.3986L28.4828 41.8746C29.8698 41.4596 30.8014 40.2816 30.8014 38.9406V36.1286C30.8014 34.4276 29.2946 33.0436 27.4412 33.0436H24.299L-5.38165 11.9216C-6.24023 11.3126 -7.27859 11.0056 -8.31802 11.0056C-9.31497 11.0056 -10.3119 11.2876 -11.1519 11.8546ZM-0.61377 47.0086L-18.3245 21.5936C-19.1994 20.3376 -18.8605 18.6636 -17.5531 17.7816L-10.313 12.9016C-9.72137 12.5016 -9.01859 12.3036 -8.31693 12.3036C-7.58475 12.3036 -6.85364 12.5196 -6.25003 12.9486L23.6223 34.2066L23.8141 34.3436H27.4412C28.5122 34.3436 29.385 35.1446 29.385 36.1286V38.9406C29.385 39.7156 28.8457 40.3976 28.0427 40.6376L2.90332 48.1636C2.59064 48.2576 2.27139 48.3026 1.95541 48.3026C0.935608 48.3026 -0.0428162 47.8306 -0.61377 47.0086ZM664.566 21.7996H791.172V13.5866H664.566V21.7996ZM665.981 14.8866H789.756V20.4986H665.981V14.8866ZM-465 21.7996H-338.394V13.5866H-465V21.7996ZM-463.584 14.8866H-339.809V20.4986H-463.584V14.8866ZM375.84 39.9176L355.66 29.2596L372.933 51.4656C373.509 52.2066 374.408 52.6466 375.4 52.6746C375.431 52.6756 375.465 52.6756 375.498 52.6756C376.451 52.6756 377.337 52.2886 377.943 51.6026L408.825 16.1526L375.84 39.9176ZM400.088 24.1006L376.84 50.7876C376.496 51.1766 375.993 51.3856 375.442 51.3756C374.897 51.3596 374.403 51.1176 374.086 50.7106L360.594 33.3656L375.962 41.4826L400.088 24.1006ZM942.016 42.0206L921.835 31.3606L939.109 53.5686C939.685 54.3086 940.584 54.7506 941.576 54.7776C941.608 54.7786 941.641 54.7786 941.675 54.7786C942.627 54.7786 943.512 54.3916 944.119 53.7066L975 18.2556L942.016 42.0206ZM966.264 26.2036L943.016 52.8906C942.672 53.2786 942.172 53.4926 941.617 53.4776C941.073 53.4626 940.578 53.2206 940.263 52.8126L926.771 35.4676L942.138 43.5846L966.264 26.2036ZM-187.55 42.0206L-207.731 31.3606L-190.456 53.5686C-189.879 54.3086 -188.982 54.7506 -187.99 54.7776C-187.957 54.7786 -187.925 54.7786 -187.891 54.7786C-186.938 54.7786 -186.053 54.3916 -185.446 53.7066L-154.565 18.2556L-187.55 42.0206ZM-163.302 26.2036L-186.55 52.8906C-186.894 53.2786 -187.395 53.4926 -187.947 53.4776C-188.492 53.4626 -188.986 53.2206 -189.303 52.8126L-202.795 35.4676L-187.427 43.5846L-163.302 26.2036ZM-465 34.6686H-338.394V26.4546H-465V34.6686ZM-463.584 27.7546H-339.809V33.3676H-463.584V27.7546ZM664.566 47.2936H791.172V39.0786H664.566V47.2936ZM665.981 40.3806H789.756V45.9936H665.981V40.3806ZM-465 47.2936H-338.394V39.0786H-465V47.2936ZM-463.584 40.3806H-339.809V45.9936H-463.584V40.3806Z" fill="white"/></mask><g mask="url(#mask0_325_36134)"><rect x="-465" width="1440.39" height="61" fill="url(#paint0_linear_325_36134)"/></g><defs><linearGradient id="paint0_linear_325_36134" x1="-465" y1="30.5" x2="975.393" y2="30.5" gradientUnits="userSpaceOnUse"><stop stop-color="white" stop-opacity="0.31"/><stop offset="1" stop-color="#279362" stop-opacity="0.42"/></linearGradient></defs></svg>