<svg width="29" height="28" fill="none" xmlns="http://www.w3.org/2000/svg"><path d="M14.0508 1.84668C14.5175 1.37741 15.1671 1.44043 15.4902 1.49707C15.8872 1.56668 16.3146 1.72426 16.7002 1.89258C17.482 2.23388 18.2863 2.70816 18.7158 2.97266C19.8324 3.66032 20.042 4.95275 20.042 5.8125C20.042 6.29563 19.6501 6.68734 19.167 6.6875H15.375V7.51172C15.3921 7.52006 15.4099 7.52756 15.4268 7.53613C15.6648 7.65728 15.9283 7.82921 16.207 8.01074C16.2175 8.01758 16.2287 8.02439 16.2393 8.03125L18.7002 9.63379C19.1966 9.95694 19.6197 10.2323 19.9502 10.4951C20.3024 10.7753 20.6004 11.0791 20.8184 11.4834C21.0361 11.8873 21.1269 12.3043 21.1689 12.7539C21.2084 13.1766 21.208 13.6849 21.208 14.2832V15.7012C21.5678 15.8205 21.9098 15.9368 22.2148 16.0576C22.6909 16.2462 23.1551 16.4736 23.5488 16.8076C24.4086 17.5374 24.709 18.5739 24.709 20.0225V24.792H26.167C26.6501 24.7922 27.042 25.1839 27.042 25.667C27.0418 26.1499 26.6499 26.5418 26.167 26.542H2.83301C2.35006 26.5418 1.95825 26.1499 1.95801 25.667C1.95801 25.1839 2.34991 24.7922 2.83301 24.792H4.29199V20.0225C4.292 18.5739 4.59139 17.5374 5.45117 16.8076C5.84504 16.4734 6.30987 16.2462 6.78613 16.0576C7.09108 15.9369 7.43237 15.8205 7.79199 15.7012V14.2832C7.79197 13.6849 7.79156 13.1766 7.83105 12.7539C7.87308 12.3043 7.9639 11.8873 8.18164 11.4834C8.39962 11.0791 8.69758 10.7753 9.0498 10.4951C9.38031 10.2323 9.80342 9.95694 10.2998 9.63379C10.3106 9.62677 10.3212 9.61937 10.332 9.61231L12.7607 8.03125C12.7713 8.02439 12.7825 8.01758 12.793 8.01074C13.0717 7.82921 13.3352 7.65728 13.5732 7.53613C13.5901 7.52756 13.6079 7.52006 13.625 7.51172V3.42481C13.6249 3.18393 13.625 2.924 13.6543 2.70508C13.6885 2.44927 13.7768 2.12233 14.0508 1.84668ZM7.43066 17.6846C7.02594 17.8449 6.7653 17.9887 6.58398 18.1426C6.29333 18.3893 6.042 18.7975 6.04199 20.0225V24.792H7.79199V17.5518C7.66534 17.5967 7.545 17.6393 7.43066 17.6846ZM14.4873 9.04492C14.4693 9.05011 14.4322 9.06266 14.3672 9.0957C14.2224 9.16935 14.0377 9.28848 13.7158 9.49805L11.2871 11.0791C10.7493 11.4292 10.3974 11.6602 10.1396 11.8652C9.89663 12.0585 9.78995 12.1896 9.72266 12.3145C9.65508 12.4398 9.60256 12.6032 9.57324 12.917C9.54227 13.2486 9.54199 13.6744 9.54199 14.3213V24.792H11.292V22.1143C11.2919 21.6093 11.2912 21.1461 11.3418 20.7695C11.3976 20.355 11.5294 19.9171 11.8896 19.5566C12.2502 19.1961 12.6888 19.0645 13.1035 19.0088C13.4801 18.9582 13.9434 18.958 14.4482 18.958H14.5518C15.0566 18.958 15.5199 18.9582 15.8965 19.0088C16.3112 19.0645 16.7498 19.1961 17.1104 19.5566C17.4707 19.9171 17.6024 20.355 17.6582 20.7695C17.7088 21.1461 17.7081 21.6093 17.708 22.1143V24.792H19.458V14.3213C19.458 13.6744 19.4577 13.2486 19.4268 12.917C19.3974 12.6032 19.3449 12.4398 19.2773 12.3145C19.2101 12.1896 19.1034 12.0585 18.8604 11.8652C18.6026 11.6602 18.2507 11.4292 17.7129 11.0791L15.2842 9.49805C14.9623 9.28848 14.7776 9.16935 14.6328 9.0957C14.5679 9.06266 14.5307 9.05011 14.5127 9.04492C14.5046 9.0426 14.5007 9.04209 14.5 9.04199C14.499 9.04215 14.4949 9.04274 14.4873 9.04492ZM21.208 24.792H22.959V20.0225C22.959 18.7981 22.7075 18.3893 22.417 18.1426C22.2357 17.9887 21.9749 17.8448 21.5703 17.6846C21.4558 17.6392 21.3349 17.5968 21.208 17.5518V24.792ZM14.5 20.708C13.9256 20.708 13.5827 20.7102 13.3369 20.7432C13.2243 20.7583 13.167 20.7757 13.1416 20.7861C13.1358 20.7885 13.1321 20.7908 13.1299 20.792L13.127 20.7939L13.126 20.7969C13.1248 20.7991 13.1225 20.8028 13.1201 20.8086C13.1097 20.834 13.0913 20.8903 13.0762 21.0029C13.0431 21.2488 13.042 21.5923 13.042 22.167V24.792H15.958V22.167C15.958 21.5923 15.9569 21.2488 15.9238 21.0029C15.9087 20.8903 15.8903 20.834 15.8799 20.8086C15.8775 20.8028 15.8752 20.7991 15.874 20.7969L15.873 20.7939L15.8701 20.792C15.8679 20.7908 15.8642 20.7885 15.8584 20.7861C15.833 20.7757 15.7757 20.7583 15.6631 20.7432C15.4173 20.7102 15.0743 20.708 14.5 20.708ZM14.5107 14C15.155 14.0001 15.6768 14.5227 15.6768 15.167C15.6765 15.811 15.1548 16.3329 14.5107 16.333H14.5C13.8558 16.333 13.3333 15.8111 13.333 15.167C13.333 14.5227 13.8557 14 14.5 14H14.5107ZM15.375 4.9375H18.1572C18.0717 4.71393 17.9483 4.55555 17.7979 4.46289C17.3872 4.21001 16.6669 3.78721 16 3.4961C15.7582 3.39057 15.5467 3.31286 15.375 3.26465V4.9375Z" fill="#161616"/></svg>