<svg width="20" height="20" fill="none" xmlns="http://www.w3.org/2000/svg"><path d="M4.37376 5.79047C4.4607 5.69264 4.57103 5.53905 4.67255 5.39767L4.69628 5.36462C4.74089 5.30247 4.78671 5.23864 4.83335 5.17459V8C4.83335 8.27614 5.05721 8.5 5.33335 8.5C5.60949 8.5 5.83335 8.27614 5.83335 8V5.17459C5.88 5.23865 5.9258 5.30246 5.97042 5.36462L5.99415 5.39767C6.09567 5.53905 6.206 5.69264 6.29294 5.79047C6.47637 5.99688 6.79241 6.01551 6.99882 5.83208C7.20523 5.64865 7.22386 5.33261 7.04043 5.1262C6.99629 5.07653 6.9211 4.97409 6.8064 4.81437L6.78122 4.77929C6.67996 4.6382 6.56035 4.47153 6.43702 4.31233C6.30521 4.14219 6.15517 3.96211 6.00318 3.82053C5.92714 3.7497 5.83823 3.67673 5.73969 3.61905C5.646 3.56421 5.50457 3.5 5.33335 3.5C5.16213 3.5 5.0207 3.56421 4.92701 3.61905C4.82847 3.67673 4.73956 3.7497 4.66352 3.82053C4.51153 3.96211 4.36149 4.14219 4.22968 4.31233C4.10635 4.47153 3.98673 4.6382 3.88547 4.7793L3.8603 4.81437C3.7456 4.97409 3.67041 5.07653 3.62627 5.1262C3.44284 5.33261 3.46147 5.64865 3.66788 5.83208C3.87429 6.01551 4.19033 5.99688 4.37376 5.79047Z" fill="#F9FAFB"/><path d="M9.33334 5.5C9.0572 5.5 8.83334 5.72386 8.83334 6C8.83334 6.27614 9.0572 6.5 9.33334 6.5H16C16.2762 6.5 16.5 6.27614 16.5 6C16.5 5.72386 16.2762 5.5 16 5.5H9.33334Z" fill="#F9FAFB"/><path d="M9.33334 8.16667C9.0572 8.16667 8.83334 8.39052 8.83334 8.66667C8.83334 8.94281 9.05719 9.16667 9.33334 9.16667L14 9.1667C14.2761 9.16671 14.5 8.94285 14.5 8.66671C14.5 8.39056 14.2762 8.16671 14 8.1667L9.33334 8.16667Z" fill="#F9FAFB"/><path d="M9.33334 10.8333C9.0572 10.8333 8.83334 11.0572 8.83334 11.3333C8.83334 11.6095 9.0572 11.8333 9.33334 11.8333H12.6667C12.9428 11.8333 13.1667 11.6095 13.1667 11.3333C13.1667 11.0572 12.9428 10.8333 12.6667 10.8333H9.33334Z" fill="#F9FAFB"/><path d="M8.83334 14C8.83334 13.7239 9.0572 13.5 9.33334 13.5H11.3333C11.6095 13.5 11.8333 13.7239 11.8333 14C11.8333 14.2761 11.6095 14.5 11.3333 14.5H9.33334C9.0572 14.5 8.83334 14.2761 8.83334 14Z" fill="#F9FAFB"/><path d="M5.99414 14.6023C6.09566 14.461 6.20599 14.3074 6.29293 14.2095C6.47636 14.0031 6.79239 13.9845 6.99881 14.1679C7.20522 14.3514 7.22385 14.6674 7.04042 14.8738C6.99628 14.9235 6.92109 15.0259 6.80639 15.1856L6.78121 15.2207C6.67996 15.3618 6.56034 15.5285 6.43701 15.6877C6.3052 15.8578 6.15516 16.0379 6.00317 16.1795C5.92713 16.2503 5.83822 16.3233 5.73967 16.381C5.64599 16.4358 5.50456 16.5 5.33334 16.5C5.16211 16.5 5.02069 16.4358 4.927 16.381C4.82846 16.3233 4.73955 16.2503 4.66351 16.1795C4.51152 16.0379 4.36148 15.8578 4.22967 15.6877C4.10634 15.5285 3.98673 15.3618 3.88547 15.2207L3.86029 15.1856C3.74559 15.0259 3.6704 14.9235 3.62626 14.8738C3.44283 14.6674 3.46146 14.3514 3.66787 14.1679C3.87428 13.9845 4.19032 14.0031 4.37375 14.2095C4.46069 14.3074 4.57102 14.461 4.67254 14.6023L4.69627 14.6354C4.74086 14.6975 4.78671 14.7614 4.83334 14.8254L4.83334 12C4.83334 11.7239 5.0572 11.5 5.33334 11.5C5.60948 11.5 5.83334 11.7239 5.83334 12L5.83334 14.8254C5.87991 14.7615 5.92564 14.6978 5.97018 14.6357L5.99414 14.6023Z" fill="#F9FAFB"/></svg>