<svg width="28" height="28" fill="none" xmlns="http://www.w3.org/2000/svg"><path fill-rule="evenodd" clip-rule="evenodd" d="M13.9997 17.9577C16.646 17.9577 18.7913 15.8124 18.7913 13.166V9.83268C18.7913 7.18632 16.646 5.04102 13.9997 5.04102C11.3533 5.04102 9.20801 7.18632 9.20801 9.83268V13.166C9.20801 15.8124 11.3533 17.9577 13.9997 17.9577ZM13.9997 6.29102C12.0437 6.29102 10.458 7.87667 10.458 9.83268V13.166C10.458 15.122 12.0437 16.7077 13.9997 16.7077C15.7424 16.7077 17.1912 15.4489 17.4864 13.791H15.6663C15.3212 13.791 15.0413 13.5112 15.0413 13.166C15.0413 12.8208 15.3212 12.541 15.6663 12.541H17.5413V10.4577H15.6663C15.3212 10.4577 15.0413 10.1779 15.0413 9.83268C15.0413 9.4875 15.3212 9.20768 15.6663 9.20768H17.4864C17.1912 7.54976 15.7424 6.29102 13.9997 6.29102Z" fill="#161616"/><path d="M7.95801 13.166C7.95801 12.8208 7.67819 12.541 7.33301 12.541C6.98783 12.541 6.70801 12.8208 6.70801 13.166C6.70801 16.9826 9.64017 20.1143 13.3747 20.4313V21.7077H11.4997C11.1545 21.7077 10.8747 21.9875 10.8747 22.3327C10.8747 22.6779 11.1545 22.9577 11.4997 22.9577H16.4997C16.8449 22.9577 17.1247 22.6779 17.1247 22.3327C17.1247 21.9875 16.8449 21.7077 16.4997 21.7077H14.6247V20.4313C18.3592 20.1143 21.2913 16.9826 21.2913 13.166C21.2913 12.8208 21.0115 12.541 20.6663 12.541C20.3212 12.541 20.0413 12.8208 20.0413 13.166C20.0413 16.5027 17.3364 19.2077 13.9997 19.2077C10.663 19.2077 7.95801 16.5027 7.95801 13.166Z" fill="#161616"/></svg>