<svg width="16" height="16" fill="none" xmlns="http://www.w3.org/2000/svg"><path fill-rule="evenodd" clip-rule="evenodd" d="M8.72176 1.5L7.2774 1.5H7.27739H7.27738C6.37636 1.49999 5.64387 1.49998 5.05232 1.56768C4.43522 1.63831 3.90338 1.78852 3.43159 2.13386C2.95979 2.4792 2.66072 2.93718 2.41463 3.49837C2.17873 4.03635 1.96827 4.72655 1.70937 5.5756L0.910556 8.19512L0.856798 8.40525L0.856797 8.40525C0.851326 8.42664 0.84859 8.43733 0.847078 8.44824C0.845566 8.45914 0.84529 8.47017 0.844738 8.49222L0.833008 8.96122V8.96123V8.96123C0.833 10.0829 0.832993 10.9714 0.921785 11.6712C1.01303 12.3904 1.20489 12.9783 1.63954 13.458C1.71781 13.5444 1.80089 13.6264 1.88839 13.7037C2.37427 14.1328 2.96971 14.3223 3.69808 14.4123C4.4068 14.5 5.30672 14.5 6.44269 14.5H6.44271H6.44273H6.44276L9.55659 14.5H9.55661H9.55664H9.55666C10.6926 14.5 11.5926 14.5 12.3013 14.4123C13.0296 14.3223 13.6251 14.1328 14.111 13.7037C14.1985 13.6264 14.2815 13.5444 14.3598 13.458C14.7945 12.9783 14.9863 12.3904 15.0776 11.6712C15.1664 10.9715 15.1664 10.0829 15.1663 8.96136V8.96133V8.96131V8.96129L15.1544 8.49214C15.1539 8.47013 15.1536 8.45913 15.1521 8.44824C15.1506 8.43736 15.1478 8.42669 15.1424 8.40534L15.0886 8.19512L14.2898 5.57561C14.0309 4.72655 13.8204 4.03635 13.5845 3.49837C13.3384 2.93718 13.0394 2.4792 12.5676 2.13386C12.0958 1.78852 11.5639 1.63831 10.9468 1.56768C10.3553 1.49998 9.6228 1.49999 8.72178 1.5H8.72177H8.72176ZM13.5868 7.73266L13.0523 5.97995C12.7794 5.08499 12.5898 4.46668 12.3874 4.00519C12.1918 3.55912 12.0103 3.32331 11.7893 3.16156C11.5683 2.99982 11.2866 2.89648 10.796 2.84034C10.2886 2.78226 9.6321 2.78125 8.68232 2.78125H7.31652C6.36675 2.78125 5.71028 2.78226 5.2028 2.84034C4.71229 2.89648 4.43053 2.99982 4.20956 3.16156C3.98859 3.32331 3.80701 3.55912 3.6114 4.00519C3.40903 4.46668 3.21942 5.08498 2.9465 5.97995L2.40881 7.74317C2.3377 7.97636 2.30215 8.09295 2.3622 8.17265C2.42226 8.25234 2.54559 8.25221 2.79224 8.25196L13.2042 8.24146C13.4504 8.24121 13.5735 8.24109 13.6334 8.16144C13.6933 8.08179 13.6578 7.96541 13.5868 7.73266ZM7.99967 11.3333C7.99967 10.9651 8.29815 10.6667 8.66634 10.6667H8.67381C9.042 10.6667 9.34048 10.9651 9.34048 11.3333C9.34048 11.7015 9.042 12 8.67381 12H8.66634C8.29815 12 7.99967 11.7015 7.99967 11.3333ZM11.3255 11.3333C11.3255 10.9651 11.624 10.6667 11.9922 10.6667H11.9997C12.3679 10.6667 12.6663 10.9651 12.6663 11.3333C12.6663 11.7015 12.3679 12 11.9997 12H11.9922C11.624 12 11.3255 11.7015 11.3255 11.3333Z" fill="#384250"/></svg>