<svg width="24" height="24" fill="none" xmlns="http://www.w3.org/2000/svg"><path d="M12.0498 1.25C12.7145 1.24996 13.2874 1.24986 13.7461 1.31153C14.2376 1.37764 14.7086 1.527 15.0908 1.90918C15.473 2.29137 15.6224 2.76236 15.6885 3.25391C15.7501 3.71255 15.75 4.28552 15.75 4.9502V5.04981C15.75 5.71449 15.7501 6.28745 15.6885 6.7461C15.6224 7.23765 15.473 7.70864 15.0908 8.09082C14.7086 8.47301 14.2376 8.62236 13.7461 8.68848C13.4575 8.72728 13.1234 8.73785 12.75 8.74317V9.01758C12.75 9.4854 12.7505 9.79594 12.7695 10.0352C12.7881 10.2678 12.8205 10.3731 12.8525 10.4395C12.9933 10.7306 13.2825 10.9954 13.6914 11.1406C13.8103 11.1828 13.974 11.2153 14.2676 11.2324C14.5659 11.2498 14.9479 11.25 15.5 11.25H15.5225C16.0468 11.25 16.4729 11.2502 16.8203 11.2705C17.1775 11.2914 17.5007 11.3353 17.8105 11.4453C18.545 11.7061 19.1652 12.2193 19.498 12.9082C19.6435 13.2092 19.6997 13.5209 19.7256 13.8457C19.7502 14.1546 19.75 14.5301 19.75 14.9717V15.2559C20.1234 15.2612 20.4575 15.2727 20.7461 15.3115C21.2376 15.3776 21.7086 15.527 22.0908 15.9092C22.473 16.2914 22.6224 16.7624 22.6885 17.2539C22.7501 17.7126 22.75 18.2855 22.75 18.9502V19.0498C22.75 19.7145 22.7501 20.2874 22.6885 20.7461C22.6224 21.2376 22.473 21.7086 22.0908 22.0908C21.7086 22.473 21.2376 22.6224 20.7461 22.6885C20.2874 22.7501 19.7145 22.75 19.0498 22.75H18.9502C18.2855 22.75 17.7126 22.7501 17.2539 22.6885C16.7624 22.6224 16.2914 22.473 15.9092 22.0908C15.527 21.7086 15.3776 21.2376 15.3115 20.7461C15.2499 20.2874 15.25 19.7145 15.25 19.0498V18.9502C15.25 18.2855 15.2499 17.7126 15.3115 17.2539C15.3776 16.7624 15.527 16.2914 15.9092 15.9092C16.2914 15.527 16.7624 15.3776 17.2539 15.3115C17.5425 15.2727 17.8766 15.2612 18.25 15.2559V15C18.25 14.5221 18.2498 14.2071 18.2305 13.9648C18.2119 13.7322 18.1795 13.6269 18.1475 13.5605C18.0067 13.2694 17.7175 13.0046 17.3086 12.8594C17.1898 12.8172 17.0267 12.7848 16.7334 12.7676C16.435 12.7501 16.0524 12.75 15.5 12.75H15.4775C14.9532 12.75 14.5271 12.7498 14.1797 12.7295C13.8225 12.7086 13.4993 12.6647 13.1895 12.5547C12.7357 12.3936 12.3256 12.1356 12 11.7998C11.6744 12.1356 11.2643 12.3936 10.8105 12.5547C10.5007 12.6647 10.1775 12.7086 9.82031 12.7295C9.47294 12.7498 9.04679 12.75 8.52246 12.75H8.5C7.94791 12.75 7.56592 12.7502 7.26758 12.7676C6.97402 12.7847 6.81032 12.8172 6.69141 12.8594C6.28249 13.0046 5.99332 13.2694 5.85254 13.5605C5.82048 13.6269 5.78807 13.7322 5.76953 13.9648C5.75025 14.2071 5.75 14.5221 5.75 15V15.2559C6.12343 15.2612 6.45749 15.2727 6.7461 15.3115C7.23765 15.3776 7.70864 15.527 8.09082 15.9092C8.47301 16.2914 8.62236 16.7624 8.68848 17.2539C8.75014 17.7126 8.75004 18.2855 8.75 18.9502V19.0498C8.75004 19.7145 8.75014 20.2874 8.68848 20.7461C8.62236 21.2376 8.47301 21.7086 8.09082 22.0908C7.70864 22.473 7.23765 22.6224 6.7461 22.6885C6.28745 22.7501 5.71449 22.75 5.04981 22.75H4.9502C4.28552 22.75 3.71255 22.7501 3.25391 22.6885C2.76236 22.6224 2.29137 22.473 1.90918 22.0908C1.527 21.7086 1.37764 21.2376 1.31153 20.7461C1.24986 20.2874 1.24996 19.7145 1.25 19.0498V18.9502C1.24996 18.2855 1.24986 17.7126 1.31153 17.2539C1.37764 16.7624 1.527 16.2914 1.90918 15.9092C2.29137 15.527 2.76236 15.3776 3.25391 15.3115C3.54251 15.2727 3.87657 15.2612 4.25 15.2559V14.9717C4.24999 14.5302 4.24983 14.1546 4.27442 13.8457C4.3003 13.5209 4.35651 13.2092 4.50196 12.9082C4.83485 12.2193 5.45503 11.7061 6.18946 11.4453C6.49933 11.3353 6.82247 11.2914 7.17969 11.2705C7.52707 11.2502 7.9532 11.25 8.47754 11.25H8.5C9.0524 11.25 9.43499 11.2499 9.7334 11.2324C10.0267 11.2152 10.1897 11.1828 10.3086 11.1406C10.7175 10.9954 11.0067 10.7306 11.1475 10.4395C11.1795 10.3731 11.2119 10.2678 11.2305 10.0352C11.2495 9.79594 11.25 9.48542 11.25 9.01758V8.74317C10.8766 8.73785 10.5425 8.72728 10.2539 8.68848C9.76236 8.62236 9.29137 8.47301 8.90918 8.09082C8.527 7.70864 8.37764 7.23765 8.31153 6.7461C8.24986 6.28745 8.24996 5.71449 8.25 5.04981V4.9502C8.24996 4.28552 8.24986 3.71255 8.31153 3.25391C8.37764 2.76236 8.527 2.29137 8.90918 1.90918C9.29137 1.527 9.76236 1.37764 10.2539 1.31153C10.7126 1.24986 11.2855 1.24996 11.9502 1.25H12.0498ZM5 16.75C4.27178 16.75 3.80097 16.7512 3.4541 16.7979C3.1288 16.8416 3.02682 16.9126 2.96973 16.9697C2.91264 17.0268 2.84159 17.1288 2.79785 17.4541C2.75123 17.801 2.75 18.2718 2.75 19C2.75 19.7282 2.75123 20.199 2.79785 20.5459C2.84159 20.8712 2.91264 20.9732 2.96973 21.0303C3.02682 21.0874 3.1288 21.1584 3.4541 21.2022C3.80097 21.2488 4.27178 21.25 5 21.25C5.72822 21.25 6.19903 21.2488 6.5459 21.2022C6.8712 21.1584 6.97318 21.0874 7.03028 21.0303C7.08737 20.9732 7.15841 20.8712 7.20215 20.5459C7.24877 20.199 7.25 19.7282 7.25 19C7.25 18.2718 7.24877 17.801 7.20215 17.4541C7.15841 17.1288 7.08737 17.0268 7.03028 16.9697C6.97318 16.9126 6.8712 16.8416 6.5459 16.7979C6.19903 16.7512 5.72822 16.75 5 16.75ZM19 16.75C18.2718 16.75 17.801 16.7512 17.4541 16.7979C17.1288 16.8416 17.0268 16.9126 16.9697 16.9697C16.9126 17.0268 16.8416 17.1288 16.7979 17.4541C16.7512 17.801 16.75 18.2718 16.75 19C16.75 19.7282 16.7512 20.199 16.7979 20.5459C16.8416 20.8712 16.9126 20.9732 16.9697 21.0303C17.0268 21.0874 17.1288 21.1584 17.4541 21.2022C17.801 21.2488 18.2718 21.25 19 21.25C19.7282 21.25 20.199 21.2488 20.5459 21.2022C20.8712 21.1584 20.9732 21.0874 21.0303 21.0303C21.0874 20.9732 21.1584 20.8712 21.2022 20.5459C21.2488 20.199 21.25 19.7282 21.25 19C21.25 18.2718 21.2488 17.801 21.2022 17.4541C21.1584 17.1288 21.0874 17.0268 21.0303 16.9697C20.9732 16.9126 20.8712 16.8416 20.5459 16.7979C20.199 16.7512 19.7282 16.75 19 16.75ZM12 2.75C11.2718 2.75 10.801 2.75123 10.4541 2.79785C10.1288 2.84159 10.0268 2.91264 9.96973 2.96973C9.91264 3.02682 9.84159 3.1288 9.79785 3.4541C9.75123 3.80097 9.75 4.27178 9.75 5C9.75 5.72822 9.75123 6.19903 9.79785 6.5459C9.84159 6.8712 9.91264 6.97318 9.96973 7.03028C10.0268 7.08737 10.1288 7.15841 10.4541 7.20215C10.801 7.24877 11.2718 7.25 12 7.25C12.7282 7.25 13.199 7.24877 13.5459 7.20215C13.8712 7.15841 13.9732 7.08737 14.0303 7.03028C14.0874 6.97318 14.1584 6.8712 14.2022 6.5459C14.2488 6.19903 14.25 5.72822 14.25 5C14.25 4.27178 14.2488 3.80097 14.2022 3.4541C14.1584 3.1288 14.0874 3.02682 14.0303 2.96973C13.9732 2.91264 13.8712 2.84159 13.5459 2.79785C13.199 2.75123 12.7282 2.75 12 2.75Z" fill="#161616"/></svg>