<svg width="29" height="28" fill="none" xmlns="http://www.w3.org/2000/svg"><path d="M14.5 13.124C16.5941 13.124 18.292 14.8219 18.292 16.916C18.2918 19.0099 16.594 20.707 14.5 20.707C13.9153 20.707 13.3618 20.5743 12.8672 20.3379C13.2512 21.8662 13.8462 23.0391 14.3916 23.9258L15.4678 21.7744C15.5753 21.5595 15.7661 21.3978 15.9961 21.3281C16.2263 21.2584 16.4758 21.2869 16.6846 21.4062L18.0859 22.207C18.0232 22.049 17.9678 21.9052 17.9219 21.7822C17.8717 21.6479 17.8321 21.5372 17.8047 21.46C17.791 21.4212 17.7583 21.3239 17.751 21.3027C17.6176 20.8541 17.8625 20.377 18.3096 20.2256C18.7672 20.0706 19.2638 20.3159 19.4189 20.7734L19.4209 20.7783L19.4268 20.7969C19.4328 20.8144 19.4429 20.8415 19.4551 20.876C19.4795 20.9449 19.5154 21.0454 19.5615 21.1689C19.6543 21.4173 19.7866 21.7559 19.9434 22.1172C20.1009 22.4803 20.2784 22.8554 20.4619 23.1816C20.6531 23.5214 20.8202 23.7518 20.9424 23.8701C21.2591 24.1769 21.2979 24.6718 21.0332 25.0244C20.7684 25.377 20.2823 25.4775 19.8994 25.2588L16.6191 23.3848L15.2822 26.0566C15.1438 26.3335 14.8694 26.5165 14.5605 26.5381C14.2519 26.5595 13.9548 26.4169 13.7793 26.1621C13.741 26.1065 13.7005 26.0482 13.6582 25.9873V25.9863C12.712 24.6221 10.8304 21.9099 10.7139 17.3613L10.708 16.916C10.708 14.8219 12.4059 13.124 14.5 13.124ZM16.8994 1.45703C19.0432 1.45701 20.7413 1.45709 22.0703 1.63574C23.4381 1.81964 24.5459 2.20699 25.4189 3.08008C26.292 3.95317 26.6794 5.06089 26.8633 6.42871C27.0419 7.7577 27.042 9.45581 27.042 11.5996V11.7314C27.042 13.8755 27.042 15.5742 26.8633 16.9033C26.6794 18.2709 26.2918 19.378 25.4189 20.251C24.5762 21.0938 23.5141 21.4843 22.21 21.6758C21.7322 21.7457 21.2881 21.4152 21.2178 20.9375C21.1476 20.4594 21.478 20.0146 21.9561 19.9443C23.0563 19.7828 23.7035 19.4907 24.1807 19.0137C24.6744 18.52 24.9711 17.8436 25.1289 16.6699C25.2901 15.471 25.292 13.8905 25.292 11.666C25.292 9.44168 25.29 7.861 25.1289 6.66211C24.9711 5.48834 24.6744 4.8121 24.1807 4.31836C23.6869 3.82462 23.0107 3.52793 21.8369 3.37012C20.638 3.20899 19.0573 3.20703 16.833 3.20703H12.167C9.94265 3.20703 8.36197 3.20898 7.16309 3.37012C5.98932 3.52793 5.31308 3.82461 4.81934 4.31836C4.32559 4.8121 4.0289 5.48834 3.87109 6.66211C3.70996 7.861 3.70801 9.44168 3.70801 11.666C3.70801 13.8905 3.70991 15.471 3.87109 16.6699C4.02891 17.8436 4.32562 18.52 4.81934 19.0137C5.50475 19.6989 6.52978 19.9937 8.70312 20.084C9.18575 20.1041 9.56084 20.5115 9.54102 20.9941C9.52096 21.477 9.11272 21.8521 8.62988 21.832C6.43511 21.7409 4.78129 21.4512 3.58105 20.251C2.70816 19.378 2.32063 18.2709 2.13672 16.9033C1.95803 15.5742 1.95799 13.8755 1.95801 11.7314V11.5996C1.95799 9.45581 1.95807 7.7577 2.13672 6.42871C2.32062 5.06089 2.70796 3.95317 3.58105 3.08008C4.45414 2.20699 5.56186 1.81964 6.92969 1.63574C8.25868 1.45709 9.95679 1.45701 12.1006 1.45703H16.8994ZM14.5 14.874C13.3724 14.874 12.458 15.7884 12.458 16.916C12.4582 18.0434 13.3725 18.957 14.5 18.957C15.6275 18.957 16.5418 18.0434 16.542 16.916C16.542 15.7884 15.6276 14.874 14.5 14.874ZM20.333 7.29102C20.8163 7.29102 21.208 7.68277 21.208 8.16602C21.2078 8.64912 20.8161 9.04102 20.333 9.04102H8.66699C8.18385 9.04102 7.79217 8.64912 7.79199 8.16602C7.79199 7.68277 8.18374 7.29102 8.66699 7.29102H20.333Z" fill="#067647"/></svg>