<svg width="24" height="24" fill="none" xmlns="http://www.w3.org/2000/svg"><path d="M16.6604 2.25C15.9686 2.2501 15.3417 2.65787 15.0608 3.29004L13.5764 6.62988C13.3056 7.23922 13.4044 7.94965 13.8313 8.46191L15.5422 10.5146C15.6039 10.5888 15.614 10.6856 15.5803 10.7607C14.9483 12.1653 14.4122 13.045 13.7287 13.7285C13.0452 14.412 12.1656 14.9481 10.761 15.5801C10.6859 15.6138 10.589 15.6037 10.5149 15.542L8.46214 13.8311C7.94988 13.4042 7.23945 13.3054 6.63011 13.5762L3.29027 15.0605C2.6581 15.3415 2.25034 15.9684 2.25023 16.6602V20.0127C2.25023 20.9751 3.03664 21.7777 4.02464 21.749C9.64902 21.5856 14.0292 20.053 17.0412 17.041C20.0533 14.029 21.5859 9.64879 21.7493 4.02441C21.7779 3.03641 20.9753 2.25 20.0129 2.25H16.6604ZM20.0129 3.75C20.156 3.75 20.2536 3.86351 20.2502 3.98047C20.0938 9.36772 18.6344 13.3268 15.9807 15.9805C13.327 18.6342 9.36794 20.0936 3.9807 20.25C3.86374 20.2534 3.75023 20.1557 3.75023 20.0127V16.6602C3.75034 16.5614 3.8085 16.472 3.89867 16.4316L7.23949 14.9463C7.32672 14.9076 7.42887 14.9223 7.50218 14.9834L9.55492 16.6943C10.0589 17.1141 10.7651 17.2222 11.3762 16.9473C12.8445 16.2866 13.9166 15.6617 14.7893 14.7891C15.662 13.9164 16.2869 12.8443 16.9475 11.376C17.2224 10.7648 17.1144 10.0587 16.6946 9.55469L14.9836 7.50195C14.9225 7.42863 14.9078 7.32649 14.9465 7.23926L16.4319 3.89844C16.4722 3.80827 16.5616 3.7501 16.6604 3.75H20.0129ZM11.0002 2.25C6.16774 2.25 2.25023 6.16751 2.25023 11C2.25023 11.4142 2.58602 11.75 3.00023 11.75C3.41444 11.75 3.75023 11.4142 3.75023 11C3.75023 6.99594 6.99617 3.75 11.0002 3.75C11.4144 3.75 11.7502 3.41421 11.7502 3C11.7502 2.58579 11.4144 2.25 11.0002 2.25ZM10.5002 5.75C7.87688 5.75 5.75023 7.87665 5.75023 10.5C5.75023 10.9142 6.08602 11.25 6.50023 11.25C6.91444 11.25 7.25023 10.9142 7.25023 10.5C7.25023 8.70507 8.70531 7.25 10.5002 7.25C10.9144 7.25 11.2502 6.91421 11.2502 6.5C11.2502 6.08579 10.9144 5.75 10.5002 5.75Z" fill="#25935F"/></svg>