<svg width="30" height="20" fill="none" xmlns="http://www.w3.org/2000/svg"><path d="M8.38938 -4.76837e-06C10.096 -4.76837e-06 11.3227 0.453329 12.0694 1.36C12.8694 2.21333 13.2694 3.33333 13.2694 4.72V5.84C13.2694 8.02666 12.6294 10.4533 11.3494 13.12C10.0694 15.7333 8.28271 18.0267 5.98938 20H0.629375C2.22938 18.2933 3.50938 16.6933 4.46938 15.2C5.48271 13.6533 6.20271 11.9467 6.62938 10.08C5.56271 9.81333 4.76271 9.30667 4.22938 8.56C3.74938 7.81333 3.50938 6.90667 3.50938 5.84V4.72C3.50938 3.33333 3.88271 2.21333 4.62938 1.36C5.42938 0.453329 6.68271 -4.76837e-06 8.38938 -4.76837e-06ZM24.4694 -4.76837e-06C26.176 -4.76837e-06 27.4027 0.453329 28.1494 1.36C28.9494 2.21333 29.3494 3.33333 29.3494 4.72V5.84C29.3494 8.02666 28.7094 10.4533 27.4294 13.12C26.1494 15.7333 24.3627 18.0267 22.0694 20H16.7094C18.3094 18.2933 19.5894 16.6933 20.5494 15.2C21.5627 13.6533 22.2827 11.9467 22.7094 10.08C21.6427 9.81333 20.8427 9.30667 20.3094 8.56C19.8294 7.81333 19.5894 6.90667 19.5894 5.84V4.72C19.5894 3.33333 19.9627 2.21333 20.7094 1.36C21.5094 0.453329 22.7627 -4.76837e-06 24.4694 -4.76837e-06Z" fill="#1B8354" fill-opacity="0.6"/></svg>