<svg width="406" height="278" fill="none" xmlns="http://www.w3.org/2000/svg" version="1.1" xmlns:xlink="http://www.w3.org/1999/xlink" transform="matrix(-1,0,0,1,0,0)"><path d="M405.5 581C405.5 504.702 390.472 429.151 361.274 358.661C332.076 288.171 289.28 224.122 235.329 170.171C181.378 116.22 117.329 73.4239 46.8391 44.226C-23.6511 15.028 -99.202 0 -175.5 0V164.962C-120.865 164.962 -66.7651 175.723 -16.2891 196.631C34.187 217.539 80.0507 248.184 118.683 286.817C157.316 325.449 187.961 371.313 208.869 421.789C229.777 472.265 240.538 526.365 240.538 581L405.5 581Z" fill="url(#paint0_radial_325_36133)" fill-opacity="0.4"/><path d="M405.5 581C405.5 504.702 390.472 429.151 361.274 358.661C332.076 288.171 289.28 224.122 235.329 170.171C181.378 116.22 117.329 73.4239 46.8391 44.226C-23.6511 15.028 -99.202 0 -175.5 0V164.962C-120.865 164.962 -66.7651 175.723 -16.2891 196.631C34.187 217.539 80.0507 248.184 118.683 286.817C157.316 325.449 187.961 371.313 208.869 421.789C229.777 472.265 240.538 526.365 240.538 581L405.5 581Z" fill="url(#paint1_linear_325_36133)"/><defs><radialGradient id="paint0_radial_325_36133" cx="0" cy="0" r="1" gradientUnits="userSpaceOnUse" gradientTransform="translate(-181.724 -8.09977) rotate(47.0277) scale(652.959 762.964)"><stop stop-color="#B2DDFF"/><stop offset="1" stop-color="#71BA44"/></radialGradient><linearGradient id="paint1_linear_325_36133" x1="115" y1="0" x2="115" y2="581" gradientUnits="userSpaceOnUse"><stop stop-color="#FCFEF8" stop-opacity="0.2"/><stop offset="1" stop-color="#FCFEF8"/></linearGradient></defs></svg>