<svg width="18" height="18" fill="none" xmlns="http://www.w3.org/2000/svg"><path d="M4.06115 1.28871C4.4047 1.25514 4.65598 0.94943 4.62241 0.605888C4.58884 0.262347 4.28313 0.0110644 3.93959 0.0446337C2.77222 0.158703 1.84877 0.428143 1.13864 1.13827C0.428511 1.8484 0.15907 2.77185 0.0449999 3.93922C0.0114306 4.28276 0.262714 4.58847 0.606255 4.62204C0.949797 4.65561 1.25551 4.40433 1.28907 4.06079C1.3925 3.00232 1.6159 2.42877 2.02252 2.02215C2.42914 1.61554 3.00269 1.39214 4.06115 1.28871Z" fill="#161616"/><path d="M14.0612 0.0446337C13.7176 0.0110644 13.4119 0.262347 13.3783 0.605888C13.3448 0.94943 13.596 1.25514 13.9396 1.28871C14.9981 1.39214 15.5716 1.61554 15.9782 2.02215C16.3848 2.42877 16.6082 3.00232 16.7117 4.06079C16.7452 4.40433 17.0509 4.65561 17.3945 4.62204C17.738 4.58847 17.9893 4.28276 17.9557 3.93922C17.8417 2.77185 17.5722 1.8484 16.8621 1.13827C16.152 0.428143 15.2285 0.158703 14.0612 0.0446337Z" fill="#161616"/><path d="M7.33371 0.041671C6.98853 0.041671 6.70871 0.321493 6.70871 0.666671C6.70871 1.01185 6.98853 1.29167 7.33371 1.29167H10.667C11.0122 1.29167 11.292 1.01185 11.292 0.666671C11.292 0.321493 11.0122 0.0416711 10.667 0.041671L7.33371 0.041671Z" fill="#161616"/><path d="M1.29204 7.33334C1.29204 6.98816 1.01222 6.70834 0.667037 6.70834C0.32186 6.70834 0.0420371 6.98816 0.0420371 7.33334L0.0420387 10.6667C0.0420387 11.0118 0.32186 11.2917 0.667037 11.2917C1.01222 11.2917 1.29204 11.0118 1.29204 10.6667L1.29204 7.33334Z" fill="#161616"/><path d="M1.28907 13.9392C1.25551 13.5957 0.949797 13.3444 0.606255 13.378C0.262713 13.4115 0.0114306 13.7172 0.0449999 14.0608C0.15907 15.2282 0.428511 16.1516 1.13864 16.8617C1.84877 17.5719 2.77222 17.8413 3.93959 17.9554C4.28313 17.9889 4.58884 17.7377 4.62241 17.3941C4.65598 17.0506 4.4047 16.7449 4.06115 16.7113C3.00269 16.6079 2.42914 16.3845 2.02252 15.9779C1.6159 15.5712 1.3925 14.9977 1.28907 13.9392Z" fill="#161616"/><path d="M11.3754 9.12496C11.7206 9.12496 12.0004 9.40478 12.0004 9.74996V10.75H13.0004C13.3456 10.75 13.6254 11.0298 13.6254 11.375C13.6254 11.7201 13.3456 12 13.0004 12H12.0004V13C12.0004 13.3451 11.7206 13.625 11.3754 13.625C11.0303 13.625 10.7504 13.3451 10.7504 13V12H9.75043C9.40525 12 9.12543 11.7201 9.12543 11.375C9.12543 11.0298 9.40525 10.75 9.75043 10.75H10.7504V9.74996C10.7504 9.40478 11.0303 9.12496 11.3754 9.12496Z" fill="#161616"/><path fill-rule="evenodd" clip-rule="evenodd" d="M5.87543 11.375C5.87543 8.33739 8.33786 5.87496 11.3754 5.87496C14.413 5.87496 16.8754 8.33739 16.8754 11.375C16.8754 12.5069 16.5335 13.5589 15.9473 14.4334C15.8636 14.5584 15.7748 14.6797 15.6814 14.7971L17.7757 16.8913C18.0198 17.1354 18.0198 17.5312 17.7757 17.7752C17.5316 18.0193 17.1359 18.0193 16.8918 17.7752L14.7975 15.6809C13.8583 16.4284 12.669 16.875 11.3754 16.875C8.33786 16.875 5.87543 14.4125 5.87543 11.375ZM11.3754 7.12496C9.02822 7.12496 7.12543 9.02775 7.12543 11.375C7.12543 13.7222 9.02822 15.625 11.3754 15.625C13.7226 15.625 15.6254 13.7222 15.6254 11.375C15.6254 9.02775 13.7226 7.12496 11.3754 7.12496Z" fill="#161616"/></svg>