<svg width="579" height="555" fill="none" xmlns="http://www.w3.org/2000/svg" version="1.1" xmlns:xlink="http://www.w3.org/1999/xlink" transform="matrix(-1,0,0,1,0,0)"><g opacity="0.19"><mask id="mask0_330_1225" style="mask-type:luminance" maskUnits="userSpaceOnUse" x="-76" y="0" width="655" height="555"><path d="M170.917 0.697388H170.326V1.19568L135.847 30.2637L130.246 25.5449L119.165 34.8807L108.085 25.5449L95.9678 35.7541L108.085 45.9653L119.165 36.6275L123.731 40.4758L90.3407 68.6268V61.1182H-74.8065V70.6479H-74.8042V139.277V139.286V209.146H-74.7754V276.695H-75.0112V286.162H89.4461V277.857H99.6794V209.173H106.363V277.857H117.591V209.173H124.62V277.857H135.848V209.173H142.533V277.857H153.761V209.173H160.177V277.857H168.72L135.036 306.254L129.426 301.527L118.325 310.879L107.224 301.527L95.0859 311.754L107.224 321.983L118.325 312.63L122.901 316.485L89.4461 344.689V337.167H-75.0112V345.533H-76V415.465V415.476V485.465H-75.9713V554.318H7.00131V554.282H87.5558V554.301H98.8033V485.489H105.5V554.301H116.747V485.489H123.79V554.301H135.038V485.489H141.736V554.301H152.983V485.489H159.412V554.301H170.672V546.467L180.022 554.283H192.008L180.83 544.95L196.036 532.079L180.853 519.382L196.036 506.676L180.83 493.815L192.171 484.332H180.189L170.672 492.289V484.349H170.137V415.476H170.643H250.057V485.507H250.766V505.263L237.228 493.815L248.56 484.332H236.587L225.285 493.783L240.491 506.652L225.257 519.382L240.491 532.112L225.283 544.973L236.422 554.283H248.396L237.228 544.95L250.766 533.493V554.272H250.822H332.118H333.52H414.889H415.272V519.169H436.31C432.179 522.574 429.512 524.756 428.539 525.529C425.956 527.864 424.474 530.835 424.474 533.683C424.474 535.508 425.179 537.714 426.362 539.588L426.789 540.257H428.51L446.592 524.9V549.715L453.339 554.048L460.503 548.966V524.9L478.584 540.257H480.308L480.736 539.585C481.915 537.714 482.62 535.508 482.62 533.683C482.62 530.554 481.169 527.65 478.555 525.529C477.321 524.412 473.61 521.393 470.854 519.169H492.457L493.557 518.174V517.647C493.557 512.349 487.265 508.656 481.619 508.656H469.158L485.292 498.318V496.66L484.838 496.279C480.645 492.743 473.983 492.31 469.351 495.264C467.367 496.461 462.935 499.491 460.261 501.334V500.732C460.261 497.703 458.381 489.097 455.365 485.506H495.786V554.272H510.135H564.497H578.76V485.506H578.763V475.961H414.733V470.558H578.763V461.088H414.733V455.454H578.763V445.985H414.733V440.061H578.763V430.591H414.733V424.957H578.763V415.489H578.731V346.669H578.76V276.671H578.759V209.19H578.761V199.66H415.031V194.269H578.761V184.814H415.031V179.194H578.761V169.739H415.031V163.827H578.761V154.372H415.031V148.753H578.761V139.298H578.73V70.6062H578.759V0.734253H495.881V0.738159H448.77V0.733276H365.95V0.738159H333.182H333.071V69.4915H332.538V77.4179L323.039 69.474H311.078L322.4 78.9407L307.22 91.7779L322.376 104.461L307.22 117.135L322.4 129.982L311.312 139.239H295.125L306.171 130.005L290.991 117.167L306.199 104.461L290.991 91.7537L306.171 78.9097L294.889 69.474H282.937L294.249 78.9407L279.068 91.7779L294.238 104.461L279.068 117.135L294.249 129.982L283.174 139.239H266.979L278.026 130.005L262.845 117.167L278.054 104.461L262.845 91.7537L278.026 78.9097L266.743 69.474H254.792L266.104 78.9407L252.59 90.3674V70.6479H253.299V0.697388H171.745V0.000427246L170.917 0.697388ZM171.745 1.89166H251.882V39.2893L242.81 31.5684L250.448 25.095L244.252 25.0737L241.845 27.187V24.4127L250.46 17.095L244.251 17.0844L241.845 19.1975V17.0921H238.068V19.5068L235.219 17.0795L229.248 17.192L238.068 24.6793V27.4981L235.211 25.0747H229.146L236.787 31.5762L225.918 40.7598L215.108 31.5684L222.742 25.095L216.55 25.0737L214.143 27.187V24.4127L222.76 17.095L216.548 17.0844L214.143 19.1975V17.0921H210.365V19.5068L207.514 17.0795L201.547 17.192L210.365 24.6793V27.4981L207.51 25.0747H201.444L209.086 31.5762L198.214 40.7608L187.404 31.5684L195.042 25.095L188.848 25.0737L186.441 27.187V24.4127L195.057 17.095L188.847 17.0844L186.441 19.1975V17.0921H182.663V19.5068L179.813 17.0795L173.846 17.192L182.663 24.6793V27.4981L179.805 25.0747H173.742L181.384 31.5762L171.745 39.7197V1.89166ZM497.604 55.7208V1.92847H577.342V69.412H497.604V55.7208ZM416.216 29.2943H432.501V15.6031H448.77V1.9314H495.881V55.7208H481.315V41.987H465.028V28.2551H447.342V41.987H431.053V55.7208H416.216V29.2943ZM416.216 1.9314H447.352V14.4089H431.084V28.101H416.216V1.9314ZM367.367 1.9314H414.801V28.101H414.795V41.7912H399.942V28.101H383.655V14.4089H367.367V1.9314ZM334.597 1.9314H365.95V15.6031H382.239V29.2943H398.525V42.9854H414.801V55.7208H414.785V69.4304H334.597V1.9314ZM136.848 31.108L170.326 2.88428V69.4711H91.341L124.734 41.3201L130.246 45.9653L141.414 36.5538L152.584 45.9653L164.701 35.7541L152.584 25.5449L141.414 34.9553L136.848 31.108ZM244.703 17.98L247.903 17.9858L240.783 24.0472V29.4145L244.701 25.9713L247.894 25.9821L241.318 31.5703L251.882 40.5621V43.1735L239.796 32.9352L225.883 44.6081L214.813 35.2277L212.094 32.9362L198.181 44.6081L184.392 32.9352L171.745 43.5438V40.9876L182.882 31.5791L176.289 25.9704H179.362L183.725 29.6685V24.3109L176.341 18.0411L179.38 17.9839L183.725 21.6819V17.9878H185.379V21.4241L189.299 17.98L192.498 17.9858L185.379 24.0472V29.4145L189.298 25.9713L192.489 25.9821L185.912 31.5703L198.211 42.0297L210.584 31.5791L203.991 25.9704H207.067L211.427 29.6685V24.3109L204.043 18.0411L207.082 17.9839L211.427 21.6819V17.9878H213.082V21.4241L217 17.98L220.2 17.9858L213.082 24.0472V29.4145L217 25.9713L220.191 25.9821L213.615 31.5703L225.915 42.0306L238.286 31.5791L231.694 25.9704H234.768L239.131 29.6685V24.3109L231.745 18.0411L234.787 17.9839L239.131 21.6819V17.9878H240.783V21.4241L244.703 17.98ZM142.47 35.7541L152.584 27.2325L162.697 35.7541L152.584 44.2766L142.47 35.7541ZM120.167 35.7841L120.201 35.7541L120.167 35.726L130.246 27.2325L134.844 31.108L124.734 39.6324L120.167 35.7841ZM97.9731 35.7541L108.085 27.2325L118.163 35.725L118.128 35.7541L118.163 35.7841L108.085 44.2766L97.9731 35.7541ZM416.216 56.9151H432.47V43.1813H448.759V29.4494H463.611V43.1813H479.898V56.9151H495.881V69.316L495.737 69.4362H416.216V56.9151ZM125.735 40.4758L135.847 31.9523L140.359 35.7541L130.246 44.2766L125.735 40.4758ZM212.091 34.1983L225.881 45.8722L239.793 34.1992L251.882 44.4463V46.8842L239.818 36.6158L235.562 40.2325C234.936 40.7628 234.312 41.293 233.695 41.8251L225.983 48.4081L212.115 36.6139L198.279 48.409L196.666 47.0422L196.674 47.0335L184.411 36.6139L171.745 47.4173V44.8049L184.388 34.1992L198.18 45.8722L212.091 34.1983ZM234.454 42.4533C235.071 41.9202 235.692 41.3928 236.315 40.8635L239.817 37.8867L251.882 48.156V50.7665L239.795 40.5059L227.038 51.3665L225.961 52.2738L212.092 40.5059L199.335 51.3665L198.259 52.2738L184.389 40.5059L171.745 51.2724V48.692L184.412 37.8876L195.316 47.1517L195.308 47.1624L198.28 49.6798L212.116 37.8876L225.985 49.6817L234.454 42.4533ZM239.796 41.7767L251.882 52.0383V69.4537H171.745V52.5316L184.391 41.7767L198.256 53.5417L212.093 41.7767L225.957 53.5417L239.796 41.7767ZM-73.3853 62.3173H88.9207V69.4498H-73.3853V62.3173ZM415.501 70.6305H494.321L460.793 98.8948L455.193 94.176L444.113 103.511L433.032 94.176L420.914 104.385L433.032 114.595L444.113 105.259L448.679 109.108L415.501 137.078V70.6305ZM397.59 139.316V70.6305H404.275V139.316H413.613V139.737L379.133 168.806L373.532 164.087L362.452 173.422L351.37 164.087L339.254 174.296L351.37 184.506L362.452 175.17L367.018 179.018L333.628 207.168V139.316H343.777V70.6305H350.193V139.316H361.421V70.6305H368.107V139.316H379.334V70.6305H386.364V139.316H397.59ZM56.8973 85.8445C56.8973 82.824 55.0208 74.2345 52.0117 70.6479H87.9433L87.9226 70.6654H88.386V98.1708C86.1254 95.444 82.0264 93.7553 78.2159 93.7553H65.7784L81.8827 83.4346V81.7809L81.4285 81.4009C77.2455 77.8696 70.5938 77.4402 65.9704 80.3879C63.9905 81.5822 59.566 84.6056 56.8973 86.4464V85.8445ZM8.01659 70.6479H48.4094C45.4946 74.2238 43.4951 82.3887 43.4951 85.8445V86.4842C40.6988 84.594 36.2352 81.5803 34.4542 80.4102C29.8066 77.4411 23.1469 77.8676 18.9651 81.399L18.5086 81.7809V83.4346L34.614 93.7553H22.1753C16.7735 93.7553 10.5508 97.4146 10.261 102.664L10.2288 103.228L11.3579 104.249H32.9905C30.2286 106.525 26.4848 109.603 25.2338 110.596C22.6548 112.927 21.1762 115.893 21.1762 118.736C21.1762 120.558 21.8799 122.76 23.0596 124.628L23.485 125.299H25.2051L43.2525 109.97V134.74L49.9881 139.063L57.1387 133.991V109.97L74.9803 125.124L75.1862 125.299H76.9086L77.3329 124.627C78.5114 122.76 79.2151 120.558 79.2151 118.736C79.2151 115.614 77.7663 112.716 75.1586 110.596C73.9754 109.525 70.5501 106.733 67.4709 104.249H88.386V139.274H55.1841V139.281H8.07408V139.277H8.01659V70.6479ZM-22.8271 101.158L-31.791 93.4073L-13.6378 93.3851L-22.1602 86.0577L-4.7141 86.0393L-13.7482 78.3387L4.40159 78.3281L-4.69225 70.6654H6.60117V138.093H-4.88312L4.40965 130.295L-13.7045 130.306L-4.66122 122.663L-22.7374 122.627L-14.0184 115.24L-31.9692 115.262L-22.9995 107.515H-44.2285L-35.2634 115.266L-53.4131 115.29L-44.893 122.616L-62.0126 122.636L-52.9797 130.334L-71.1754 130.345L-61.9838 138.093H-73.3876V70.6654H-61.9884L-71.1834 78.3775L-53.0245 78.3688L-62.0678 86.0102L-44.3158 86.0471L-53.0349 93.4344L-35.0863 93.4112L-44.056 101.158H-22.8271ZM-59.9832 70.6673H-6.69176L0.9832 77.1367L-17.1413 77.1474L-8.10375 84.8499L-25.5291 84.8683L-17.0044 92.1947L-33.1684 92.217L-33.4352 91.9853L-33.7043 92.217L-49.6245 92.2383L-40.9182 84.8606L-58.662 84.8228L-49.6096 77.1716L-67.749 77.1813L-59.9832 70.6673ZM324.405 129.987L309.225 117.14L324.387 104.461L309.225 91.7721L324.405 78.9368L314.518 70.6683H322.456L332.317 78.9136L317.137 91.7585L332.326 104.461L317.137 117.163L332.317 130.001L322.622 138.104H314.685L324.405 129.987ZM296.255 129.987L281.075 117.14L296.247 104.461L281.075 91.7721L296.255 78.9368L286.374 70.6683H294.305L304.166 78.9136L288.985 91.7585L304.187 104.461L288.985 117.163L304.166 130.001L294.471 138.104H286.544L296.255 129.987ZM268.109 129.987L252.929 117.14L268.102 104.461L252.929 91.7721L268.109 78.9368L258.23 70.6683H266.159L276.021 78.9136L260.84 91.7585L276.041 104.461L260.84 117.163L276.021 130.001L266.326 138.104H258.398L268.109 129.987ZM405.691 70.6857H414.086V138.121H405.691V70.6857ZM387.78 70.6857H396.175V138.121H387.78V70.6857ZM369.524 70.6857H377.917V138.121H369.524V70.6857ZM351.61 70.6857H360.004V138.121H351.61V70.6857ZM333.955 130.314L334.322 130.005L333.955 129.694V104.78L334.337 104.461L333.955 104.142V79.2209L334.322 78.9097L333.955 78.6014V70.6857H342.361V138.122H333.955V130.314ZM497.325 70.7061H577.313V138.139H497.325V70.7061ZM171.387 111.873V98.2056H187.6V84.5378H203.794V70.707H251.174V91.5656L250.924 91.7779L251.174 91.9872V116.926L250.924 117.135L251.174 117.346V124.441H236.216V110.772H220.005V97.1054H202.395V110.772H186.182V124.441H171.387V111.873ZM171.387 70.707H202.377V83.3435H186.183V97.0124H171.387V70.707ZM122.769 70.707H169.971V97.0124V110.678H155.193V97.0124H138.982V83.3435H122.769V70.707ZM90.1831 70.707H121.352V84.5378H137.566V98.2056H153.777V111.873H169.971V138.093H90.1831V70.707ZM44.9025 85.8445C44.9025 82.5031 47.1205 73.6558 50.0329 70.803L50.3353 70.7817L50.356 70.7991C53.3214 73.4823 55.4899 82.7416 55.4899 85.8445V88.9542L56.6409 88.1583C58.9359 86.5676 64.5194 82.7212 66.8041 81.3447C70.8859 78.7401 76.743 79.1239 80.4362 82.2423L80.4764 82.8472L61.6012 94.9418H78.2159C82.4691 94.9418 87.1258 97.2857 88.386 100.835V103.061H63.9617L65.2311 104.084C67.955 106.276 72.7325 110.142 74.1559 111.428C76.5108 113.343 77.8089 115.938 77.8089 118.736C77.8089 120.372 77.1661 122.368 76.0899 124.07L75.7737 124.113L55.7325 107.09V133.438L49.9444 137.544L44.6587 134.152V107.09L24.6187 124.113H24.3278L24.3013 124.07C23.2263 122.367 22.5835 120.372 22.5835 118.736C22.5835 116.191 23.9242 113.518 26.2296 111.433C27.6565 110.301 32.4673 106.34 35.2084 104.08L36.441 103.061H11.9685L11.6638 102.785L11.6672 102.721C11.9202 98.1358 17.4082 94.9418 22.1753 94.9418H38.7912L19.916 82.8472V82.2743L19.9585 82.2384C23.6494 79.1249 29.5146 78.7439 33.5964 81.3505C35.635 82.6911 41.2426 86.4813 43.7584 88.1854L44.9025 88.959V85.8445ZM461.795 99.7392L495.275 71.5145V138.103H416.289L449.68 109.952L455.193 114.595L466.362 105.183L477.532 114.595L489.649 104.385L477.532 94.176L466.362 103.587L461.795 99.7392ZM319.142 91.7537L332.538 80.4189V102.956L319.142 91.7537ZM252.59 93.1708L266.091 104.461L252.59 115.742V93.1708ZM-33.4352 93.6942L-26.1857 99.9641H-40.6951L-33.4352 93.6942ZM467.418 104.385L477.532 95.8637L487.645 104.385L477.532 112.907L467.418 104.385ZM445.114 104.414L445.149 104.385L445.114 104.355L455.193 95.8637L459.791 99.7392L449.68 108.263L445.114 104.414ZM422.92 104.385L433.032 95.8637L443.109 104.355L443.075 104.385L443.109 104.414L433.032 112.907L422.92 104.385ZM171.405 125.634H187.598V111.967H203.812V98.2987H218.588V111.967H234.799V125.634H251.117V138.093H171.405V125.634ZM450.683 109.107L460.793 100.583L465.305 104.385L455.193 112.907L450.683 109.107ZM319.142 117.167L332.538 105.965V128.497L319.142 117.167ZM-40.871 108.709H-26.3616L-33.6192 114.978L-40.871 108.709ZM-33.3513 116.458L-17.4298 116.436L-26.1351 123.814L-8.06694 123.85L-17.1205 131.501L0.976303 131.491L-6.89069 138.093H-59.9809L-67.757 131.536L-49.59 131.526L-58.6241 123.825L-41.5241 123.805L-50.0476 116.479L-33.8859 116.458L-33.6192 116.688L-33.3513 116.458ZM252.59 118.546L266.104 129.982L255.028 139.239H252.59V118.546ZM332.538 131.497V139.239H323.276L332.538 131.497ZM170.884 139.286H171.387H250.656V209.19H251.363V228.91L237.851 217.484L249.162 208.017H237.21L225.928 217.452L241.108 230.297L225.9 243.003L241.108 255.71L225.928 268.547L235.602 276.634H219.407L209.705 268.523L224.884 255.676L209.717 243.003L224.884 230.32L209.705 217.484L221.015 208.017H209.065L197.782 217.452L212.963 230.297L197.755 243.003L212.963 255.71L197.782 268.547L207.457 276.634H191.266L181.555 268.523L196.735 255.676L181.578 243.003L196.735 230.32L181.555 217.484L192.877 208.017H180.915L171.416 215.96V208.033H170.884V139.286ZM415.501 139.297H495.91V139.298H415.501V139.297ZM252.073 140.435H332.212V178.264L322.57 170.119L330.212 163.616H324.149L321.291 166.04V163.221L330.109 155.734L324.142 155.621L321.291 158.048V155.635H317.512V157.739L315.108 155.625L308.896 155.637L317.512 162.955V165.729L315.107 163.615L308.911 163.638L316.55 170.109L305.74 179.302L294.869 170.119L302.51 163.616H296.444L293.589 166.04V163.221L302.407 155.734L296.439 155.621L293.589 158.048V155.635H289.81V157.739L287.405 155.625L281.195 155.637L289.81 162.955V165.729L287.404 163.615L281.21 163.638L288.847 170.109L278.036 179.301L267.166 170.119L274.808 163.616H268.743L265.886 166.04V163.221L274.706 155.734L268.736 155.621L265.886 158.048V155.635H262.107V157.739L259.704 155.625L253.493 155.637L262.107 162.955V165.729L259.703 163.615L253.507 163.638L261.145 170.109L252.073 177.831V140.435ZM-73.3876 140.47H6.34937V207.953H-73.3876V140.47ZM89.154 181.526H105.428V167.837H121.716V154.145H138.005V140.474H169.357V207.971H90.0831V207.174L89.169 207.942V194.262H89.154V181.526ZM89.154 140.474H136.588V152.951H120.3V166.643H104.012V180.332H89.1587V166.643H89.154V140.474ZM56.6006 140.474H87.7375V166.643H72.8705V152.951H56.6006V140.474ZM8.07408 140.474H55.1841V154.145H71.4539V167.837H87.7375V194.262H72.9003V180.53H56.611V166.797H38.9258V180.53H22.6387V194.262H8.07408V140.474ZM415.034 140.497H577.341V147.554H415.034V140.497ZM380.134 169.65L413.613 141.424V148.753L413.614 154.372L413.613 163.827L413.614 169.739L413.613 179.194L413.614 184.814L413.613 194.269L413.614 199.66L413.613 208.013H382.602H334.628L368.021 179.862L373.532 184.506L384.7 175.096L395.87 184.506L407.988 174.296L395.87 164.087L384.7 173.497L380.134 169.65ZM415.034 155.571H577.341V162.629H415.034V155.571ZM318.574 162.588L311.456 156.529L314.656 156.522L318.574 159.967V156.531H320.229V160.223L324.574 156.526L327.612 156.583L320.229 162.852V168.211L324.59 164.511H327.664L321.072 170.122L332.212 179.531V182.088L319.561 171.476L305.774 183.15L291.86 171.476L278.071 183.15L264.157 171.476L252.073 181.715V179.104L262.636 170.112L256.059 164.524L259.251 164.513L263.171 167.956V162.588L256.052 156.529L259.251 156.522L263.171 159.967V156.531H264.823V160.223L269.168 156.526L272.208 156.583L264.823 162.852V168.211L269.185 164.511H272.26L265.668 170.122L278.039 180.573L290.339 170.112L283.764 164.524L286.953 164.513L290.873 167.956V162.588L283.755 156.529L286.953 156.522L290.873 159.967V156.531H292.528V160.223L296.873 156.526L299.91 156.583L292.528 162.852V168.211L296.888 164.511H299.962L293.369 170.122L305.744 180.571L318.042 170.112L311.465 164.524L314.656 164.513L318.574 167.956V162.588ZM385.757 174.296L395.87 165.775L405.984 174.296L395.87 182.818L385.757 174.296ZM363.454 174.326L363.488 174.296L363.454 174.267L373.532 165.775L378.131 169.651L368.021 178.174L363.454 174.326ZM341.259 174.296L351.37 165.775L361.45 174.267L361.414 174.296L361.45 174.326L351.37 182.818L341.259 174.296ZM8.07408 195.456H24.0553V181.724H40.3423V167.991H55.1956V181.724H71.4838V195.456H87.7375V207.977H8.07408V195.456ZM369.022 179.018L379.133 170.494L383.644 174.296L373.532 182.818L369.022 179.018ZM415.034 170.937H577.341V177.995H415.034V170.937ZM319.564 172.74L332.212 183.348V185.961L319.543 175.156L305.675 186.951L291.839 175.156L277.971 186.949L270.261 180.369C269.622 179.818 268.979 179.272 268.335 178.725L264.137 175.157L252.073 185.425V182.988L264.161 172.74L278.072 184.414L291.863 172.74L305.775 184.414L319.564 172.74ZM252.073 186.698L264.137 176.428L267.582 179.355C268.223 179.902 268.865 180.446 269.502 180.996L277.971 188.223L291.838 176.429L305.674 188.222L319.541 176.429L332.212 187.236V189.814L319.564 179.048L305.694 190.817L291.863 179.048L277.992 190.817L264.16 179.048L252.073 189.307V186.698ZM319.563 180.319L331.559 190.532L332.212 191.082V207.996H252.073V190.579L264.157 180.319L276.165 190.543L277.997 192.085L291.862 180.319L303.868 190.543L305.699 192.085L319.563 180.319ZM415.034 186.013H577.341V193.069H415.034V186.013ZM415.034 200.858H577.341V207.991H415.034V200.858ZM8.04534 209.173H87.7111L54.1849 237.438L48.5842 232.718L37.5046 242.054L26.425 232.718L14.3072 242.927L26.425 253.136L37.5046 243.802L42.0716 247.65L8.04534 276.336V209.173ZM460.476 224.387C460.476 221.366 458.599 212.773 455.59 209.19H495.937V276.671H495.73V276.673H454.88L460.719 272.532V248.511L478.56 263.664L478.766 263.84H480.487L480.911 263.17C482.091 261.301 482.794 259.099 482.794 257.277C482.794 254.154 481.346 251.258 478.738 249.139C477.509 248.027 473.802 245.011 471.05 242.79H492.613L493.712 241.798V241.271C493.712 235.982 487.431 232.296 481.796 232.296H469.357L485.462 221.977V220.323L485.008 219.943C480.824 216.412 474.172 215.983 469.549 218.931C467.56 220.13 463.141 223.149 460.476 224.987V224.387ZM415.569 209.19H451.988C449.073 212.767 447.074 220.932 447.074 224.387V225.027C444.277 223.137 439.813 220.121 438.033 218.952C433.385 215.981 426.726 216.411 422.545 219.94L422.088 220.323V221.977L438.194 232.296H425.755C421.997 232.296 417.848 234.07 415.569 236.915V209.19ZM565.942 209.207H577.342V276.635H565.936L575.128 268.886L556.935 268.876L565.967 261.177L548.847 261.158L557.368 253.831L539.218 253.807L548.183 246.056H526.953L535.923 253.804L517.973 253.781L526.691 261.168L508.616 261.204L517.658 268.846L499.545 268.837L508.839 276.635H497.353V209.207H508.645L499.552 216.87L517.703 216.881L508.669 224.581L526.114 224.6L517.591 231.925L535.744 231.95L526.781 239.699H548.01L539.042 231.954L556.989 231.978L548.27 224.588L566.021 224.551L556.979 216.91L575.137 216.92L565.942 209.207ZM520.958 230.737L529.484 223.41L512.059 223.393L521.094 215.689L502.971 215.679L510.647 209.208H563.936L571.704 215.724L553.563 215.714L562.616 223.365L544.872 223.401L553.577 230.779L537.658 230.758L537.39 230.526L537.122 230.757L520.958 230.737ZM227.934 268.541L243.114 255.706L227.913 243.003L243.114 230.301L227.934 217.456L237.795 209.211H245.725L235.844 217.479L251.024 230.315L235.851 243.003L251.024 255.682L235.844 268.528L245.542 276.634H237.613L227.934 268.541ZM199.789 268.541L214.97 255.706L199.768 243.003L214.97 230.301L199.789 217.456L209.65 209.211H217.579L207.698 217.479L222.879 230.315L207.706 243.003L222.879 255.682L207.698 268.528L217.395 276.634H209.468L199.789 268.541ZM171.638 268.541L186.818 255.706L171.628 243.003L186.818 230.301L171.638 217.456L181.498 209.211H189.437L179.548 217.479L194.728 230.315L179.567 243.003L194.728 255.682L179.548 268.528L189.254 276.634H181.317L171.638 268.541ZM161.594 209.228H169.999V217.144L169.633 217.452L169.999 217.764V242.682L169.617 243.003L169.999 243.323V268.235L169.633 268.547L169.999 268.855V276.634H169.58V276.663H161.594V209.228ZM143.951 209.228H152.345V276.663H143.951V209.228ZM126.037 209.228H134.431V276.663H126.037V209.228ZM107.78 209.228H116.175V276.663H107.78V209.228ZM90.0831 209.228H98.2629V276.663H90.0831V209.228ZM-73.3589 209.247H6.62877V276.681H-73.3589V209.247ZM333.984 250.413H350.177V236.748H366.388V223.079H382.602V209.25H413.772V276.635H333.984V250.413ZM333.984 235.553V209.25H381.185V221.885H364.972V235.553H348.762V249.22H333.984V235.553ZM301.577 209.25H332.568V235.553H317.771V221.885H301.577V209.25ZM252.78 255.889L253.031 255.676L252.78 255.467V230.529L253.031 230.32L252.78 230.107V209.25H300.16V223.079H316.354V236.748H332.568V250.413V262.983H317.772V249.314H301.56V235.648H283.949V249.314H267.738V262.983H252.78V255.889ZM448.48 224.387C448.48 221.046 450.699 212.199 453.613 209.344L453.914 209.323L453.935 209.342C456.901 212.025 459.069 221.284 459.069 224.387V227.495L460.219 226.699C462.511 225.111 468.086 221.271 470.384 219.887C474.463 217.28 480.323 217.668 484.015 220.782L484.056 221.388L465.181 233.484H481.796C486.766 233.484 492.305 236.681 492.305 241.271L492.001 241.603H467.54L468.811 242.626C471.529 244.815 476.302 248.675 477.734 249.97C480.09 251.885 481.387 254.48 481.387 257.277C481.387 258.914 480.746 260.907 479.671 262.611L479.352 262.653L459.312 245.633V271.98L453.523 276.086L448.238 272.694V245.633L428.197 262.653H427.906L427.88 262.613C426.805 260.907 426.162 258.914 426.162 257.277C426.162 254.732 427.504 252.06 429.809 249.975C431.222 248.854 436.04 244.885 438.787 242.621L440.02 241.603H415.569V239.633C416.844 235.938 421.574 233.484 425.755 233.484H442.37L423.495 221.388V220.817L423.538 220.78C427.228 217.667 433.094 217.286 437.175 219.891C439.215 221.232 444.821 225.024 447.337 226.726L448.48 227.499V224.387ZM55.1864 238.281L88.4527 210.237V276.645H9.68151L43.0731 248.493L48.5842 253.136L59.7546 243.726L70.9227 253.136L83.0405 242.927L70.9227 232.718L59.7546 242.129L55.1864 238.281ZM171.416 218.961L184.812 230.297L171.416 241.497V218.961ZM237.862 243.003L251.363 231.714V254.283L237.862 243.003ZM537.39 232.236L544.648 238.506H530.138L537.39 232.236ZM60.8112 242.927L70.9227 234.406L81.0364 242.927L70.9227 251.449L60.8112 242.927ZM38.5061 242.957L38.5417 242.927L38.5061 242.898L48.5842 234.406L53.1834 238.281L43.0731 246.805L38.5061 242.957ZM16.3113 242.927L26.425 234.406L36.502 242.898L36.4663 242.927L36.502 242.957L26.425 251.449L16.3113 242.927ZM252.835 264.177H269.154V250.508H285.366V236.842H300.143V250.508H316.355V264.177H332.549V276.635H252.835V264.177ZM44.0746 247.649L54.1849 239.125L58.6967 242.927L48.5842 251.449L44.0746 247.649ZM415.569 242.79H436.569C433.803 245.071 430.053 248.152 428.812 249.139C426.233 251.468 424.755 254.434 424.755 257.277C424.755 259.099 425.458 261.301 426.638 263.171L427.064 263.84H428.785L446.832 248.511V273.282L452.117 276.673H448.533V276.668H415.569V242.79ZM171.416 244.507L184.812 255.71L171.416 267.038V244.507ZM530.314 247.25H544.825L537.574 253.52L530.314 247.25ZM512.022 262.392L530.089 262.356L521.384 254.978L537.306 254.999L537.574 255.229L537.841 255L554.001 255.02L545.478 262.346L562.579 262.367L553.545 270.067L571.712 270.078L563.936 276.634H510.846L502.977 270.033L521.073 270.043L512.022 262.392ZM237.851 268.523L251.363 257.087V276.634H247.553L237.851 268.523ZM171.416 270.038L179.305 276.634H171.416V270.038ZM251.996 346.711H252.703V277.829H332.568H332.623V345.554H332.089V353.494L322.572 345.536H310.589L321.932 355.019L306.724 367.881L321.908 380.586L306.724 393.284L321.932 406.155L310.824 415.429H294.605L305.674 406.177L290.466 393.317L305.701 380.586L290.466 367.856L305.674 354.988L294.371 345.536H282.398L293.73 355.019L278.522 367.881L293.717 380.586L278.522 393.284L293.73 406.155L282.634 415.429H266.41L277.477 406.177L262.269 393.317L277.504 380.586L262.269 367.856L277.477 354.988L266.174 345.536H254.201L265.534 355.019L251.996 366.468V346.711ZM248.997 277.84L248.986 277.831H251.284V315.295L242.195 307.561L249.846 301.076L243.641 301.054L241.229 303.172V300.392L249.858 293.062L243.64 293.051L241.229 295.169V293.059H237.447V295.478L234.59 293.047L228.611 293.158L237.447 300.657V303.486L234.582 301.055H228.509L236.164 307.569L225.274 316.769L214.443 307.561L222.092 301.076L215.888 301.054L213.476 303.172V300.392L222.107 293.062L215.887 293.051L213.476 295.169V293.059H209.693V295.478L206.836 293.047L200.859 293.158L209.693 300.657V303.484L206.831 301.055H200.756L208.411 307.569L197.519 316.771L186.688 307.561L194.339 301.076L188.137 301.054L185.724 303.172V300.392L194.354 293.062L188.135 293.051L185.724 295.169V293.059H181.939V295.478L179.083 293.047L173.107 293.158L181.939 300.657V303.486L179.076 301.055H173.004L180.659 307.569L171.001 315.729V277.857H171.416V277.831H180.736L180.748 277.84H192.712L192.7 277.831H208.887L208.9 277.84H220.85L220.837 277.831H237.033L237.045 277.84H248.997ZM497.458 277.867H577.341V345.472H497.458V277.867ZM415.921 305.284H432.233V291.565H448.533V277.869H495.73V331.756H481.139V317.998H464.821V304.241H447.104V317.998H430.784V331.756H415.921V305.284ZM415.921 277.869H447.114V290.369H430.815V304.087H415.921V277.869ZM366.98 277.869H414.502V304.087H414.496V317.803H399.615V304.087H383.299V290.369H366.98V277.869ZM334.152 277.869H365.56V291.565H381.879V305.284H398.198V318.999H414.502V331.756H414.485V345.492H334.152V277.869ZM-73.5923 277.891H88.0273V284.965H-73.5923V277.891ZM136.04 307.099L169.58 278.823V345.533H120.516H90.451L123.905 317.33L129.426 321.983L140.615 312.554L151.805 321.983L163.945 311.754L151.805 301.527L140.615 310.953L136.04 307.099ZM244.092 293.946L247.3 293.953L240.168 300.026V305.4L244.091 301.952L247.293 301.963L240.702 307.564L251.284 316.567V319.188L239.177 308.931L225.237 320.625L214.148 311.227L211.424 308.931L197.486 320.625L183.671 308.931L171.001 319.559V316.996L182.156 307.571L175.552 301.951H178.633L183.003 305.656V300.289L175.605 294.007L178.649 293.951L183.003 297.653V293.955H184.662V297.396L188.587 293.946L191.794 293.953L184.662 300.026V305.4L188.587 301.952L191.786 301.963L185.195 307.564L197.516 318.039L209.909 307.571L203.304 301.951H206.389L210.756 305.658V300.289L203.358 294.007L206.402 293.951L210.756 297.653V293.955H212.415V297.396L216.339 293.946L219.547 293.953L212.415 300.026V305.4L216.339 301.952L219.538 301.963L212.951 307.564L225.271 318.04L237.663 307.571L231.057 301.951H234.142L238.51 305.656V300.289L231.11 294.007L234.158 293.951L238.51 297.653V293.955H240.168V297.396L244.092 293.946ZM141.672 311.754L151.805 303.217L161.938 311.754L151.805 320.292L141.672 311.754ZM119.329 311.784L119.363 311.754L119.329 311.725L129.426 303.217L134.033 307.099L123.904 315.639L119.329 311.784ZM97.0935 311.754L107.224 303.217L117.322 311.725L117.286 311.754L117.322 311.784L107.224 320.292L97.0935 311.754ZM415.921 332.952H432.203V319.195H448.522V305.437H463.402V319.195H479.719V332.952H495.73V345.375L495.585 345.497H415.921V332.952ZM124.907 316.485L135.037 307.946L139.557 311.754L129.426 320.292L124.907 316.485ZM239.174 310.195L251.284 320.461V322.905L239.2 312.618L235.047 316.147C234.382 316.71 233.721 317.273 233.067 317.836L225.34 324.431L211.446 312.617L197.585 324.433L195.987 323.08L195.996 323.072L183.69 312.617L171.001 323.44V320.819L183.668 310.195L197.485 321.889L211.42 310.195L225.236 321.889L239.174 310.195ZM233.825 318.464C234.477 317.9 235.138 317.339 235.8 316.777L239.197 313.889L251.284 324.177V326.793L239.175 316.515L226.398 327.396L225.318 328.304L211.42 316.515L198.641 327.396L197.565 328.304L183.668 316.515L171.001 327.3V324.714L183.691 313.89L194.6 323.16L194.593 323.169L197.586 325.704L211.447 313.89L225.34 325.705L233.825 318.464ZM239.177 317.786L251.284 328.065V345.515H171.001V328.561L183.671 317.786L197.562 329.574L211.423 317.786L225.313 329.574L239.177 317.786ZM-73.5923 338.363H88.0273V345.513H-73.5923V338.363ZM415.204 346.695H494.166L460.578 375.01L454.967 370.283L443.867 379.635L432.767 370.283L420.628 380.51L432.767 390.74L443.867 381.386L448.443 385.242L415.204 413.263V346.695ZM397.261 415.505V346.695H403.957V415.505H413.312V415.927L378.768 445.049L373.157 440.321L362.058 449.674L350.957 440.321L338.818 450.55L350.957 460.778L362.058 451.425L366.633 455.281L333.18 483.48V415.505H343.348V346.695H349.777V415.505H361.024V346.695H367.722V415.505H378.97V346.695H386.013V415.505H397.261ZM55.943 361.936C55.943 358.907 54.063 350.301 51.0482 346.71H87.0487L87.0246 346.729H87.4891V374.285C85.2251 371.554 81.1192 369.861 77.3018 369.861H64.8402L80.9755 359.522V357.865L80.5201 357.484C76.3268 353.945 69.6636 353.513 65.0333 356.47C63.0396 357.671 58.6128 360.696 55.943 362.539V361.936ZM6.97485 346.71H47.4424C44.5207 350.291 42.5166 358.473 42.5166 361.936V362.577C40.2297 361.029 35.3556 357.737 33.4584 356.491C28.804 353.516 22.1316 353.943 17.9406 357.482L17.4841 357.865V359.522L33.6194 369.861H21.1578C15.7456 369.861 9.51363 373.527 9.22273 378.786L9.1894 379.351L10.322 380.375H31.9924C29.2191 382.659 25.4615 385.75 24.2209 386.733C21.6384 389.068 20.1563 392.04 20.1563 394.887C20.1563 396.712 20.8611 398.918 22.0431 400.79L22.4685 401.462H24.1933L42.274 386.105V410.92L49.0222 415.252L56.1867 410.17V386.105L74.2663 401.462H75.9899L76.4176 400.79C77.5973 398.918 78.3021 396.712 78.3021 394.887C78.3021 391.759 76.8511 388.856 74.2387 386.733C73.0038 385.617 69.2923 382.597 66.5361 380.375H87.4891V415.464H54.2286V415.469H7.0312V415.465H6.97485V346.71ZM-23.9263 377.279L-32.9051 369.513L-14.7197 369.49L-23.2582 362.151L-5.78113 362.131L-14.8324 354.416L3.35182 354.406L-5.75699 346.729H5.55486V414.279H-5.949L3.35871 406.468L-14.7876 406.478L-5.72939 398.822L-23.8366 398.786L-15.1026 391.386L-33.0845 391.408L-24.0987 383.646H-45.3679L-36.3879 391.412L-54.5698 391.434L-46.0337 398.774L-63.1831 398.793L-54.1352 406.507L-72.362 406.516L-63.1555 414.279H-74.58V346.729H-63.1601L-72.3701 354.456L-54.1789 354.446L-63.2383 362.101L-45.4553 362.138L-54.1881 369.54L-36.2108 369.517L-45.1943 377.279H-23.9263ZM-61.1502 346.731H-7.76224L-0.0723267 353.212L-18.229 353.223L-9.17536 360.939L-26.6341 360.959L-18.0933 368.298L-34.2861 368.319L-34.5551 368.087L-34.8253 368.32L-50.7732 368.341L-42.0507 360.949L-59.8279 360.912L-50.7582 353.247L-68.931 353.258L-61.1502 346.731ZM323.942 406.159L308.733 393.288L323.922 380.586L308.733 367.876L323.942 355.015L314.035 346.732H321.989L331.867 354.993L316.66 367.862L331.875 380.586L316.659 393.312L331.866 406.173L322.155 414.291H314.203L323.942 406.159ZM295.739 406.159L280.532 393.288L295.731 380.586L280.532 367.876L295.738 355.015L285.842 346.732H293.787L303.666 354.993L288.456 367.862L303.686 380.586L288.456 393.312L303.665 406.173L293.952 414.291H286.012L295.739 406.159ZM267.542 406.159L252.335 393.288L267.536 380.586L252.335 367.876L267.541 355.015L257.645 346.732H265.59L275.468 354.993L260.26 367.862L275.489 380.586L260.26 393.312L275.467 406.173L265.756 414.291H257.813L267.542 406.159ZM405.377 346.75H413.786V414.309H405.377V346.75ZM387.433 346.75H395.842V414.309H387.433V346.75ZM369.142 346.75H377.55V414.309H369.142V346.75ZM351.196 346.75H359.604V414.309H351.196V346.75ZM333.508 406.485L333.876 406.177L333.508 405.866V380.907L333.892 380.586L333.508 380.265V355.299L333.876 354.988L333.508 354.68V346.75H341.929V414.309H333.508V406.485ZM497.178 346.77H577.311V414.327H497.178V346.77ZM170.643 388.011V374.32H186.886V360.626H203.108V346.771H250.576V367.668L250.325 367.881L250.576 368.091V393.074L250.325 393.284L250.576 393.497V400.603H235.59V386.909H219.349V373.218H201.708V386.909H185.464V400.603H170.643V388.011ZM170.643 346.771H201.689V359.429H185.467V373.123H170.643V346.771ZM121.936 346.771H169.223V373.123V386.815H154.42V373.123H138.178V359.429H121.936V346.771ZM89.2909 346.771H120.516V360.626H136.76V374.32H153.001V388.011H169.223V414.279H89.2909V346.771ZM43.9263 361.936C43.9263 358.589 46.1489 349.726 49.0671 346.866L49.3695 346.846L49.389 346.863C52.3613 349.551 54.5333 358.828 54.5333 361.936V365.053L55.6854 364.253C57.9816 362.663 63.5673 358.814 65.8693 357.427C69.9545 354.818 75.8254 355.203 79.5244 358.324L79.5658 358.932L60.6572 371.05H77.3018C81.5607 371.05 86.2266 373.398 87.4891 376.955V379.184H63.02L64.2929 380.21C67.0156 382.4 71.7931 386.264 73.2338 387.566C75.5944 389.485 76.8936 392.084 76.8936 394.887C76.8936 396.525 76.2509 398.524 75.1735 400.231L74.8539 400.274L54.777 383.22V409.617L48.9774 413.728L43.6837 410.333V383.22L23.6069 400.274H23.3137L23.2884 400.232C22.2098 398.524 21.5659 396.525 21.5659 394.887C21.5659 392.337 22.9101 389.66 25.2189 387.571C26.632 386.453 31.4612 382.475 34.2138 380.203L35.4487 379.184H10.9337L10.6267 378.908L10.6313 378.843C10.8842 374.25 16.3826 371.05 21.1578 371.05H37.8036L18.8938 358.932V358.359L18.9363 358.323C22.6341 355.203 28.5119 354.822 32.5995 357.433C34.9578 358.984 41.9866 363.742 42.7799 364.28L43.9263 365.056V361.936ZM461.581 375.857L495.123 347.579V414.289H415.993L449.446 386.087L454.967 390.74L466.157 381.309L477.348 390.74L489.487 380.51L477.348 370.283L466.157 379.712L461.581 375.857ZM318.668 367.856L332.089 356.501V379.079L318.668 367.856ZM251.996 369.278L265.52 380.586L251.996 391.888V369.278ZM-34.5551 369.801L-27.2918 376.081H-41.8254L-34.5551 369.801ZM467.215 380.51L477.348 371.974L487.48 380.51L477.348 389.048L467.215 380.51ZM444.871 380.54L444.906 380.51L444.871 380.48L454.967 371.974L459.574 375.857L449.446 384.397L444.871 380.54ZM422.634 380.51L432.767 371.974L442.863 380.48L442.829 380.51L442.863 380.54L432.767 389.048L422.634 380.51ZM170.661 401.8H186.884V388.105H203.127V374.414H217.93V388.105H234.17V401.8H250.52V414.279H170.661V401.8ZM450.448 385.242L460.578 376.702L465.099 380.51L454.967 389.048L450.448 385.242ZM318.669 393.317L332.089 382.094V404.665L318.669 393.317ZM-42.0024 384.842H-27.4677L-34.7391 391.124L-42.0024 384.842ZM-34.47 392.605L-18.5187 392.584L-27.2412 399.975L-9.14087 400.013L-18.2094 407.677L-0.0803604 407.666L-7.96232 414.279H-61.1491L-68.939 407.71L-50.7375 407.701L-59.7888 399.986L-42.6578 399.965L-51.1974 392.625L-35.007 392.605L-34.7391 392.837L-34.47 392.605ZM251.996 394.697L265.533 406.155L254.436 415.429H251.996V394.697ZM332.089 407.672V415.429H322.809L332.089 407.672ZM415.204 415.487H495.76V415.489H415.204V415.487ZM251.477 416.626H331.762V454.524L322.101 446.364L329.756 439.85H323.685L320.821 442.28V439.453L329.653 431.953L323.678 431.842L320.821 434.274V431.855H317.036V433.964L314.625 431.846L308.406 431.857L317.036 439.187V441.968L314.625 439.849L308.422 439.872L316.074 446.357L305.241 455.566L294.349 446.364L302.003 439.85H295.93L293.068 442.28V439.453L301.901 431.953L295.925 431.842L293.068 434.274V431.855H289.283V433.964L286.873 431.846L280.654 431.857L289.283 439.187V441.968L286.872 439.849L280.67 439.872L288.318 446.357L277.487 455.565L266.596 446.364L274.252 439.85H268.178L265.313 442.28V439.453L274.149 431.953L268.17 431.842L265.313 434.274V431.855H261.531V433.964L259.12 431.846L252.902 431.857L261.531 439.187V441.968L259.12 439.849L252.915 439.872L260.565 446.357L251.477 454.091V416.626ZM-74.58 416.661H5.30303V484.268H-74.58V416.661ZM88.2583 457.794H104.564V444.08H120.881V430.361H137.2V416.665H168.608V484.287H89.1908V483.487L88.2756 484.259V470.552H88.2583V457.794ZM88.2583 416.665H135.781V429.164H119.462V442.882H103.145V456.599H88.2653V442.882H88.2583V416.665ZM55.6474 416.665H86.8395V442.882H71.946V429.164H55.6474V416.665ZM7.0312 416.665H54.2286V430.361H70.5271V444.08H86.8395V470.552H71.977V456.794H55.6578V443.037H37.9392V456.794H21.6223V470.552H7.0312V416.665ZM414.735 416.687H577.339V423.758H414.735V416.687ZM379.771 445.894L413.312 417.617V424.957H413.313V430.591H413.312V440.061H413.313V445.985H413.312V455.454H413.313V461.088H413.312V470.558H413.313V475.961H413.312V484.328H334.183L367.636 456.126L373.157 460.778L384.347 451.349L395.537 460.778L407.675 450.55L395.537 440.321L384.347 449.75L379.771 445.894ZM414.735 431.789H577.339V438.862H414.735V431.789ZM318.098 438.821L310.966 432.748L314.173 432.742L318.098 436.192V432.75H319.758V436.449L324.111 432.747L327.157 432.802L319.758 439.085V444.451L324.126 440.747H327.208L320.603 446.366L331.762 455.793V458.354L319.088 447.727L305.275 459.42L291.337 447.727L277.522 459.42L263.585 447.726L251.477 457.984V455.363L262.058 446.359L255.467 440.758L258.669 440.747L262.594 444.195V438.821L255.461 432.748L258.668 432.742L262.594 436.192V432.75H264.251V436.449L268.604 432.747L271.651 432.802L264.251 439.085V444.451L268.62 440.747H271.704L265.098 446.366L277.489 456.835L289.81 446.359L283.222 440.758L286.422 440.747L290.347 444.195V438.821L283.214 432.748L286.421 432.742L290.347 436.192V432.75H292.006V436.449L296.358 432.747L299.404 432.802L292.006 439.085V444.451L296.372 440.747H299.455L292.851 446.366L305.245 456.834L317.565 446.359L310.975 440.758L314.174 440.747L318.098 444.195V438.821ZM385.404 450.55L395.537 442.012L405.669 450.55L395.537 459.086L385.404 450.55ZM363.061 450.58L363.096 450.55L363.061 450.519L373.157 442.012L377.764 445.894L367.636 454.434L363.061 450.58ZM340.826 450.55L350.957 442.012L361.054 450.519L361.018 450.55L361.054 450.58L350.957 459.086L340.826 450.55ZM7.0312 471.748H23.0412V457.991H39.3581V444.233H54.2389V457.991H70.557V471.748H86.8395V484.292H7.0312V471.748ZM368.639 455.28L378.768 446.741L383.289 450.55L373.157 459.086L368.639 455.28ZM414.735 447.184H577.339V454.255H414.735V447.184ZM319.092 448.989L331.762 459.616V462.236L319.07 451.411L305.177 463.229L291.316 451.411L277.422 463.227L269.696 456.634C269.041 456.067 268.378 455.504 267.714 454.941L263.562 451.413L251.477 461.701V459.256L263.587 448.99L277.523 460.684L291.34 448.989L305.276 460.684L319.092 448.989ZM251.477 462.972L263.562 452.684L266.961 455.571C267.622 456.135 268.282 456.694 268.937 457.262L277.422 464.501L291.314 452.685L305.176 464.5L319.069 452.685L331.762 463.51V466.096L319.092 455.311L305.196 467.1L291.34 455.311L277.443 467.1L263.585 455.311L251.477 465.589V462.972ZM319.091 456.581L331.762 467.357V484.31H251.477V466.86L263.584 456.581L275.613 466.825L277.448 468.368L291.339 456.581L303.367 466.824L305.199 468.368L319.091 456.581ZM414.735 462.287H577.339V469.358H414.735V462.287ZM414.735 477.16H577.339V484.307H414.735V477.16ZM7.00131 485.489H86.8165L53.2271 513.806L47.6149 509.078L36.5146 518.431L25.4155 509.078L13.2758 519.306L25.4155 529.535L36.5146 520.182L41.0909 524.038L7.00131 552.775V485.489ZM415.272 485.506H451.76C448.838 489.087 446.835 497.269 446.835 500.732V501.372C444.546 499.825 439.672 496.533 437.776 495.287C433.122 492.311 426.45 492.739 422.26 496.276L421.802 496.66V498.318L437.937 508.656H425.476C421.71 508.656 417.553 510.434 415.272 513.283V485.506ZM565.92 485.524H577.341V553.075H565.916L575.122 545.312L556.895 545.303L565.944 537.589L548.793 537.569L557.33 530.23L539.148 530.207L548.128 522.441H526.86L535.845 530.204L517.863 530.18L526.597 537.581L508.49 537.617L517.548 545.273L499.402 545.263L508.71 553.075H497.205V485.524H508.52L499.408 493.202L517.593 493.212L508.541 500.926L526.02 500.946L517.481 508.285L535.664 508.308L526.686 516.073H547.955L538.972 508.313L556.949 508.335L548.216 500.934L565.998 500.897L556.94 493.241L575.131 493.252L565.92 485.524ZM520.855 507.093L529.394 499.754L511.936 499.735L520.99 492.019L502.834 492.008L510.524 485.527H563.912L571.691 492.054L553.518 492.043L562.588 499.707L544.811 499.745L553.533 507.137L537.587 507.116L537.315 506.881L537.045 507.115L520.855 507.093ZM227.293 544.968L242.501 532.107L227.271 519.382L242.501 506.658L227.292 493.789L237.171 485.528H245.115L235.219 493.81L250.425 506.672L235.225 519.382L250.425 532.084L235.218 544.954L244.949 553.087H237.005L227.293 544.968ZM170.894 544.968L186.101 532.107L170.885 519.382L186.101 506.658L170.894 493.789L180.772 485.528H188.726L178.819 493.81L194.027 506.672L178.839 519.382L194.027 532.084L178.819 544.954L188.559 553.087H180.605L170.894 544.968ZM160.831 485.546H169.252V493.476L168.885 493.783L169.252 494.095V519.061L168.868 519.382L169.252 519.702V544.661L168.884 544.973L169.252 545.28V553.105H160.831V485.546ZM143.155 485.546H151.565V553.105H143.155V485.546ZM125.21 485.546H133.62V553.105H125.21V485.546ZM106.92 485.546H115.328V553.105H106.92V485.546ZM89.1908 485.546H97.3844V553.105H89.1908V485.546ZM-74.5512 485.565H5.58129V553.121H-74.5512V485.565ZM333.537 526.807H349.76V513.115H366.001V499.422H382.244V485.567H413.47V553.075H333.537V526.807ZM333.537 511.919V485.567H380.825V498.225H364.582V511.919H348.341V525.611H333.537V511.919ZM301.071 485.567H332.118V511.919H317.295V498.225H301.071V485.567ZM252.184 532.292L252.435 532.079L252.184 531.87V506.886L252.435 506.676L252.184 506.464V485.567H299.651V499.422H315.876V513.115H332.118V526.807V539.398H317.296V525.704H301.052V512.014H283.411V525.704H267.17V539.398H252.184V532.292ZM448.243 500.732C448.243 497.384 450.467 488.521 453.386 485.662L453.687 485.642L453.707 485.659C456.679 488.347 458.851 497.624 458.851 500.732V503.847L460.003 503.049C462.303 501.456 467.898 497.601 470.186 496.222C474.274 493.616 480.142 494 483.841 497.12L483.883 497.728L464.974 509.845H481.619C486.6 509.845 492.148 513.049 492.148 517.647L491.844 517.98H467.338L468.61 519.005C471.332 521.195 476.111 525.06 477.552 526.362C479.911 528.281 481.212 530.879 481.212 533.683C481.212 535.321 480.568 537.32 479.491 539.026L479.171 539.068L459.095 522.016V548.412L453.295 552.524L448.002 549.127V522.016L427.925 539.068H427.63L427.605 539.028C426.528 537.32 425.884 535.321 425.884 533.683C425.884 531.132 427.228 528.456 429.537 526.367C430.577 525.543 433.688 522.996 438.533 518.999L439.767 517.98H415.272V516.008C416.547 512.305 421.288 509.845 425.476 509.845H442.121L423.212 497.728V497.155L423.255 497.119C426.954 493.999 432.831 493.617 436.917 496.229C439.276 497.778 446.305 502.537 447.098 503.074L448.243 503.852V500.732ZM54.2309 514.651L87.5558 486.556V553.085H8.64093L42.0935 524.883L47.6149 529.535L58.8048 520.105L69.9959 529.535L82.1345 519.306L69.9959 509.078L58.8048 518.507L54.2309 514.651ZM170.672 495.296L184.093 506.652L170.672 517.874V495.296ZM237.24 519.382L250.766 508.072V530.684L237.24 519.382ZM537.315 508.595L544.587 514.877H530.052L537.315 508.595ZM59.8638 519.306L69.9959 510.768L80.1269 519.306L69.9959 527.844L59.8638 519.306ZM37.5184 519.335L37.554 519.306L37.5184 519.276L47.6149 510.768L52.2233 514.651L42.0935 523.19L37.5184 519.335ZM15.2822 519.306L25.4155 510.768L35.5108 519.276L35.4763 519.306L35.5108 519.335L25.4155 527.844L15.2822 519.306ZM252.241 540.594H268.589V526.9H284.831V513.21H299.634V526.9H315.877V540.594H332.1V553.075H252.241V540.594ZM43.0973 524.038L53.2271 515.497L57.7482 519.306L47.6149 527.844L43.0973 524.038ZM170.672 520.889L184.092 532.112L170.672 543.461V520.889ZM530.228 523.637H544.763L537.5 529.918L530.228 523.637ZM511.9 538.807L530.003 538.771L521.28 531.38L537.23 531.4L537.5 531.633L537.768 531.4L553.958 531.421L545.418 538.761L562.549 538.781L553.499 546.497L571.699 546.506L563.909 553.075H510.723L502.841 546.462L520.97 546.472L511.9 538.807ZM-74.8065 10.2097H90.3407V0.755615H-74.8065V10.2097ZM-73.3853 1.95471H88.9207V9.0116H-73.3853V1.95471ZM286.128 3.21582L285.797 3.51917C284.15 5.02362 282.971 9.15698 282.864 11.1238C281.426 10.2175 279.511 9.01447 278.688 8.50848C276.15 6.9953 272.513 7.21338 270.227 9.01251L269.873 9.29169V10.3997L277.445 14.9246H272.121C269.16 14.9246 265.749 16.8187 265.588 19.5358L265.564 19.9546L266.366 20.6293H276.81C275.528 21.6132 274.038 22.7551 273.477 23.17C272.067 24.3584 271.259 25.8783 271.259 27.342C271.259 28.2774 271.644 29.4048 272.288 30.3596L272.61 30.8317H273.823L282.73 23.7748V42.7092L286.581 45.0163L290.629 42.337V23.7748L299.536 30.8317H300.75L301.071 30.3577C301.716 29.4067 302.101 28.2784 302.101 27.342C302.101 25.7358 301.304 24.2459 299.883 23.17C299.338 22.7114 297.894 21.6073 296.599 20.6293H306.994L307.773 19.972V19.5833C307.773 16.8391 304.328 14.9246 301.239 14.9246H295.915L303.487 10.3997V9.29169L303.132 9.01447C300.846 7.21631 297.212 6.9953 294.695 8.49396C293.77 9.01447 291.877 10.2136 290.493 11.0995C290.371 9.26941 289.247 4.93933 287.531 3.49109L287.204 3.21582H286.128ZM284.272 11.4011C284.272 9.88013 285.305 5.95227 286.684 4.48077C288.06 5.87567 289.088 10.0294 289.088 11.4011V13.5103L290.227 12.7736C291.151 12.1765 294.259 10.1748 295.498 9.47784C297.448 8.31561 300.236 8.45709 302.047 9.7948L291.468 16.1189H301.239C303.594 16.1189 306.221 17.5273 306.352 19.435H292.883L294.273 20.4771C295.406 21.3282 298.122 23.3735 298.909 24.0366C300.054 24.9041 300.685 26.0789 300.685 27.342C300.685 28.0012 300.419 28.8261 299.982 29.5464L289.214 21.0141V41.7563L286.54 43.5254L284.146 42.0936V21.0141L273.377 29.5464C272.941 28.8261 272.675 28.0012 272.675 27.342C272.675 26.1924 273.333 24.9807 274.444 24.0414C275.196 23.4869 277.798 21.4861 279.114 20.4731L280.463 19.435H267.018C267.264 17.5264 269.865 16.1189 272.121 16.1189H281.892L271.313 9.7948C273.124 8.45709 275.913 8.31848 277.863 9.47876C278.922 10.1292 281.832 11.9633 283.138 12.7881L284.272 13.5035V11.4011ZM516.076 13.7294L506.666 19.5581C504.276 21.0393 503.656 23.8485 505.253 25.9549L528.276 56.3053C529.325 57.6877 531.121 58.4806 532.993 58.4806C533.57 58.4806 534.154 58.405 534.727 58.2489L567.408 49.263C569.122 48.7899 570.276 47.4513 570.276 45.9304V42.5715C570.276 40.6396 568.411 39.0683 566.118 39.0683H561.96L523.321 13.8088C522.244 13.1051 520.94 12.7513 519.635 12.7513C518.383 12.7513 517.13 13.077 516.076 13.7294ZM529.468 55.6617L506.446 25.3112C505.249 23.7341 505.714 21.6296 507.504 20.5207L516.914 14.693C518.56 13.6722 520.839 13.6974 522.453 14.754L561.285 40.1365L561.476 40.2615H566.118C567.63 40.2615 568.859 41.2988 568.859 42.5715V45.9304C568.859 46.9326 568.099 47.8157 566.968 48.1269L534.288 57.1128C533.86 57.2301 533.424 57.2863 532.993 57.2863C531.595 57.2863 530.253 56.6941 529.468 55.6617ZM-74.8065 25.2851H90.3407V15.831H-74.8065V25.2851ZM-73.3853 17.03H88.9207V24.087H-73.3853V17.03ZM286.66 49.8223L261.148 37.4456L283.036 63.2934C283.746 64.1309 284.854 64.6302 286.074 64.6612C286.115 64.6621 286.157 64.6621 286.198 64.6621C287.372 64.6621 288.463 64.2249 289.209 63.4495L328.209 22.3276L286.66 49.8223ZM319.475 29.6249L288.107 62.7002C287.617 63.2081 286.881 63.4844 286.118 63.4669C285.343 63.4466 284.639 63.1306 284.189 62.5993L266.082 41.2164L286.781 51.2589L319.475 29.6249ZM-74.8065 40.6512H90.3407V31.1981H-74.8065V40.6512ZM-73.3853 32.3962H88.9207V39.4521H-73.3853V32.3962ZM-74.8065 55.7267H90.3407V46.2715H-74.8065V55.7267ZM-73.3853 47.4697H88.9207V54.5276H-73.3853V47.4697ZM530.251 108.918L504.755 96.5481L526.63 122.38C527.34 123.218 528.445 123.717 529.664 123.748C529.706 123.749 529.746 123.749 529.788 123.749C530.961 123.749 532.052 123.312 532.798 122.537L571.772 81.4417L530.251 108.918ZM563.094 88.6914L531.701 121.794C531.212 122.301 530.477 122.587 529.708 122.562C528.931 122.542 528.227 122.225 527.776 121.691L509.658 100.296L530.373 110.345L563.094 88.6914ZM202.624 141.759L202.295 142.061C200.649 143.566 199.469 147.699 199.361 149.665C197.924 148.758 196.008 147.554 195.185 147.05C192.647 145.538 189.008 145.755 186.728 147.553L186.369 147.831V148.942L193.943 153.467H188.618C185.658 153.467 182.247 155.362 182.085 158.075L182.059 158.494L182.861 159.172H193.305C192.024 160.156 190.535 161.296 189.973 161.713C188.564 162.899 187.755 164.42 187.755 165.883C187.755 166.82 188.14 167.948 188.785 168.901L189.107 169.373H190.321L199.226 162.318V181.252L203.079 183.558L207.127 180.88V162.318L216.033 169.373H217.247L217.569 168.9C218.213 167.947 218.597 166.818 218.597 165.883C218.597 164.276 217.801 162.788 216.38 161.713C215.933 161.335 214.831 160.482 213.098 159.172H223.492L224.27 158.514V158.126C224.27 155.38 220.827 153.467 217.736 153.467H212.411L219.984 148.942V147.831L219.63 147.556C217.344 145.756 213.711 145.538 211.193 147.037C210.295 147.541 208.462 148.699 206.99 149.642C206.868 147.811 205.745 143.482 204.028 142.033L203.702 141.759H202.624ZM200.768 149.944C200.768 148.423 201.8 144.498 203.183 143.024C204.557 144.419 205.585 148.572 205.585 149.944V152.051L206.723 151.316C207.918 150.545 210.819 148.682 211.995 148.021C213.945 146.858 216.729 146.999 218.544 148.338L207.965 154.662H217.736C220.092 154.662 222.718 156.069 222.848 157.978H209.383L210.771 159.02C213.908 161.376 215.009 162.245 215.405 162.578C216.552 163.447 217.182 164.619 217.182 165.883C217.182 166.554 216.922 167.362 216.481 168.088L205.711 159.557V180.299L203.037 182.067L200.643 180.636V159.557L189.874 168.088C189.431 167.361 189.173 166.554 189.173 165.883C189.173 164.733 189.829 163.523 190.941 162.584C191.693 162.027 194.295 160.028 195.61 159.016L196.961 157.978H183.515C183.762 156.068 186.362 154.662 188.618 154.662H198.389L187.809 148.338C189.62 147.001 192.41 146.86 194.361 148.021C195.419 148.67 198.331 150.505 199.636 151.331L200.768 152.046V149.944ZM-54.6101 152.271L-64.019 158.1C-66.4094 159.58 -67.0303 162.39 -65.4332 164.497L-42.4106 194.846C-41.3608 196.229 -39.5648 197.022 -37.6941 197.022C-37.1157 197.022 -36.5316 196.948 -35.9579 196.79L-3.27799 187.804C-1.56248 187.333 -0.409218 185.994 -0.409218 184.472V181.114C-0.409218 179.181 -2.27421 177.608 -4.56693 177.608H-8.7235L-47.364 152.351C-48.4414 151.646 -49.7452 151.293 -51.0491 151.293C-52.3013 151.293 -53.5546 151.618 -54.6101 152.271ZM-41.216 194.202L-64.2386 163.853C-65.4355 162.276 -64.971 160.171 -63.1808 159.063L-53.7719 153.234C-52.9647 152.734 -52.0069 152.486 -51.0503 152.486C-50.0522 152.486 -49.0554 152.756 -48.2309 153.294L-9.39958 178.678L-9.20756 178.803H-4.56693C-3.05608 178.803 -1.82693 179.84 -1.82693 181.114V184.472C-1.82693 185.476 -2.58581 186.359 -3.71722 186.668L-36.3982 195.654C-36.8248 195.772 -37.2629 195.828 -37.6941 195.828C-39.0911 195.828 -40.4329 195.236 -41.216 194.202ZM203.157 188.365L177.645 175.987L199.533 201.833C200.243 202.672 201.35 203.17 202.57 203.202C202.612 203.204 202.653 203.204 202.694 203.204C203.868 203.204 204.959 202.766 205.707 201.991L244.707 160.867L203.157 188.365ZM235.971 168.167L204.603 201.241C204.115 201.749 203.383 202.01 202.614 202.01C201.839 201.988 201.136 201.672 200.686 201.14L182.58 179.758L203.278 189.802L235.971 168.167ZM-40.4341 247.461L-65.9288 235.091L-44.0548 260.922C-43.3454 261.761 -42.2381 262.258 -41.0193 262.289C-40.978 262.291 -40.9377 262.292 -40.8975 262.292C-39.7235 262.291 -38.6346 261.855 -37.8884 261.079L1.08783 219.983L-40.4341 247.461ZM-7.59093 227.232L-38.9842 260.335C-39.4728 260.844 -40.1972 261.16 -40.9756 261.104C-41.7529 261.083 -42.4577 260.767 -42.9085 260.233L-61.0272 238.838L-40.3122 248.888L-7.59093 227.232ZM285.594 279.158L285.263 279.46C283.613 280.967 282.431 285.109 282.323 287.078C280.884 286.17 278.965 284.964 278.14 284.458C275.596 282.941 271.951 283.162 269.667 284.961L269.309 285.24V286.353L276.895 290.887H271.561C268.596 290.887 265.177 292.784 265.015 295.507L264.992 295.925L265.795 296.602H276.257C274.973 297.587 273.48 298.73 272.918 299.146C271.507 300.338 270.696 301.861 270.696 303.325C270.696 304.264 271.082 305.394 271.729 306.348L272.051 306.822H273.265L282.189 299.754V318.723L286.049 321.033L290.104 318.348V299.754L299.026 306.822H300.242L300.565 306.347C301.211 305.394 301.596 304.264 301.596 303.325C301.596 301.717 300.797 300.225 299.374 299.146C298.817 298.676 297.326 297.54 296.085 296.602H306.498L307.279 295.943V295.553C307.279 292.803 303.828 290.887 300.732 290.887H295.398L302.984 286.353V285.238L302.63 284.965C300.341 283.165 296.702 282.942 294.177 284.445C293.279 284.95 291.444 286.11 289.966 287.055C289.845 285.222 288.72 280.884 286.998 279.432L286.673 279.158H285.594ZM283.735 287.356C283.735 285.833 284.769 281.898 286.152 280.423C287.528 281.822 288.559 285.982 288.559 287.356V289.469L289.699 288.732C291.186 287.772 293.847 286.067 294.98 285.43C296.935 284.267 299.721 284.408 301.542 285.749L290.942 292.083H300.732C303.092 292.083 305.724 293.493 305.855 295.405H292.36L293.753 296.45C294.635 297.112 297.573 299.319 298.399 300.013C299.546 300.885 300.177 302.06 300.177 303.325C300.177 303.996 299.916 304.807 299.475 305.534L288.685 296.988V317.768L286.005 319.54L283.608 318.104V296.988L272.819 305.534C272.375 304.807 272.116 303.996 272.116 303.325C272.116 302.176 272.775 300.96 273.887 300.019C274.64 299.464 277.248 297.46 278.567 296.445L279.918 295.405H266.449C266.696 293.493 269.3 292.083 271.561 292.083H281.35L270.75 285.749C272.565 284.407 275.359 284.268 277.314 285.43C278.375 286.082 281.291 287.92 282.599 288.747L283.735 289.463V287.356ZM515.962 289.69L506.534 295.529C504.142 297.012 503.52 299.827 505.12 301.937L528.184 332.341C529.237 333.727 531.035 334.521 532.908 334.521C533.486 334.521 534.073 334.446 534.647 334.289L567.389 325.287C569.106 324.812 570.261 323.472 570.261 321.948V318.583C570.261 316.647 568.392 315.073 566.097 315.073H561.932L523.221 289.769C522.141 289.064 520.834 288.71 519.528 288.709C518.273 288.709 517.019 289.035 515.962 289.69ZM529.379 331.698L506.315 301.293C505.116 299.712 505.582 297.604 507.374 296.493L516.803 290.653C518.45 289.633 520.733 289.659 522.351 290.714L561.446 316.269H566.097C567.611 316.269 568.842 317.308 568.842 318.583V321.948C568.842 322.953 568.081 323.838 566.947 324.149L534.205 333.151C533.776 333.27 533.337 333.327 532.904 333.328C531.505 333.328 530.165 332.73 529.379 331.698ZM-75.0112 301.264H89.4473V291.796H-75.0112V301.264ZM-73.5923 292.993H88.0273V300.068H-73.5923V292.993ZM286.126 325.849L260.568 313.449L282.496 339.343C283.207 340.182 284.316 340.681 285.539 340.715C285.579 340.715 285.621 340.716 285.662 340.716C286.84 340.716 287.933 340.276 288.681 339.499L327.752 298.301L286.126 325.849ZM319.001 305.613L287.574 338.749C287.087 339.258 286.384 339.557 285.583 339.517C284.806 339.498 284.102 339.18 283.651 338.648L265.512 317.226L286.25 327.288L319.001 305.613ZM-75.0112 316.658H89.4473V307.19H-75.0112V316.658ZM-73.5923 308.388H88.0273V315.462H-73.5923V308.388ZM-75.0112 331.761H89.4473V322.293H-75.0112V331.761ZM-73.5923 323.489H88.0273V330.564H-73.5923V323.489ZM530.164 385.053L504.621 372.659L526.537 398.539C527.248 399.378 528.355 399.877 529.576 399.909C529.617 399.909 529.659 399.91 529.7 399.91C530.874 399.91 531.966 399.473 532.715 398.696L571.76 357.524L530.164 385.053ZM563.066 364.789L531.617 397.95C531.126 398.461 530.384 398.738 529.62 398.722C528.841 398.7 528.136 398.382 527.685 397.849L509.531 376.414L530.285 386.483L563.066 364.789ZM201.94 417.953L201.608 418.255C199.957 419.763 198.776 423.904 198.668 425.873C197.228 424.965 195.308 423.76 194.485 423.254C191.942 421.739 188.298 421.958 186.009 423.759L185.653 424.037V425.148L193.239 429.683H187.905C184.939 429.683 181.522 431.579 181.361 434.3L181.334 434.72L182.139 435.397H192.601C191.318 436.383 189.826 437.526 189.263 437.942C187.851 439.131 187.041 440.655 187.041 442.121C187.041 443.059 187.426 444.19 188.074 445.146L188.396 445.617H189.611L198.533 438.548V457.518L202.392 459.828L206.448 457.144V438.548L215.372 445.617H216.586L216.909 445.143C217.556 444.19 217.941 443.059 217.941 442.121C217.941 440.511 217.142 439.02 215.718 437.942C215.173 437.481 213.728 436.378 212.43 435.397H222.842L223.622 434.738V434.349C223.622 431.599 220.173 429.683 217.076 429.683H211.742L219.329 425.148V424.038L218.974 423.76C216.685 421.959 213.045 421.739 210.521 423.24C209.59 423.763 207.647 424.994 206.31 425.851C206.189 424.016 205.063 419.679 203.342 418.227L203.015 417.953H201.94ZM200.078 426.151C200.078 424.629 201.113 420.693 202.497 419.219C203.873 420.615 204.902 424.778 204.902 426.151V428.266L206.044 427.528C206.968 426.929 210.077 424.926 211.325 424.226C213.282 423.06 216.071 423.205 217.887 424.543L207.288 430.879H217.076C219.436 430.879 222.069 432.289 222.199 434.201H208.706L210.098 435.246C211.234 436.097 213.954 438.146 214.743 438.809C215.89 439.68 216.521 440.856 216.521 442.121C216.521 442.792 216.261 443.603 215.818 444.33L205.03 435.783V456.563L202.349 458.335L199.953 456.9V435.783L189.162 444.33C188.721 443.603 188.46 442.792 188.46 442.121C188.46 440.97 189.12 439.754 190.233 438.815C190.985 438.26 193.592 436.255 194.911 435.241L196.262 434.201H182.792C183.041 432.288 185.645 430.879 187.905 430.879H197.695L187.095 424.543C188.908 423.203 191.704 423.063 193.658 424.226C194.718 424.877 197.635 426.716 198.944 427.541L200.078 428.259V426.151ZM-55.7668 428.485L-65.1952 434.325C-67.5891 435.808 -68.21 438.623 -66.6095 440.732L-43.5443 471.137C-42.4934 472.523 -40.6951 473.317 -38.8209 473.317C-38.2414 473.317 -37.6561 473.242 -37.0824 473.085L-4.34041 464.082C-2.6226 463.61 -1.46704 462.268 -1.46704 460.744V457.379C-1.46704 455.443 -3.33662 453.868 -5.63395 453.868H-9.79741L-48.5081 428.562C-49.5877 427.858 -50.8939 427.506 -52.2001 427.506C-53.4545 427.506 -54.7101 427.831 -55.7668 428.485ZM-42.3497 470.494L-65.4149 440.089C-66.613 438.507 -66.1473 436.399 -64.3547 435.288L-54.9274 429.448C-54.1191 428.949 -53.1602 428.699 -52.2012 428.699C-51.202 428.699 -50.204 428.969 -49.3773 429.509L-10.2826 455.064H-5.63395C-4.1185 455.064 -2.88706 456.103 -2.88706 457.379V460.744C-2.88706 461.748 -3.64824 462.633 -4.7808 462.944L-37.5228 471.946C-37.9517 472.065 -38.3909 472.122 -38.8243 472.122C-40.2225 472.122 -41.5644 471.527 -42.3497 470.494ZM202.47 464.643L176.912 452.244L198.84 478.139C199.551 478.977 200.66 479.477 201.884 479.509C201.925 479.509 201.965 479.51 202.007 479.51C203.184 479.51 204.278 479.072 205.026 478.295L244.097 437.097L202.47 464.643ZM235.345 444.409L203.92 477.545C203.431 478.053 202.703 478.323 201.927 478.313C201.151 478.293 200.446 477.976 199.996 477.443L181.856 456.022L202.594 466.083L235.345 444.409ZM208.39 484.332L197.088 493.783L212.294 506.652L197.059 519.382L212.294 532.112L197.087 544.973L208.224 554.283H220.197L209.031 544.95L224.239 532.079L209.044 519.382L224.239 506.676L209.031 493.815L220.363 484.332H208.39ZM199.097 544.968L214.304 532.107L199.075 519.382L214.304 506.658L199.097 493.789L208.975 485.528H216.919L207.022 493.81L222.23 506.672L207.028 519.382L222.23 532.084L207.021 544.954L216.751 553.087H208.808L199.097 544.968ZM-41.5655 523.847L-67.1074 511.456L-45.1931 537.333C-44.4814 538.172 -43.3742 538.673 -42.1519 538.704C-42.1117 538.705 -42.0703 538.705 -42.0289 538.705C-40.8538 538.705 -39.7626 538.266 -39.0152 537.489L0.0311661 496.32L-41.5655 523.847ZM-8.6637 503.585L-40.1144 536.745C-40.6043 537.256 -41.3367 537.52 -42.1094 537.516C-42.8878 537.496 -43.5915 537.177 -44.0456 536.643L-62.1977 515.208L-41.4448 525.277L-8.6637 503.585Z" fill="white"/></mask><g mask="url(#mask0_330_1225)"><rect x="-106.512" y="-0.732422" width="655.391" height="555.439" fill="url(#paint0_linear_330_1225)"/></g></g><defs><linearGradient id="paint0_linear_330_1225" x1="-130.907" y1="109.262" x2="734.188" y2="134.213" gradientUnits="userSpaceOnUse"><stop offset="0.270457" stop-color="#1B8354"/><stop offset="0.984737" stop-color="white" stop-opacity="0"/></linearGradient></defs></svg>