<svg width="922" height="344" fill="none" xmlns="http://www.w3.org/2000/svg"><path d="M0.5 16C0.5 7.16345 7.66344 0 16.5 0H905.5C914.337 0 921.5 7.16344 921.5 16V328C921.5 336.837 914.337 344 905.5 344H16.5C7.66345 344 0.5 336.837 0.5 328V16Z" fill="#F9FAFB"/><path d="M437.5 172C437.5 158.745 448.245 148 461.5 148C474.755 148 485.5 158.745 485.5 172C485.5 185.255 474.755 196 461.5 196C448.245 196 437.5 185.255 437.5 172Z" fill="#079455"/><path d="M454.124 163.351C454.355 163.217 454.64 163.216 454.872 163.349L468.872 171.349C469.106 171.482 469.25 171.731 469.25 172C469.25 172.269 469.106 172.518 468.872 172.651L454.872 180.651C454.64 180.784 454.355 180.783 454.124 180.649C453.892 180.514 453.75 180.267 453.75 180V164C453.75 163.733 453.892 163.486 454.124 163.351Z" fill="white"/></svg>