<svg
    width="20"
    height="20"
    viewBox="0 0 20 20"
    fill="none"
    xmlns="http://www.w3.org/2000/svg"
>
    <path
        fill-rule="evenodd"
        clip-rule="evenodd"
        d="M1.04199 3.54102C1.04199 2.1603 2.16128 1.04102 3.54199 1.04102C4.9227 1.04102 6.04199 2.1603 6.04199 3.54102C6.04199 4.92173 4.9227 6.04102 3.54199 6.04102C2.16128 6.04102 1.04199 4.92173 1.04199 3.54102ZM3.54199 2.29102C2.85164 2.29102 2.29199 2.85066 2.29199 3.54102C2.29199 4.23137 2.85164 4.79102 3.54199 4.79102C4.23235 4.79102 4.79199 4.23137 4.79199 3.54102C4.79199 2.85066 4.23235 2.29102 3.54199 2.29102Z"
        fill="url(#paint0_linear_1045_7894)"
    />
    <path
        fill-rule="evenodd"
        clip-rule="evenodd"
        d="M3.29637 7.29102H3.78762C4.1483 7.29098 4.47899 7.29094 4.748 7.3271C5.04424 7.36693 5.35734 7.46064 5.61486 7.71816C5.87238 7.97568 5.96609 8.28878 6.00592 8.58501C6.04208 8.85402 6.04204 9.18471 6.042 9.54539L6.042 16.7033C6.04204 17.064 6.04208 17.3947 6.00592 17.6637C5.96609 17.9599 5.87238 18.273 5.61486 18.5306C5.35734 18.7881 5.04424 18.8818 4.748 18.9216C4.47899 18.9578 4.1483 18.9577 3.78762 18.9577H3.29638C2.9357 18.9577 2.605 18.9578 2.33599 18.9216C2.03976 18.8818 1.72665 18.7881 1.46913 18.5306C1.21161 18.273 1.11791 17.9599 1.07808 17.6637C1.04191 17.3947 1.04195 17.064 1.042 16.7033L1.042 9.5454C1.04195 9.18472 1.04191 8.85402 1.07808 8.58501C1.11791 8.28878 1.21161 7.97568 1.46913 7.71816C1.72665 7.46064 2.03976 7.36693 2.33599 7.3271C2.605 7.29094 2.93569 7.29098 3.29637 7.29102ZM2.35303 8.60205L2.35506 8.60091C2.35667 8.60006 2.35943 8.59872 2.36364 8.59699C2.38179 8.58952 2.42209 8.57678 2.50255 8.56596C2.67815 8.54235 2.92316 8.54102 3.33366 8.54102H3.75033C4.16084 8.54102 4.40584 8.54235 4.58144 8.56596C4.66191 8.57678 4.70221 8.58952 4.72036 8.59699C4.72457 8.59872 4.72733 8.60006 4.72894 8.60091L4.73097 8.60205L4.73211 8.60408C4.73296 8.60569 4.7343 8.60845 4.73603 8.61266C4.7435 8.63081 4.75624 8.67111 4.76706 8.75157C4.79067 8.92718 4.792 9.17218 4.792 9.58269L4.792 16.666C4.792 17.0765 4.79067 17.3215 4.76706 17.4971C4.75624 17.5776 4.7435 17.6179 4.73603 17.636C4.7343 17.6403 4.73296 17.643 4.73211 17.6446L4.73097 17.6467L4.72894 17.6478C4.72733 17.6486 4.72457 17.65 4.72036 17.6517C4.70221 17.6592 4.66191 17.6719 4.58144 17.6828C4.40584 17.7064 4.16084 17.7077 3.75033 17.7077H3.33366C2.92316 17.7077 2.67815 17.7064 2.50255 17.6828C2.42209 17.6719 2.38179 17.6592 2.36364 17.6517C2.35943 17.65 2.35667 17.6486 2.35506 17.6478L2.35303 17.6467L2.35188 17.6446C2.35104 17.643 2.34969 17.6403 2.34796 17.636C2.3405 17.6179 2.32775 17.5776 2.31693 17.4971C2.29333 17.3215 2.292 17.0765 2.292 16.666L2.292 9.58269C2.292 9.17218 2.29333 8.92718 2.31693 8.75157C2.32775 8.67111 2.3405 8.63081 2.34796 8.61266C2.34969 8.60845 2.35104 8.60569 2.35188 8.60408L2.35303 8.60205Z"
        fill="url(#paint1_linear_1045_7894)"
    />
    <path
        fill-rule="evenodd"
        clip-rule="evenodd"
        d="M9.54637 7.29102C9.78769 7.291 10.7596 7.29098 10.9441 7.30788C11.1436 7.32616 11.3608 7.36817 11.5701 7.49062C11.7861 7.61701 11.966 7.79686 12.0924 8.01289L12.1024 8.0303C12.7605 7.5656 13.5549 7.29122 14.4143 7.29122C16.6603 7.29122 18.9587 9.20307 18.9587 11.6662L18.9576 16.2873C18.9576 16.6479 18.9575 16.9785 18.9213 17.2475C18.8814 17.5436 18.7876 17.8567 18.5301 18.1141C18.2726 18.3715 17.9596 18.4652 17.6634 18.505C17.3945 18.5412 17.0638 18.5412 16.7032 18.5411H16.213C15.8523 18.5412 15.5216 18.5412 15.2526 18.505C14.9564 18.4652 14.6433 18.3715 14.3858 18.114C14.1282 17.8565 14.0345 17.5434 13.9947 17.2471C13.9585 16.9781 13.9586 16.6474 13.9586 16.2867L13.9586 12.4995C13.9586 12.1182 13.6766 11.8745 13.4069 11.8745C12.9759 11.8745 12.7442 12.0397 12.5849 12.3042C12.3977 12.615 12.292 13.1067 12.292 13.7495L12.292 16.7033C12.2921 17.064 12.2921 17.3947 12.2559 17.6637C12.2161 17.9599 12.1224 18.273 11.8649 18.5306C11.6073 18.7881 11.2942 18.8818 10.998 18.9216C10.729 18.9578 10.3983 18.9577 10.0376 18.9577H9.54636C9.18568 18.9577 8.855 18.9578 8.58599 18.9216C8.28976 18.8818 7.97665 18.7881 7.71913 18.5306C7.46162 18.273 7.36791 17.9599 7.32808 17.6637C7.29191 17.3947 7.29195 17.064 7.292 16.7033L7.292 9.5454C7.29195 9.18472 7.29191 8.85402 7.32808 8.58501C7.36791 8.28878 7.46162 7.97568 7.71913 7.71816C7.97665 7.46064 8.28976 7.36693 8.58599 7.3271C8.855 7.29094 9.18569 7.29098 9.54637 7.29102ZM9.58366 8.54102C9.17315 8.54102 8.92815 8.54234 8.75255 8.56595C8.69616 8.56376 8.5801 8.59781 8.56693 8.75157C8.54332 8.92717 8.54199 9.17218 8.54199 9.58268L8.54199 16.666C8.54199 17.0765 8.54332 17.3215 8.56693 17.4971C8.57699 17.5988 8.69486 17.6632 8.75255 17.6827C8.92815 17.7064 9.17315 17.7077 9.58366 17.7077H10.0003C10.4108 17.7077 10.6558 17.7064 10.8314 17.6827C10.8888 17.6683 11.0062 17.6109 11.0171 17.4971C11.0407 17.3215 11.042 17.0765 11.042 16.666L11.042 13.7494C11.042 13.0115 11.1564 12.2532 11.5141 11.6592C11.8999 11.0188 12.5381 10.6244 13.4069 10.6244C14.437 10.6244 15.2086 11.5 15.2086 12.4994V16.2494C15.2086 16.66 15.21 16.905 15.2336 17.0806C15.2336 17.2123 15.3132 17.2343 15.3753 17.2516C15.3918 17.2561 15.407 17.2604 15.4192 17.2662C15.5948 17.2898 15.8398 17.2911 16.2503 17.2911L16.6659 17.2911C17.0763 17.2911 17.3213 17.2898 17.4969 17.2662C17.5547 17.2447 17.6727 17.1776 17.6825 17.0806C17.7061 16.9051 17.7075 16.6601 17.7076 16.2497L17.7087 11.6661C17.7086 9.98715 16.0676 8.54121 14.4143 8.54121C13.5164 8.54121 12.7039 8.98024 12.1645 9.68938C12.0021 9.90286 11.7216 9.98891 11.4674 9.90323C11.2132 9.81754 11.042 9.57922 11.042 9.311C11.042 9.03686 11.0414 8.8735 11.0304 8.75301C11.0235 8.62697 10.894 8.56693 10.83 8.55267C10.7095 8.54163 10.5462 8.54102 10.272 8.54102L9.58366 8.54102Z"
        fill="url(#paint2_linear_1045_7894)"
    />
    <defs>
        <linearGradient
            id="paint0_linear_1045_7894"
            x1="1.04171"
            y1="18.9576"
            x2="18.9585"
            y2="1.04076"
            gradientUnits="userSpaceOnUse"
        >
            <stop stop-color="#182230" />
            <stop
                offset="1"
                stop-color="#475467"
            />
        </linearGradient>
        <linearGradient
            id="paint1_linear_1045_7894"
            x1="1.04171"
            y1="18.9576"
            x2="18.9585"
            y2="1.04076"
            gradientUnits="userSpaceOnUse"
        >
            <stop stop-color="#182230" />
            <stop
                offset="1"
                stop-color="#475467"
            />
        </linearGradient>
        <linearGradient
            id="paint2_linear_1045_7894"
            x1="1.04171"
            y1="18.9576"
            x2="18.9585"
            y2="1.04076"
            gradientUnits="userSpaceOnUse"
        >
            <stop stop-color="#182230" />
            <stop
                offset="1"
                stop-color="#475467"
            />
        </linearGradient>
    </defs>
</svg>