<svg width="25" height="24" viewBox="0 0 25 24" fill="none" xmlns="http://www.w3.org/2000/svg">
<path d="M15.9447 6.60372C15.7833 6.7256 15.3016 7.08951 15.0239 7.30624C14.4677 7.74031 13.7286 8.33342 12.9917 8.97323C12.2511 9.61627 11.5298 10.2918 10.9995 10.8919C10.7337 11.1928 10.5316 11.4571 10.4001 11.6753C10.2765 11.8804 10.2507 12.0016 10.2507 12.0016C10.2507 12.0016 10.2765 12.1192 10.4001 12.3244C10.5316 12.5425 10.7337 12.8068 10.9995 13.1078C11.5298 13.7079 12.2511 14.3834 12.9917 15.0264C13.7286 15.6662 14.4677 16.2593 15.0239 16.6934C15.3016 16.9101 15.7827 17.2735 15.9441 17.3954C16.2776 17.6411 16.3495 18.1111 16.1039 18.4446C15.8583 18.7781 15.3888 18.8494 15.0552 18.6037L15.0527 18.6018C14.8834 18.474 14.3844 18.0971 14.1011 17.8759C13.5323 17.4321 12.7714 16.8216 12.0083 16.1591C11.2489 15.4997 10.4702 14.7741 9.87546 14.101C9.57884 13.7653 9.31212 13.425 9.1155 13.0988C8.93128 12.7932 8.75 12.4063 8.75 11.9998C8.75 11.5933 8.93129 11.2064 9.1155 10.9008C9.31213 10.5747 9.57884 10.2344 9.87546 9.89869C10.4702 9.22557 11.2489 8.4999 12.0083 7.84058C12.7714 7.17803 13.5323 6.5676 14.101 6.12372C14.3846 5.90243 14.8836 5.52551 15.0525 5.39793L15.0547 5.39628C15.3882 5.15065 15.8582 5.22154 16.1038 5.55506C16.3495 5.88857 16.2782 6.35808 15.9447 6.60372Z" fill="#161616"/>
</svg>
